<svg xmlns="http://www.w3.org/2000/svg" xmlns:xlink="http://www.w3.org/1999/xlink" width="150" zoomAndPan="magnify" viewBox="0 0 112.5 74.999997" height="100" preserveAspectRatio="xMidYMid meet" version="1.0"><defs><clipPath id="3e43c94c11"><path d="M 11.0625 31 L 42 31 L 42 74.832031 L 11.0625 74.832031 Z M 11.0625 31 " clip-rule="nonzero"/></clipPath><clipPath id="78e4071575"><path d="M 45 51 L 100.664062 51 L 100.664062 55 L 45 55 Z M 45 51 " clip-rule="nonzero"/></clipPath><clipPath id="e95559b66a"><path d="M 45 54 L 100.664062 54 L 100.664062 74.832031 L 45 74.832031 Z M 45 54 " clip-rule="nonzero"/></clipPath></defs><path stroke-linecap="round" transform="matrix(0.111014, 0, 0, 0.0111014, 56.339572, 23.039957)" fill-opacity="1" fill="#fffbfb" fill-rule="nonzero" stroke-linejoin="round" d="M -11.04628 -22.95214 C -11.04628 -22.95214 11.015997 -22.95214 11.015997 -22.95214 C 11.015997 -22.95214 11.015997 23.142889 11.015997 23.142889 C 11.015997 23.142889 -11.04628 23.142889 -11.04628 23.142889 C -11.04628 23.142889 -11.04628 -22.95214 -11.04628 -22.95214 Z M -11.04628 -22.95214 " stroke="#01975c" stroke-width="6" stroke-opacity="1" stroke-miterlimit="4"/><path stroke-linecap="round" transform="matrix(0.111014, 0, 0, 0.0111014, 62.04902, 22.919226)" fill-opacity="1" fill="#fffbfb" fill-rule="nonzero" stroke-linejoin="round" d="M -11.032867 -33.892835 C -11.032867 -33.892835 11.02941 -33.892835 11.02941 -33.892835 C 11.02941 -33.892835 11.02941 34.018162 11.02941 34.018162 C 11.02941 34.018162 -11.032867 34.018162 -11.032867 34.018162 C -11.032867 34.018162 -11.032867 -33.892835 -11.032867 -33.892835 Z M -11.032867 -33.892835 " stroke="#01975c" stroke-width="6" stroke-opacity="1" stroke-miterlimit="4"/><path stroke-linecap="round" transform="matrix(0.111014, 0, 0, 0.00666083, 67.420983, 22.951079)" fill-opacity="1" fill="#fffbfb" fill-rule="nonzero" stroke-linejoin="round" d="M -11.040695 -51.886916 C -11.040695 -51.886916 11.021582 -51.886916 11.021582 -51.886916 C 11.021582 -51.886916 11.021582 51.91486 11.021582 51.91486 C 11.021582 51.91486 -11.040695 51.91486 -11.040695 51.91486 C -11.040695 51.91486 -11.040695 -51.886916 -11.040695 -51.886916 Z M -11.040695 -51.886916 " stroke="#01975c" stroke-width="6" stroke-opacity="1" stroke-miterlimit="4"/><path stroke-linecap="round" transform="matrix(0.111014, 0, 0, 0.00888111, 72.795163, 22.911302)" fill-opacity="1" fill="#fffbfb" fill-rule="nonzero" stroke-linejoin="round" d="M -11.03331 -43.233111 C -11.03331 -43.233111 11.028967 -43.233111 11.028967 -43.233111 C 11.028967 -43.233111 11.028967 43.414965 11.028967 43.414965 C 11.028967 43.414965 -11.03331 43.414965 -11.03331 43.414965 C -11.03331 43.414965 -11.03331 -43.233111 -11.03331 -43.233111 Z M -11.03331 -43.233111 " stroke="#01975c" stroke-width="6" stroke-opacity="1" stroke-miterlimit="4"/><path stroke-linecap="round" transform="matrix(0.111014, 0, 0, 0.00555069, 78.202646, 22.881761)" fill-opacity="1" fill="#fffbfb" fill-rule="nonzero" stroke-linejoin="round" d="M -11.044419 -74.407088 C -11.044419 -74.407088 11.017858 -74.407088 11.017858 -74.407088 C 11.017858 -74.407088 11.017858 74.785969 11.017858 74.785969 C 11.017858 74.785969 -11.044419 74.785969 -11.044419 74.785969 C -11.044419 74.785969 -11.044419 -74.407088 -11.044419 -74.407088 Z M -11.044419 -74.407088 " stroke="#01975c" stroke-width="6" stroke-opacity="1" stroke-miterlimit="4"/><path fill="#000001" d="M 31.472656 18.308594 C 31.472656 18.308594 31.199219 15.992188 29.210938 14.644531 C 29.210938 14.644531 26.015625 14.042969 28.148438 11.371094 C 28.148438 11.371094 26.265625 9.183594 29.355469 8.199219 C 29.355469 8.199219 29.597656 5.855469 31.871094 6.957031 C 31.871094 6.957031 32.425781 5.015625 35.277344 5.585938 C 35.277344 5.585938 37.214844 5.886719 37.605469 7.859375 C 37.605469 7.859375 38.625 6.289062 39.949219 7.707031 C 39.949219 7.707031 44.058594 6.855469 43.933594 10.523438 C 43.933594 10.523438 44.113281 13.261719 40.863281 13.148438 C 40.863281 13.148438 40.96875 14.5625 36.585938 14.410156 C 36.585938 14.410156 31.472656 18.308594 31.472656 18.308594 Z M 31.472656 18.308594 " fill-opacity="1" fill-rule="nonzero"/><path fill="#f66819" d="M 35.070312 21.78125 C 35.070312 21.78125 34.351562 21.757812 34.351562 21.757812 C 32.433594 21.6875 30.929688 20.078125 31 18.160156 C 31 18.160156 31.09375 15.464844 31.09375 15.464844 C 31.160156 13.546875 32.769531 12.042969 34.6875 12.109375 C 34.6875 12.109375 35.40625 12.136719 35.40625 12.136719 C 37.324219 12.203125 38.828125 13.8125 38.757812 15.730469 C 38.757812 15.730469 38.664062 18.425781 38.664062 18.425781 C 38.597656 20.347656 36.988281 21.847656 35.070312 21.78125 Z M 35.070312 21.78125 " fill-opacity="1" fill-rule="nonzero"/><path fill="#fffbfb" d="M 35.800781 18.238281 C 34.710938 17.808594 34.824219 18.703125 34.824219 18.707031 C 34.972656 19.878906 36.386719 20.628906 37.507812 20.628906 C 37.597656 20.625 37.6875 20.621094 37.785156 20.613281 C 38.265625 20.074219 38.582031 19.386719 38.652344 18.628906 C 37.722656 18.953125 36.667969 18.582031 35.800781 18.238281 Z M 35.800781 18.238281 " fill-opacity="1" fill-rule="nonzero"/><path fill="#000001" d="M 38.46875 13.894531 C 38.46875 13.894531 33.558594 13.722656 33.558594 13.722656 C 33.558594 13.722656 31.992188 13.933594 31.921875 15.976562 C 31.921875 15.976562 32.15625 17.832031 30.996094 18.160156 C 30.996094 18.160156 29.710938 18.242188 30.09375 15.414062 C 30.09375 15.414062 30.507812 11.808594 30.507812 11.808594 C 30.507812 11.808594 33.007812 9.867188 33.007812 9.867188 C 33.007812 9.867188 38.898438 10.820312 38.898438 10.820312 C 38.898438 10.820312 38.464844 13.894531 38.464844 13.894531 C 38.464844 13.894531 38.46875 13.894531 38.46875 13.894531 Z M 38.46875 13.894531 " fill-opacity="1" fill-rule="nonzero"/><path fill="#000001" d="M 36.164062 16.125 C 36.414062 16.132812 36.609375 16.34375 36.601562 16.59375 C 36.59375 16.84375 36.382812 17.039062 36.132812 17.03125 C 35.882812 17.023438 35.683594 16.8125 35.695312 16.5625 C 35.703125 16.3125 35.914062 16.113281 36.164062 16.125 Z M 36.164062 16.125 " fill-opacity="1" fill-rule="nonzero"/><path stroke-linecap="round" transform="matrix(0.0877428, 0.00305945, -0.00305945, 0.0877428, 36.199274, 15.091782)" fill="none" stroke-linejoin="round" d="M 9.562725 2.315629 C 9.562725 2.315629 0.874072 -8.110563 -9.536119 2.313785 " stroke="#000001" stroke-width="4" stroke-opacity="1" stroke-miterlimit="4"/><path fill="#dffd6e" d="M 35.363281 31.324219 C 35.363281 31.324219 31.746094 32.859375 31.746094 32.859375 C 31.746094 32.859375 34.976562 44.597656 34.976562 44.597656 C 34.976562 44.597656 47.246094 43.226562 47.246094 43.226562 C 46.933594 42.542969 40.578125 35.179688 40.578125 35.179688 C 40.578125 35.179688 35.363281 31.324219 35.363281 31.324219 Z M 35.363281 31.324219 " fill-opacity="1" fill-rule="nonzero"/><path fill="#f66819" d="M 43.550781 25.5625 C 43.550781 25.5625 39.75 23.277344 39.28125 19.703125 C 39.28125 19.703125 37.019531 20.019531 36.90625 18.269531 C 36.90625 18.269531 36.582031 16.898438 38.699219 16.03125 C 38.699219 16.03125 37.617188 13.484375 41.730469 13.710938 C 41.730469 13.710938 44.832031 13.507812 47.523438 19.726562 C 47.523438 19.726562 49.085938 23.558594 46.917969 25.644531 C 46.917969 25.644531 43.550781 25.5625 43.550781 25.5625 Z M 43.550781 25.5625 " fill-opacity="1" fill-rule="nonzero"/><path fill="#dffd6e" d="M 41.324219 23.722656 C 41.324219 23.722656 40.578125 35.179688 40.578125 35.179688 C 40.578125 35.179688 40.328125 37.429688 40.328125 37.429688 C 40.328125 37.429688 43.257812 41.300781 43.257812 41.300781 C 43.257812 41.300781 47.246094 43.226562 47.246094 43.226562 C 47.246094 43.226562 50.359375 26.183594 50.359375 26.183594 C 47.507812 23.332031 41.324219 23.722656 41.324219 23.722656 Z M 41.324219 23.722656 " fill-opacity="1" fill-rule="nonzero"/><path stroke-linecap="round" transform="matrix(0.0877962, 0, 0, 0.0877962, 43.13749, 37.889809)" fill="none" stroke-linejoin="round" d="M -29.151209 -30.86833 C -29.151209 -30.86833 14.762649 -23.660585 29.178141 30.886924 " stroke="#000001" stroke-width="6" stroke-opacity="1" stroke-miterlimit="4"/><path stroke-linecap="round" transform="matrix(0.0877962, 0, 0, 0.0877962, 39.886837, 15.937167)" fill-opacity="1" fill="#fffbfb" fill-rule="nonzero" stroke-linejoin="round" d="M -13.526995 1.071612 C -13.526995 1.071612 1.199942 -2.621245 13.524298 -0.307648 " stroke="#000001" stroke-width="6" stroke-opacity="1" stroke-miterlimit="4"/><path fill="#dffd6e" d="M 18.863281 35.378906 C 18.863281 35.378906 23.976562 22.03125 32.148438 22.898438 C 32.148438 22.898438 38.140625 23.152344 38.140625 37.554688 C 38.140625 37.554688 38.363281 50.179688 36.886719 56.613281 C 36.886719 56.613281 27.683594 61.777344 15.863281 57.140625 C 15.863281 57.140625 15.316406 45.808594 18.863281 35.378906 Z M 18.863281 35.378906 " fill-opacity="1" fill-rule="nonzero"/><path fill="#dffd6e" d="M 24.226562 20.757812 C 24.226562 20.757812 20.046875 22.039062 21.863281 25.222656 C 21.863281 25.222656 23.898438 28.539062 26.992188 25.445312 C 26.992188 25.445312 31.253906 21.695312 34.410156 26.234375 C 34.410156 26.234375 36.457031 28.765625 38.152344 27.074219 C 40.144531 25.082031 36.125 22.152344 34.519531 21.191406 C 31.089844 19.136719 27.851562 19.644531 24.226562 20.757812 Z M 24.226562 20.757812 " fill-opacity="1" fill-rule="nonzero"/><path stroke-linecap="round" transform="matrix(0.0877962, 0, 0, 0.0877962, 30.280181, 25.88307)" fill="none" stroke-linejoin="round" d="M -72.154271 10.675208 C -72.154271 10.675208 -57.560811 14.056619 -39.363477 -4.185206 C -39.363477 -4.185206 8.554685 -46.853282 44.281968 4.713245 C 44.281968 4.713245 53.936788 20.77495 72.178613 20.77495 " stroke="#000001" stroke-width="6" stroke-opacity="1" stroke-miterlimit="4"/><path stroke-linecap="round" transform="matrix(0.0877962, 0, 0, 0.0877962, 37.533198, 35.070759)" fill="none" stroke-linejoin="round" d="M -9.454542 -84.495878 C 5.405873 -29.547939 13.414479 27.446643 7.497009 84.53021 " stroke="#000001" stroke-width="6" stroke-opacity="1" stroke-miterlimit="4"/><path fill="#000001" d="M 15.863281 57.140625 C 15.863281 57.140625 50.363281 57.140625 50.363281 57.140625 C 50.363281 57.140625 50.363281 71.074219 50.363281 71.074219 C 50.363281 71.074219 15.863281 71.074219 15.863281 71.074219 C 15.863281 71.074219 15.863281 57.140625 15.863281 57.140625 Z M 15.863281 57.140625 " fill-opacity="1" fill-rule="nonzero"/><path fill="#dffd6e" d="M 37.65625 42.859375 C 37.285156 41.726562 36.917969 40.59375 36.550781 39.460938 C 36.097656 38.074219 35.582031 36.636719 35.15625 35.214844 C 34.730469 33.796875 34.453125 32.320312 33.832031 30.964844 C 33.183594 29.554688 32.203125 28.132812 30.703125 27.539062 C 29.847656 27.199219 28.738281 27.128906 27.878906 27.523438 C 26.816406 28.007812 25.871094 28.589844 25.1875 29.566406 C 23.707031 31.679688 23.980469 34.539062 24.644531 36.894531 C 24.824219 37.546875 25.050781 38.183594 25.304688 38.808594 C 26.675781 42.191406 28.742188 45.410156 30.597656 48.546875 C 31.570312 50.183594 32.855469 51.476562 34.488281 52.089844 C 45.140625 51.832031 37.65625 42.859375 37.65625 42.859375 Z M 37.65625 42.859375 " fill-opacity="1" fill-rule="nonzero"/><path stroke-linecap="round" transform="matrix(0.0877962, 0.000041373, -0.000041373, 0.0877962, 35.135027, 36.555127)" fill="none" stroke-linejoin="round" d="M -25.197521 -72.515515 C -22.169637 -67.400331 -19.186308 -62.418604 -17.181326 -56.413094 C -1.188333 -13.396613 9.821506 29.577723 25.191566 72.505513 " stroke="#000001" stroke-width="6" stroke-opacity="1" stroke-miterlimit="4"/><g clip-path="url(#3e43c94c11)"><path fill="#01975c" d="M 33.433594 70.15625 C 33.433594 70.15625 19.566406 70.15625 19.566406 70.15625 C 18.226562 70.15625 17.128906 69.0625 17.128906 67.71875 C 17.128906 67.71875 17.128906 31.570312 17.128906 31.570312 C 17.128906 31.570312 11.140625 31.570312 11.140625 31.570312 C 11.140625 31.570312 11.140625 60.308594 11.140625 60.308594 C 11.140625 60.308594 11.140625 67.492188 11.140625 67.492188 C 11.140625 71.15625 14.140625 74.15625 17.804688 74.15625 C 17.804688 74.15625 35.199219 74.15625 35.199219 74.15625 C 37.917969 74.15625 40.265625 72.503906 41.300781 70.15625 C 41.300781 70.15625 33.433594 70.15625 33.433594 70.15625 Z M 33.433594 70.15625 " fill-opacity="1" fill-rule="nonzero"/></g><g clip-path="url(#78e4071575)"><path fill="#000001" d="M 45.136719 51.421875 C 45.136719 51.421875 100.851562 51.421875 100.851562 51.421875 C 100.851562 51.421875 100.851562 54.632812 100.851562 54.632812 C 100.851562 54.632812 45.136719 54.632812 45.136719 54.632812 C 45.136719 54.632812 45.136719 51.421875 45.136719 51.421875 Z M 45.136719 51.421875 " fill-opacity="1" fill-rule="nonzero"/></g><g clip-path="url(#e95559b66a)"><path fill="#fffbfb" d="M 45.136719 54.71875 C 45.136719 54.71875 100.851562 54.71875 100.851562 54.71875 C 100.851562 54.71875 100.851562 74.265625 100.851562 74.265625 C 100.851562 74.265625 45.136719 74.265625 45.136719 74.265625 C 45.136719 74.265625 45.136719 54.71875 45.136719 54.71875 Z M 45.136719 54.71875 " fill-opacity="1" fill-rule="nonzero"/></g><path fill="#01975c" d="M 76.539062 51.277344 C 76.539062 51.277344 74.617188 50.671875 74.617188 50.671875 C 74.617188 50.671875 81.363281 29.238281 81.363281 29.238281 C 81.363281 29.238281 83.285156 29.84375 83.285156 29.84375 C 83.285156 29.84375 76.539062 51.277344 76.539062 51.277344 Z M 76.539062 51.277344 " fill-opacity="1" fill-rule="nonzero"/><path fill="#01975c" d="M 76.683594 49.640625 C 76.683594 49.640625 76.683594 51.421875 76.683594 51.421875 C 76.683594 51.421875 62.03125 51.421875 62.03125 51.421875 C 62.03125 51.421875 62.03125 49.640625 62.03125 49.640625 C 62.03125 49.640625 76.683594 49.640625 76.683594 49.640625 Z M 76.683594 49.640625 " fill-opacity="1" fill-rule="nonzero"/><path fill="#000001" d="M 89.175781 4.242188 C 89.175781 4.242188 90.441406 2.722656 90.441406 2.722656 C 90.441406 2.722656 93.480469 4.917969 94.070312 7.363281 C 94.070312 7.363281 94.070312 36.0625 94.070312 36.0625 C 94.070312 36.0625 92.71875 40.023438 90.441406 41.28125 C 90.441406 41.28125 88.527344 38.734375 88.527344 38.734375 C 88.527344 38.734375 89.175781 4.242188 89.175781 4.242188 Z M 89.175781 4.242188 " fill-opacity="1" fill-rule="nonzero"/><path fill="#01975c" d="M 90.441406 41.28125 C 90.441406 41.28125 86.609375 41.28125 86.609375 41.28125 C 86.609375 41.28125 86.609375 2.722656 86.609375 2.722656 C 86.609375 2.722656 90.441406 2.722656 90.441406 2.722656 C 90.441406 2.722656 90.441406 41.28125 90.441406 41.28125 Z M 90.441406 41.28125 " fill-opacity="1" fill-rule="nonzero"/><path fill="#000001" d="M 99.273438 22.546875 C 99.273438 22.546875 98.039062 25.503906 98.039062 25.503906 C 98.039062 25.503906 90.832031 22.5 90.832031 22.5 C 90.832031 22.5 92.066406 19.539062 92.066406 19.539062 C 92.066406 19.539062 99.273438 22.546875 99.273438 22.546875 Z M 99.273438 22.546875 " fill-opacity="1" fill-rule="nonzero"/><path fill="#01975c" d="M 94.070312 49.242188 C 97.695312 49.242188 97.359375 44.371094 97.359375 44.371094 C 97.359375 44.371094 97.359375 22.003906 97.359375 22.003906 C 97.359375 22.003906 99.46875 22.003906 99.46875 22.003906 C 99.46875 22.003906 99.46875 44.371094 99.46875 44.371094 C 99.46875 52.273438 94.070312 51.351562 94.070312 51.351562 C 94.070312 51.351562 86.609375 51.351562 86.609375 51.351562 C 86.609375 51.351562 86.609375 49.242188 86.609375 49.242188 C 86.609375 49.242188 94.070312 49.242188 94.070312 49.242188 Z M 94.070312 49.242188 " fill-opacity="1" fill-rule="nonzero"/><path fill="#f66819" d="M 46.105469 43.28125 C 46.105469 43.28125 52.5 41.941406 52.5 41.941406 C 52.5 41.941406 57.898438 40.226562 61.71875 42.828125 C 61.71875 42.828125 63.839844 44.46875 61.671875 45.648438 C 61.671875 45.648438 63.347656 47.984375 60.691406 48.574219 C 60.691406 48.574219 62.726562 50.925781 59.207031 51.421875 C 59.207031 51.421875 49.476562 51.25 49.476562 51.25 C 49.476562 51.25 46.574219 49.25 46.574219 49.25 C 46.574219 49.25 46.105469 43.285156 46.105469 43.285156 C 46.105469 43.285156 46.105469 43.28125 46.105469 43.28125 Z M 46.105469 43.28125 " fill-opacity="1" fill-rule="nonzero"/><path stroke-linecap="round" transform="matrix(0.0877828, 0.00153225, -0.00153225, 0.0877828, 61.247495, 45.358556)" fill="none" stroke-linejoin="round" d="M 4.890581 3.216894 C 4.890581 3.216894 -4.877689 -3.198457 -4.877689 -3.198457 " stroke="#000001" stroke-width="6" stroke-opacity="1" stroke-miterlimit="4"/><path stroke-linecap="round" transform="matrix(0.0877828, 0.00153225, -0.00153225, 0.0877828, 60.301788, 48.276197)" fill="none" stroke-linejoin="round" d="M 4.496325 3.316503 C 4.496325 3.316503 -4.474313 -3.290767 -4.474313 -3.290767 " stroke="#000001" stroke-width="6" stroke-opacity="1" stroke-miterlimit="4"/><path fill="#dffd6e" d="M 50.207031 41.898438 C 50.207031 41.898438 37.785156 42.921875 37.785156 42.921875 C 37.785156 42.921875 37.578125 43.019531 37.269531 43.265625 C 28.332031 43.96875 34.460938 52.097656 34.460938 52.097656 C 35.277344 52.421875 36.183594 52.574219 37.183594 52.511719 C 37.210938 52.511719 53.09375 51.53125 53.09375 51.53125 C 53.972656 43.992188 50.207031 41.902344 50.207031 41.902344 C 50.207031 41.902344 50.207031 41.898438 50.207031 41.898438 Z M 50.207031 41.898438 " fill-opacity="1" fill-rule="nonzero"/><path stroke-linecap="round" transform="matrix(0.0877828, 0.00153225, -0.00153225, 0.0877828, 43.824035, 42.442265)" fill="none" stroke-linejoin="round" d="M -71.783338 7.161577 C -27.850096 2.790298 27.596344 -2.271434 71.787181 -7.181198 " stroke="#000001" stroke-width="6" stroke-opacity="1" stroke-miterlimit="4"/><path stroke-linecap="round" transform="matrix(0.0877962, 0, 0, 0.0877962, 30.815913, 40.012721)" fill="none" stroke-linejoin="round" d="M -33.630524 -142.253164 C -33.630524 -142.253164 -87.377171 -125.880013 -74.785862 -55.048338 C -74.785862 -55.048338 -67.177686 -16.206597 -48.135 18.23041 C -48.135 18.23041 3.120081 105.880159 3.120081 105.880159 C 3.120081 105.880159 26.74547 146.412606 76.710276 141.918888 " stroke="#000001" stroke-width="6" stroke-opacity="1" stroke-miterlimit="4"/></svg>