<svg xmlns="http://www.w3.org/2000/svg" xmlns:xlink="http://www.w3.org/1999/xlink" width="150" zoomAndPan="magnify" viewBox="0 0 112.5 74.999997" height="100" preserveAspectRatio="xMidYMid meet" version="1.0"><defs><clipPath id="6f9913342b"><path d="M 67 50 L 70 50 L 70 74.832031 L 67 74.832031 Z M 67 50 " clip-rule="nonzero"/></clipPath><clipPath id="581b575cfb"><path d="M 95 50 L 98 50 L 98 74.832031 L 95 74.832031 Z M 95 50 " clip-rule="nonzero"/></clipPath><clipPath id="20151181c4"><path d="M 63 49 L 100.664062 49 L 100.664062 53 L 63 53 Z M 63 49 " clip-rule="nonzero"/></clipPath><clipPath id="4aa5d33644"><path d="M 11.0625 21 L 18 21 L 18 33 L 11.0625 33 Z M 11.0625 21 " clip-rule="nonzero"/></clipPath><clipPath id="d128d71e9d"><path d="M 28 50 L 64 50 L 64 74.832031 L 28 74.832031 Z M 28 50 " clip-rule="nonzero"/></clipPath><clipPath id="a990916e3d"><path d="M 43 53 L 63 53 L 63 74.832031 L 43 74.832031 Z M 43 53 " clip-rule="nonzero"/></clipPath><clipPath id="eddc583fe2"><path d="M 27 62 L 33 62 L 33 74.832031 L 27 74.832031 Z M 27 62 " clip-rule="nonzero"/></clipPath><clipPath id="2398380595"><path d="M 11.0625 37 L 20 37 L 20 64 L 11.0625 64 Z M 11.0625 37 " clip-rule="nonzero"/></clipPath></defs><path fill="#01975c" d="M 30.804688 48.261719 C 30.804688 48.261719 52.324219 48.261719 52.324219 48.261719 C 52.90625 48.261719 53.378906 48.734375 53.378906 49.320312 C 53.378906 49.902344 52.90625 50.375 52.324219 50.375 C 52.324219 50.375 30.804688 50.375 30.804688 50.375 C 30.21875 50.375 29.746094 49.902344 29.746094 49.320312 C 29.746094 48.734375 30.21875 48.261719 30.804688 48.261719 Z M 30.804688 48.261719 " fill-opacity="1" fill-rule="nonzero"/><path fill="#01975c" d="M 49.886719 49.320312 C 49.886719 49.320312 50.886719 53.988281 50.085938 59.390625 C 49.953125 60.292969 50.492188 61.234375 51.5 61.039062 C 52.566406 60.828125 52.867188 59.539062 52.996094 58.632812 C 52.996094 58.632812 53.558594 52.394531 52.671875 49.320312 C 52.671875 49.320312 49.886719 49.320312 49.886719 49.320312 Z M 49.886719 49.320312 " fill-opacity="1" fill-rule="nonzero"/><g clip-path="url(#6f9913342b)"><path fill="#01975c" d="M 67.988281 50.722656 C 67.988281 50.722656 69.875 50.722656 69.875 50.722656 C 69.875 50.722656 69.875 75.273438 69.875 75.273438 C 69.875 75.273438 67.988281 75.273438 67.988281 75.273438 C 67.988281 75.273438 67.988281 50.722656 67.988281 50.722656 Z M 67.988281 50.722656 " fill-opacity="1" fill-rule="nonzero"/></g><g clip-path="url(#581b575cfb)"><path fill="#01975c" d="M 95.25 50.722656 C 95.25 50.722656 97.136719 50.722656 97.136719 50.722656 C 97.136719 50.722656 97.136719 75.273438 97.136719 75.273438 C 97.136719 75.273438 95.25 75.273438 95.25 75.273438 C 95.25 75.273438 95.25 50.722656 95.25 50.722656 Z M 95.25 50.722656 " fill-opacity="1" fill-rule="nonzero"/></g><g clip-path="url(#20151181c4)"><path fill="#dffd6e" d="M 63.378906 49.148438 C 63.378906 49.148438 100.3125 49.148438 100.3125 49.148438 C 100.3125 49.148438 100.3125 52.300781 100.3125 52.300781 C 100.3125 52.300781 63.378906 52.300781 63.378906 52.300781 C 63.378906 52.300781 63.378906 49.148438 63.378906 49.148438 Z M 63.378906 49.148438 " fill-opacity="1" fill-rule="nonzero"/></g><path fill="#01975c" d="M 65.90625 45.460938 C 65.90625 45.460938 79.109375 45.460938 79.109375 45.460938 C 79.109375 45.460938 79.109375 49.144531 79.109375 49.144531 C 79.109375 49.144531 65.90625 49.144531 65.90625 49.144531 C 65.90625 49.144531 65.90625 45.460938 65.90625 45.460938 Z M 65.90625 45.460938 " fill-opacity="1" fill-rule="nonzero"/><path fill="#fffbfb" d="M 71.152344 44.71875 C 71.152344 44.71875 73.867188 44.71875 73.867188 44.71875 C 73.867188 44.71875 73.867188 49.148438 73.867188 49.148438 C 73.867188 49.148438 71.152344 49.148438 71.152344 49.148438 C 71.152344 49.148438 71.152344 44.71875 71.152344 44.71875 Z M 71.152344 44.71875 " fill-opacity="1" fill-rule="nonzero"/><path stroke-linecap="round" transform="matrix(0.0850309, 0, 0, 0.0850309, 67.72064, 46.449172)" fill="none" stroke-linejoin="round" d="M -21.337993 0.000551456 C -21.337993 0.000551456 21.339483 0.000551456 21.339483 0.000551456 " stroke="#000001" stroke-width="6" stroke-opacity="1" stroke-miterlimit="4"/><path stroke-linecap="round" transform="matrix(0.0850309, 0, 0, 0.0850309, 66.950683, 47.657465)" fill="none" stroke-linejoin="round" d="M -12.28298 -0.0142868 C -12.28298 -0.0142868 12.294469 -0.0142868 12.294469 -0.0142868 " stroke="#000001" stroke-width="6" stroke-opacity="1" stroke-miterlimit="4"/><path stroke-linecap="round" transform="matrix(0.0850309, 0, 0, 0.0850309, 77.401408, 47.46359)" fill="none" stroke-linejoin="round" d="M -20.110347 0.0147389 C -20.110347 0.0147389 20.086415 0.0147389 20.086415 0.0147389 " stroke="#000001" stroke-width="6" stroke-opacity="1" stroke-miterlimit="4"/><path fill="#01975c" d="M 67.996094 41.785156 C 67.996094 41.785156 81.199219 41.785156 81.199219 41.785156 C 81.199219 41.785156 81.199219 45.46875 81.199219 45.46875 C 81.199219 45.46875 67.996094 45.46875 67.996094 45.46875 C 67.996094 45.46875 67.996094 41.785156 67.996094 41.785156 Z M 67.996094 41.785156 " fill-opacity="1" fill-rule="nonzero"/><path fill="#fffbfb" d="M 73.238281 41.039062 C 73.238281 41.039062 75.953125 41.039062 75.953125 41.039062 C 75.953125 41.039062 75.953125 45.46875 75.953125 45.46875 C 75.953125 45.46875 73.238281 45.46875 73.238281 45.46875 C 73.238281 45.46875 73.238281 41.039062 73.238281 41.039062 Z M 73.238281 41.039062 " fill-opacity="1" fill-rule="nonzero"/><path stroke-linecap="round" transform="matrix(0.0850309, 0, 0, 0.0850309, 69.808146, 42.773287)" fill="none" stroke-linejoin="round" d="M -21.310501 0.00177136 C -21.310501 0.00177136 21.321036 0.00177136 21.321036 0.00177136 " stroke="#000001" stroke-width="6" stroke-opacity="1" stroke-miterlimit="4"/><path stroke-linecap="round" transform="matrix(0.0850309, 0, 0, 0.0850309, 69.03862, 43.98158)" fill="none" stroke-linejoin="round" d="M -12.260546 -0.0130669 C -12.260546 -0.0130669 12.270963 -0.0130669 12.270963 -0.0130669 " stroke="#000001" stroke-width="6" stroke-opacity="1" stroke-miterlimit="4"/><path stroke-linecap="round" transform="matrix(0.0850309, 0, 0, 0.0850309, 79.489767, 43.787706)" fill="none" stroke-linejoin="round" d="M -20.092887 0.0159588 C -20.092887 0.0159588 20.103875 0.0159588 20.103875 0.0159588 " stroke="#000001" stroke-width="6" stroke-opacity="1" stroke-miterlimit="4"/><path fill="#000001" d="M 88.230469 3.96875 C 88.230469 3.96875 89.441406 2.511719 89.441406 2.511719 C 89.441406 2.511719 92.351562 4.617188 92.917969 6.960938 C 92.917969 6.960938 92.917969 34.464844 92.917969 34.464844 C 92.917969 34.464844 91.625 38.261719 89.441406 39.464844 C 89.441406 39.464844 87.605469 37.023438 87.605469 37.023438 C 87.605469 37.023438 88.230469 3.96875 88.230469 3.96875 Z M 88.230469 3.96875 " fill-opacity="1" fill-rule="nonzero"/><path fill="#01975c" d="M 89.441406 39.464844 C 89.441406 39.464844 85.769531 39.464844 85.769531 39.464844 C 85.769531 39.464844 85.769531 2.511719 85.769531 2.511719 C 85.769531 2.511719 89.441406 2.511719 89.441406 2.511719 C 89.441406 2.511719 89.441406 39.464844 89.441406 39.464844 Z M 89.441406 39.464844 " fill-opacity="1" fill-rule="nonzero"/><path fill="#000001" d="M 97.90625 21.511719 C 97.90625 21.511719 96.722656 24.34375 96.722656 24.34375 C 96.722656 24.34375 89.816406 21.464844 89.816406 21.464844 C 89.816406 21.464844 91 18.628906 91 18.628906 C 91 18.628906 97.90625 21.511719 97.90625 21.511719 Z M 97.90625 21.511719 " fill-opacity="1" fill-rule="nonzero"/><path fill="#01975c" d="M 92.917969 47.09375 C 96.394531 47.09375 96.070312 42.425781 96.070312 42.425781 C 96.070312 42.425781 96.070312 20.988281 96.070312 20.988281 C 96.070312 20.988281 98.09375 20.988281 98.09375 20.988281 C 98.09375 20.988281 98.09375 42.425781 98.09375 42.425781 C 98.09375 50 92.917969 49.117188 92.917969 49.117188 C 92.917969 49.117188 85.769531 49.117188 85.769531 49.117188 C 85.769531 49.117188 85.769531 47.09375 85.769531 47.09375 C 85.769531 47.09375 92.917969 47.09375 92.917969 47.09375 Z M 92.917969 47.09375 " fill-opacity="1" fill-rule="nonzero"/><path fill="#000001" d="M 13.042969 39.925781 C 13.042969 39.925781 13.714844 37.246094 13.714844 37.246094 C 13.714844 37.246094 27.347656 37.246094 27.347656 37.246094 C 27.347656 37.246094 27.347656 63.5625 27.347656 63.5625 C 27.347656 63.5625 17.003906 59.511719 17.003906 59.511719 C 17.003906 59.511719 13.042969 39.925781 13.042969 39.925781 Z M 13.042969 39.925781 " fill-opacity="1" fill-rule="nonzero"/><path fill="#fffbfb" d="M 25.046875 21.851562 C 25.046875 21.851562 16.023438 21.851562 16.023438 21.851562 C 17.027344 24.730469 18.230469 29.183594 17.71875 32.933594 C 17.71875 32.933594 27.601562 32.933594 27.601562 32.933594 C 28.878906 22.625 25.046875 21.851562 25.046875 21.851562 Z M 25.046875 21.851562 " fill-opacity="1" fill-rule="nonzero"/><path stroke-linecap="round" transform="matrix(0.0850309, 0, 0, 0.0850309, 21.280564, 23.751442)" fill="none" stroke-linejoin="round" d="M -65.593042 1.407151 C -65.593042 1.407151 65.609188 -1.395138 65.609188 -1.395138 " stroke="#01975c" stroke-width="6" stroke-opacity="1" stroke-miterlimit="4"/><g clip-path="url(#4aa5d33644)"><path fill="#01975c" d="M 16.023438 21.851562 C 16.023438 21.851562 13.53125 21.851562 13.53125 21.851562 C 10.191406 21.851562 12.640625 27.445312 12.800781 28.90625 C 13.257812 33.121094 16.179688 32.933594 16.179688 32.933594 C 16.179688 32.933594 17.71875 32.933594 17.71875 32.933594 C 18.230469 29.1875 17.027344 24.730469 16.023438 21.851562 Z M 16.023438 21.851562 " fill-opacity="1" fill-rule="nonzero"/></g><path fill="#86492a" d="M 49.644531 41.363281 C 49.644531 41.363281 53.820312 40.601562 53.824219 40.601562 C 54.464844 40.484375 56.191406 42.246094 56.59375 42.621094 C 58.125 44.050781 59.164062 45.945312 59.800781 47.925781 C 60.203125 49.175781 60.554688 51.796875 58.757812 52.273438 C 58.757812 52.273438 57.175781 52.691406 57.175781 50.226562 C 57.175781 51.15625 56.378906 52.578125 55.246094 52.207031 C 54.378906 51.921875 54.203125 50.652344 54.203125 49.90625 C 54.203125 49.90625 54.136719 48.515625 52.808594 48.195312 C 52.808594 48.195312 53.441406 50.929688 51.417969 51.875 C 51.417969 51.875 49.140625 52.058594 49.835938 49.144531 C 49.835938 49.144531 48.824219 45.222656 48.824219 45.222656 C 48.824219 45.222656 49.644531 41.363281 49.644531 41.363281 Z M 49.644531 41.363281 " fill-opacity="1" fill-rule="nonzero"/><path stroke-linecap="round" transform="matrix(0.0850309, 0, 0, 0.0850309, 56.892797, 49.242869)" fill="none" stroke-linejoin="round" d="M 3.328018 11.522714 C 3.328018 11.522714 4.063044 -4.096599 -3.379099 -11.538742 " stroke="#000001" stroke-width="6" stroke-opacity="1" stroke-miterlimit="4"/><path fill="#dffd6e" d="M 44.175781 38.578125 C 44.175781 38.578125 47.429688 38.957031 47.429688 38.957031 C 47.429688 38.957031 51.164062 38.894531 53.824219 40.601562 C 53.824219 40.601562 49.835938 43.386719 49.835938 49.148438 C 49.835938 49.148438 44.175781 44.71875 44.175781 44.71875 C 44.175781 44.71875 42.335938 41.234375 42.335938 41.234375 C 42.335938 41.234375 44.175781 38.578125 44.175781 38.578125 Z M 44.175781 38.578125 " fill-opacity="1" fill-rule="nonzero"/><path fill="#dffd6e" d="M 37.242188 31.433594 C 37.242188 31.433594 39.246094 30.167969 39.246094 30.167969 C 39.246094 30.167969 44.964844 34.652344 47.429688 38.957031 C 47.429688 38.957031 44.71875 41.109375 44.175781 44.714844 C 44.175781 44.714844 38.253906 41.234375 38.253906 41.234375 C 38.253906 41.234375 39.265625 37.136719 37.242188 31.433594 Z M 37.242188 31.433594 " fill-opacity="1" fill-rule="nonzero"/><path fill="#000001" d="M 35.917969 16.6875 C 37.683594 14.984375 35.6875 13.511719 34.101562 12.859375 C 32.035156 12.003906 29.125 12.546875 27.820312 14.480469 C 26.507812 16.425781 26.449219 19.199219 27.519531 21.242188 C 27.519531 21.242188 29.0625 21.753906 29.0625 21.753906 C 29.0625 21.753906 30.851562 22.460938 31.871094 20.039062 C 31.871094 20.039062 35.917969 16.6875 35.917969 16.6875 Z M 35.917969 16.6875 " fill-opacity="1" fill-rule="nonzero"/><path fill="#000001" d="M 28.726562 55.578125 C 28.726562 55.578125 30.367188 56.839844 30.367188 56.839844 C 30.367188 56.839844 34.308594 59.71875 38.714844 56.449219 C 38.714844 56.449219 43.390625 53.347656 43.390625 53.347656 C 43.390625 53.347656 45.769531 51.683594 43.148438 50.179688 C 42.207031 50.027344 41.234375 49.914062 40.230469 49.851562 C 40.230469 49.851562 33.671875 48.261719 33.671875 48.261719 C 33.671875 48.261719 24.042969 56.863281 24.042969 56.863281 C 24.042969 56.863281 27.644531 60.820312 27.644531 60.820312 C 27.644531 60.820312 28.390625 60.890625 28.390625 60.890625 C 28.199219 59.054688 28.222656 57.15625 28.726562 55.578125 Z M 28.726562 55.578125 " fill-opacity="1" fill-rule="nonzero"/><g clip-path="url(#d128d71e9d)"><path fill="#fffbfb" d="M 55.722656 54.769531 C 55.722656 54.769531 50.429688 51.347656 43.148438 50.179688 C 45.769531 51.683594 43.390625 53.347656 43.390625 53.347656 C 43.390625 53.347656 38.710938 56.449219 38.710938 56.449219 C 34.308594 59.71875 30.367188 56.839844 30.367188 56.839844 C 30.367188 56.839844 28.726562 55.578125 28.726562 55.578125 C 28.222656 57.15625 28.199219 59.054688 28.390625 60.890625 C 28.390625 60.890625 41.324219 62.0625 41.324219 62.0625 C 41.324219 62.0625 46.597656 62.324219 48.875 70.46875 C 48.875 70.46875 50.660156 75.273438 50.660156 75.273438 C 50.660156 75.273438 63.371094 75.273438 63.371094 75.273438 C 63.371094 75.273438 63.964844 60.121094 55.722656 54.769531 Z M 55.722656 54.769531 " fill-opacity="1" fill-rule="nonzero"/></g><g clip-path="url(#a990916e3d)"><path stroke-linecap="round" transform="matrix(0.0850309, 0, 0, 0.0850309, 52.930781, 64.538662)" fill="none" stroke-linejoin="round" d="M 108.771061 126.245509 C 98.98602 68.224355 85.571787 6.252433 51.301176 -42.810585 C 15.009243 -94.767771 -50.959385 -109.330483 -108.750843 -126.236093 " stroke="#000001" stroke-width="6" stroke-opacity="1" stroke-miterlimit="4"/></g><path fill="#dffd6e" d="M 42.765625 51.433594 C 42.765625 51.433594 36.945312 51.433594 36.945312 51.433594 C 44.839844 41.734375 39.226562 30.171875 39.226562 30.171875 C 37.78125 28.726562 36.160156 27.769531 34.496094 27.160156 C 35.59375 31.65625 34.796875 35.214844 34.796875 35.214844 C 32.980469 30.648438 29.332031 27.796875 26.90625 26.320312 C 23.429688 26.640625 20.84375 27.695312 20.84375 27.695312 C 20.394531 32.382812 24.570312 43.742188 24.570312 43.742188 C 19.957031 50.964844 20.089844 63.453125 20.089844 63.453125 C 19.820312 65.910156 20.84375 66.417969 20.84375 66.417969 C 23.128906 68.703125 26.980469 68.609375 26.980469 68.609375 C 29.855469 68.609375 28.382812 66.417969 28.382812 66.417969 C 26.777344 59.394531 28.117188 54.121094 28.117188 54.121094 C 28.117188 54.121094 30.125 55.578125 30.125 55.578125 C 33.402344 58.316406 37.414062 56.453125 37.414062 56.453125 C 37.414062 56.453125 41.964844 53.464844 41.964844 53.464844 C 45.242188 51.746094 42.765625 51.433594 42.765625 51.433594 Z M 42.765625 51.433594 " fill-opacity="1" fill-rule="nonzero"/><path stroke-linecap="round" transform="matrix(0.0850309, 0, 0, 0.0850309, 40.900774, 38.692225)" fill="none" stroke-linejoin="round" d="M -3.564792 -52.609964 C -3.564792 -52.609964 10.584468 2.195449 -0.992199 52.636643 " stroke="#000001" stroke-width="6" stroke-opacity="1" stroke-miterlimit="4"/><g clip-path="url(#eddc583fe2)"><path fill="#000001" d="M 27.222656 62.984375 C 27.222656 62.984375 32.269531 62.984375 32.269531 62.984375 C 32.269531 62.984375 32.269531 75.273438 32.269531 75.273438 C 32.269531 75.273438 27.222656 75.273438 27.222656 75.273438 C 27.222656 75.273438 27.222656 62.984375 27.222656 62.984375 Z M 27.222656 62.984375 " fill-opacity="1" fill-rule="nonzero"/></g><path fill="#01975c" d="M 48.824219 61.695312 C 48.824219 61.695312 48.347656 59.691406 46.019531 60.195312 C 46.019531 60.195312 26.960938 63.320312 20.0625 58.488281 C 20.0625 58.488281 19.882812 58.40625 19.683594 58.140625 C 18.433594 59.722656 18.273438 61.796875 18.472656 63.535156 C 19.140625 63.875 19.90625 64.179688 20.605469 64.40625 C 20.605469 64.40625 33.078125 67.929688 47.429688 64.40625 C 47.429688 64.40625 49.207031 63.242188 48.824219 61.695312 Z M 48.824219 61.695312 " fill-opacity="1" fill-rule="nonzero"/><path fill="#86492a" d="M 29.667969 20.46875 C 29.648438 20.824219 29.605469 21.3125 29.507812 21.855469 C 29.242188 23.34375 28.578125 25.277344 26.925781 26.296875 C 29.351562 27.773438 33 30.628906 34.816406 35.191406 C 34.816406 35.191406 35.613281 31.632812 34.515625 27.136719 C 34.515625 27.136719 33.746094 26.335938 33.746094 24.433594 C 33.746094 24.308594 33.75 24.175781 33.757812 24.039062 C 33.765625 23.886719 29.652344 20.257812 29.667969 20.46875 Z M 29.667969 20.46875 " fill-opacity="1" fill-rule="nonzero"/><path fill="#000001" d="M 33.757812 24.0625 C 33.800781 23.246094 33.980469 22.257812 34.394531 21.066406 C 34.394531 21.066406 31.160156 19.785156 31.160156 19.785156 C 31.160156 19.785156 29.679688 19.855469 29.679688 19.855469 C 29.679688 19.855469 29.710938 20.734375 29.507812 21.878906 C 30.035156 22.976562 31.199219 24.144531 33.757812 24.0625 Z M 33.757812 24.0625 " fill-opacity="1" fill-rule="nonzero"/><path fill="#86492a" d="M 32.460938 23.480469 C 32.460938 23.480469 33.113281 23.566406 33.113281 23.566406 C 34.851562 23.804688 36.445312 22.5625 36.652344 20.808594 C 36.652344 20.808594 36.945312 18.332031 36.945312 18.332031 C 37.152344 16.574219 35.902344 14.945312 34.164062 14.707031 C 34.164062 14.707031 33.511719 14.617188 33.511719 14.617188 C 31.773438 14.382812 30.179688 15.621094 29.972656 17.378906 C 29.972656 17.378906 29.679688 19.855469 29.679688 19.855469 C 29.46875 21.609375 30.722656 23.242188 32.460938 23.480469 Z M 32.460938 23.480469 " fill-opacity="1" fill-rule="nonzero"/><path fill="#fffbfb" d="M 33.460938 20.195312 C 32.5 19.699219 32.53125 20.535156 32.53125 20.535156 C 32.578125 21.628906 33.808594 22.453125 34.832031 22.554688 C 35.15625 22.585938 35.558594 22.558594 35.945312 22.457031 C 36.320312 22.003906 36.578125 21.4375 36.652344 20.808594 C 36.652344 20.808594 36.675781 20.589844 36.675781 20.589844 C 36.628906 20.59375 36.582031 20.605469 36.53125 20.613281 C 35.523438 21.203125 34.375 20.667969 33.457031 20.195312 C 33.457031 20.195312 33.460938 20.195312 33.460938 20.195312 Z M 33.460938 20.195312 " fill-opacity="1" fill-rule="nonzero"/><path fill="#000001" d="M 36.347656 16.035156 C 36.347656 16.035156 33.375 13.953125 31.011719 16.320312 C 31.011719 16.320312 30.667969 18.046875 30.667969 18.046875 C 30.667969 18.046875 30.914062 19.855469 29.679688 19.855469 C 29.679688 19.855469 28.074219 19.714844 28.566406 17.519531 C 28.566406 17.519531 29.925781 14.339844 29.925781 14.339844 C 29.925781 14.339844 33.3125 13.785156 33.3125 13.785156 C 33.3125 13.785156 35.609375 14.589844 35.609375 14.589844 C 35.609375 14.589844 36.34375 16.03125 36.34375 16.03125 C 36.34375 16.03125 36.347656 16.035156 36.347656 16.035156 Z M 36.347656 16.035156 " fill-opacity="1" fill-rule="nonzero"/><g clip-path="url(#2398380595)"><path fill="#01975c" d="M 19.726562 58.148438 C 19.351562 57.644531 18.761719 56.445312 18.464844 53.71875 C 18.464844 53.71875 17.234375 42.964844 16.023438 39.3125 C 16.023438 39.3125 16.179688 37.246094 13.714844 37.246094 C 13.714844 37.246094 11.132812 37.039062 11.785156 40.597656 C 12.304688 43.152344 12.753906 45.726562 13.160156 48.300781 C 13.484375 50.371094 13.773438 52.449219 13.972656 54.535156 C 14.1875 56.816406 13.9375 59.121094 15.410156 61.050781 C 16.234375 62.132812 17.335938 62.949219 18.542969 63.5625 C 18.339844 61.820312 18.472656 59.734375 19.726562 58.148438 Z M 19.726562 58.148438 " fill-opacity="1" fill-rule="nonzero"/></g><path fill="#dffd6e" d="M 20.863281 27.691406 C 20.863281 27.691406 16.476562 32.230469 15.402344 41.246094 C 15.402344 41.246094 14.746094 49.898438 18.90625 51.6875 C 18.90625 51.6875 18.714844 43.550781 24.710938 42.027344 C 24.710938 42.027344 25.789062 35.40625 25.789062 35.40625 C 25.789062 35.40625 27.757812 27.691406 20.863281 27.691406 Z M 20.863281 27.691406 " fill-opacity="1" fill-rule="nonzero"/><path stroke-linecap="round" transform="matrix(0.0850309, 0, 0, 0.0850309, 25.189945, 35.383249)" fill="none" stroke-linejoin="round" d="M -10.273192 -78.515152 C 7.137749 -69.832652 11.134455 -48.792518 10.123794 -30.784369 C 8.102471 2.291823 2.911346 44.37209 -5.633337 78.504883 " stroke="#000001" stroke-width="6.007" stroke-opacity="1" stroke-miterlimit="4"/><path fill="#01975c" d="M 16.011719 51.6875 C 16.011719 51.6875 37.53125 51.6875 37.53125 51.6875 C 38.113281 51.6875 38.589844 52.164062 38.589844 52.746094 C 38.589844 53.332031 38.113281 53.804688 37.53125 53.804688 C 37.53125 53.804688 16.011719 53.804688 16.011719 53.804688 C 15.425781 53.804688 14.953125 53.332031 14.953125 52.746094 C 14.953125 52.164062 15.425781 51.6875 16.011719 51.6875 Z M 16.011719 51.6875 " fill-opacity="1" fill-rule="nonzero"/><path fill="#01975c" d="M 35.097656 52.746094 C 35.097656 52.746094 36.09375 57.414062 35.292969 62.820312 C 35.160156 63.722656 35.699219 64.660156 36.707031 64.464844 C 37.773438 64.257812 38.078125 62.96875 38.203125 62.0625 C 38.203125 62.0625 38.769531 55.820312 37.882812 52.746094 C 37.882812 52.746094 35.097656 52.746094 35.097656 52.746094 Z M 35.097656 52.746094 " fill-opacity="1" fill-rule="nonzero"/><path stroke-linecap="round" transform="matrix(0.0850309, 0, 0, 0.0850309, 46.682879, 41.619842)" fill="none" stroke-linejoin="round" d="M 19.900065 -12.113218 C 19.900065 -12.113218 3.086334 -9.770321 -19.883244 12.096717 " stroke="#000001" stroke-width="6" stroke-opacity="1" stroke-miterlimit="4"/><path fill="#01975c" d="M 38.035156 45.9375 C 38.035156 45.9375 40.699219 40.890625 41.882812 35.925781 C 41.882812 35.925781 45.527344 36.425781 47.542969 38.773438 C 47.542969 38.773438 46.464844 42.085938 42.476562 47.4375 C 42.476562 47.4375 38.035156 45.9375 38.035156 45.9375 Z M 38.035156 45.9375 " fill-opacity="1" fill-rule="nonzero"/><path fill="#01975c" d="M 40.28125 47.449219 C 40.28125 47.449219 43.988281 42.773438 45.933594 39.246094 C 45.933594 39.246094 49.824219 39.820312 50.992188 42.445312 C 50.992188 42.445312 44.945312 50.617188 44.945312 50.617188 C 44.945312 50.617188 40.28125 47.445312 40.28125 47.445312 C 40.28125 47.445312 40.28125 47.449219 40.28125 47.449219 Z M 40.28125 47.449219 " fill-opacity="1" fill-rule="nonzero"/><path stroke-linecap="round" transform="matrix(0.0850309, 0, 0, 0.0850309, 45.636571, 43.346905)" fill="none" stroke-linejoin="round" d="M -62.980849 48.244944 C -62.980849 48.244944 -12.355899 -16.942719 3.49311 -48.227284 C 3.49311 -48.227284 48.191909 -43.863064 62.984317 -10.603115 " stroke="#000001" stroke-width="6" stroke-opacity="1" stroke-miterlimit="4"/><path fill="#01975c" d="M 37.097656 47.9375 C 37.097656 47.9375 38.800781 40.523438 37.9375 36.855469 C 37.9375 36.855469 41.175781 36.5 43.757812 38.410156 C 43.757812 38.410156 44.324219 40.902344 40.96875 48.761719 C 40.96875 48.761719 37.097656 47.9375 37.097656 47.9375 Z M 37.097656 47.9375 " fill-opacity="1" fill-rule="nonzero"/><path stroke-linecap="round" transform="matrix(0.0850309, 0, 0, 0.0850309, 42.39196, 43.01546)" fill="none" stroke-linejoin="round" d="M -10.168253 -67.57456 C -10.168253 -67.57456 5.129486 -63.945366 16.063005 -54.160326 C 16.063005 -54.160326 24.423932 -24.162057 -16.737552 67.578437 " stroke="#000001" stroke-width="6" stroke-opacity="1" stroke-miterlimit="4"/><path fill="#86492a" d="M 45.675781 47.21875 C 45.675781 46.472656 45.074219 45.871094 44.328125 45.871094 C 45.074219 45.871094 45.675781 45.265625 45.675781 44.523438 C 45.675781 43.777344 45.074219 43.175781 44.328125 43.175781 C 44.328125 43.175781 36.628906 43.175781 36.628906 43.175781 C 36.628906 43.175781 31.53125 44.988281 31.53125 44.988281 C 31.53125 44.988281 31.066406 50.140625 31.066406 50.140625 C 31.066406 50.140625 36.625 51.347656 36.625 51.347656 C 36.625 51.347656 44.28125 51.261719 44.28125 51.261719 C 44.296875 51.261719 44.3125 51.261719 44.328125 51.261719 C 45.074219 51.261719 45.675781 50.660156 45.675781 49.914062 C 45.675781 49.171875 45.074219 48.566406 44.328125 48.566406 C 45.074219 48.566406 45.675781 47.964844 45.675781 47.21875 Z M 45.675781 47.21875 " fill-opacity="1" fill-rule="nonzero"/><path stroke-linecap="round" transform="matrix(0.0850309, 0, 0, 0.0850309, 43.835874, 45.870966)" fill="none" stroke-linejoin="round" d="M 5.789075 0.00150606 C 5.789075 0.00150606 -5.787592 0.00150606 -5.787592 0.00150606 " stroke="#000001" stroke-width="6" stroke-opacity="1" stroke-miterlimit="4"/><path stroke-linecap="round" transform="matrix(0.0850309, 0, 0, 0.0850309, 43.835874, 48.56645)" fill="none" stroke-linejoin="round" d="M 5.789075 -0.000510367 C 5.789075 -0.000510367 -5.787592 -0.000510367 -5.787592 -0.000510367 " stroke="#000001" stroke-width="6" stroke-opacity="1" stroke-miterlimit="4"/><path fill="#dffd6e" d="M 17.375 44.035156 C 17.375 44.035156 17.695312 50.253906 17.695312 50.253906 C 17.742188 51.125 18.472656 51.804688 19.34375 51.785156 C 19.34375 51.785156 36.609375 51.378906 36.609375 51.378906 C 36.609375 51.378906 34.460938 47.480469 36.613281 43.203125 C 36.613281 43.203125 24.355469 41.976562 24.355469 41.976562 C 24.355469 41.976562 20.683594 39.871094 20.683594 39.871094 C 20.683594 39.871094 17.371094 44.035156 17.371094 44.035156 C 17.371094 44.035156 17.375 44.035156 17.375 44.035156 Z M 17.375 44.035156 " fill-opacity="1" fill-rule="nonzero"/><path stroke-linecap="round" transform="matrix(0.0850309, 0, 0, 0.0850309, 30.645022, 46.660902)" fill="none" stroke-linejoin="round" d="M -70.384554 -55.135758 C -33.725108 -51.506565 2.980278 -48.933972 39.501907 -43.972543 C 49.746339 -42.594368 60.036709 -41.308072 70.37302 -40.986498 C 69.913628 -40.205532 69.408297 -39.470506 68.948906 -38.68954 C 69.408297 -39.470506 69.867689 -40.251471 70.37302 -40.986498 C 58.474778 -18.292555 55.902185 8.995304 62.655241 33.664631 C 64.676564 41.014896 68.811088 47.630134 70.32708 55.118217 " stroke="#000001" stroke-width="6" stroke-opacity="1" stroke-miterlimit="4"/><path stroke-linecap="round" transform="matrix(0.0850309, 0, 0, 0.0850309, 21.916934, 44.10054)" fill="none" stroke-linejoin="round" d="M 29.780737 -24.886997 C 3.871053 -17.674549 -19.695734 0.425478 -29.756409 24.911049 " stroke="#000001" stroke-width="6.233" stroke-opacity="1" stroke-miterlimit="4"/><path fill="#000001" d="M 27.246094 21.21875 C 27.246094 21.21875 25.265625 23.058594 26.054688 23.84375 C 26.054688 23.84375 27.484375 23.929688 28.789062 21.730469 C 28.789062 21.730469 27.246094 21.21875 27.246094 21.21875 Z M 27.246094 21.21875 " fill-opacity="1" fill-rule="nonzero"/><path fill="#000001" d="M 26.054688 23.84375 C 26.054688 23.84375 25.40625 24.597656 25.507812 26.292969 C 25.507812 26.292969 27.902344 25.953125 27.902344 22.902344 C 27.902344 22.902344 26.707031 22.902344 26.707031 22.902344 C 26.707031 22.902344 26.054688 23.847656 26.054688 23.847656 C 26.054688 23.847656 26.054688 23.84375 26.054688 23.84375 Z M 26.054688 23.84375 " fill-opacity="1" fill-rule="nonzero"/><path fill="#000001" d="M 25.164062 28.929688 C 25.164062 28.929688 25.171875 30.476562 25.527344 31.410156 C 25.527344 31.410156 27.640625 30.238281 26.554688 27.386719 C 26.554688 27.386719 25.4375 27.8125 25.4375 27.8125 C 25.4375 27.8125 25.164062 28.929688 25.164062 28.929688 Z M 25.164062 28.929688 " fill-opacity="1" fill-rule="nonzero"/><path fill="#000001" d="M 25.515625 31.4375 C 25.515625 31.4375 25.667969 32.976562 26.109375 33.875 C 26.109375 33.875 28.105469 32.507812 26.753906 29.773438 C 26.753906 29.773438 25.679688 30.300781 25.679688 30.300781 C 25.679688 30.300781 25.515625 31.4375 25.515625 31.4375 Z M 25.515625 31.4375 " fill-opacity="1" fill-rule="nonzero"/><path fill="#000001" d="M 26.367188 32.316406 C 26.367188 32.316406 26.109375 33.871094 26.109375 33.871094 C 26.109375 33.871094 25.671875 35.773438 26.5 37.222656 C 26.632812 37.457031 27.304688 37.414062 27.5 37.378906 C 28.167969 37.265625 29.539062 36.402344 29.320312 35.625 C 28.898438 34.136719 27.707031 33.011719 26.367188 32.316406 Z M 26.367188 32.316406 " fill-opacity="1" fill-rule="nonzero"/><path fill="#000001" d="M 25.398438 26.386719 C 25.398438 26.386719 25.027344 27.890625 25.140625 28.882812 C 25.140625 28.882812 27.476562 28.265625 27.128906 25.238281 C 27.128906 25.238281 25.9375 25.375 25.9375 25.375 C 25.9375 25.375 25.402344 26.386719 25.402344 26.386719 C 25.402344 26.386719 25.398438 26.386719 25.398438 26.386719 Z M 25.398438 26.386719 " fill-opacity="1" fill-rule="nonzero"/><path stroke-linecap="round" transform="matrix(0.0850309, 0, 0, 0.0850309, 28.240174, 21.536134)" fill="none" stroke-linejoin="round" d="M -11.6908 -3.732568 C -11.6908 -3.732568 11.69223 3.755514 11.69223 3.755514 " stroke="#01975c" stroke-width="6" stroke-opacity="1" stroke-miterlimit="4"/><path fill="#000001" d="M 34.261719 18.476562 C 34.433594 18.328125 34.699219 18.347656 34.851562 18.523438 C 35.003906 18.699219 34.988281 18.964844 34.816406 19.113281 C 34.644531 19.265625 34.382812 19.242188 34.226562 19.066406 C 34.074219 18.890625 34.089844 18.628906 34.261719 18.476562 Z M 34.261719 18.476562 " fill-opacity="1" fill-rule="nonzero"/><path stroke-linecap="round" transform="matrix(0.0850309, 0, 0, 0.0850309, 34.373631, 17.47922)" fill="none" stroke-linejoin="round" d="M 8.974239 0.565952 C 8.974239 0.565952 -0.581106 -8.254366 -8.987971 2.771031 " stroke="#000001" stroke-width="4" stroke-opacity="1" stroke-miterlimit="4"/><path stroke-linecap="round" transform="matrix(0.0926837, 0, 0, 0.00850281, 51.497736, 31.75907)" fill-opacity="1" fill="#fffbfb" fill-rule="nonzero" stroke-linejoin="round" d="M -16.538955 -34.60341 C -16.538955 -34.60341 16.545668 -34.60341 16.545668 -34.60341 C 16.545668 -34.60341 16.545668 34.767076 16.545668 34.767076 C 16.545668 34.767076 -16.538955 34.767076 -16.538955 34.767076 C -16.538955 34.767076 -16.538955 -34.60341 -16.538955 -34.60341 Z M -16.538955 -34.60341 " stroke="#01975c" stroke-width="6" stroke-opacity="1" stroke-miterlimit="4"/><path stroke-linecap="round" transform="matrix(0.0926837, 0, 0, 0.00850281, 74.904095, 31.224675)" fill-opacity="1" fill="#fffbfb" fill-rule="nonzero" stroke-linejoin="round" d="M -16.540129 -97.172321 C -16.540129 -97.172321 16.544494 -97.172321 16.544494 -97.172321 C 16.544494 -97.172321 16.544494 97.156921 16.544494 97.156921 C 16.544494 97.156921 -16.540129 97.156921 -16.540129 97.156921 C -16.540129 97.156921 -16.540129 -97.172321 -16.540129 -97.172321 Z M -16.540129 -97.172321 " stroke="#01975c" stroke-width="6" stroke-opacity="1" stroke-miterlimit="4"/><path stroke-linecap="round" transform="matrix(0.0926837, 0, 0, 0.00850281, 69.153991, 31.354247)" fill-opacity="1" fill="#fffbfb" fill-rule="nonzero" stroke-linejoin="round" d="M -16.539009 -82.090158 C -16.539009 -82.090158 16.545613 -82.090158 16.545613 -82.090158 C 16.545613 -82.090158 16.545613 82.377617 16.545613 82.377617 C 16.545613 82.377617 -16.539009 82.377617 -16.539009 82.377617 C -16.539009 82.377617 -16.539009 -82.090158 -16.539009 -82.090158 Z M -16.539009 -82.090158 " stroke="#01975c" stroke-width="6" stroke-opacity="1" stroke-miterlimit="4"/><path stroke-linecap="round" transform="matrix(0.0926837, 0, 0, 0.00850281, 63.330672, 31.492128)" fill-opacity="1" fill="#fffbfb" fill-rule="nonzero" stroke-linejoin="round" d="M -16.548716 -65.688174 C -16.548716 -65.688174 16.578053 -65.688174 16.578053 -65.688174 C 16.578053 -65.688174 16.578053 65.702283 16.578053 65.702283 C 16.578053 65.702283 -16.548716 65.702283 -16.548716 65.702283 C -16.548716 65.702283 -16.548716 -65.688174 -16.548716 -65.688174 Z M -16.548716 -65.688174 " stroke="#01975c" stroke-width="6" stroke-opacity="1" stroke-miterlimit="4"/><path stroke-linecap="round" transform="matrix(0.0926837, 0, 0, 0.00850281, 57.283059, 31.619373)" fill-opacity="1" fill="#fffbfb" fill-rule="nonzero" stroke-linejoin="round" d="M -16.540757 -50.791854 C -16.540757 -50.791854 16.543866 -50.791854 16.543866 -50.791854 C 16.543866 -50.791854 16.543866 50.737136 16.543866 50.737136 C 16.543866 50.737136 -16.540757 50.737136 -16.540757 50.737136 C -16.540757 50.737136 -16.540757 -50.791854 -16.540757 -50.791854 Z M -16.540757 -50.791854 " stroke="#01975c" stroke-width="6" stroke-opacity="1" stroke-miterlimit="4"/><path fill="#01975c" d="M 54.890625 18.539062 C 54.890625 18.539062 56.902344 19.441406 57.355469 21.269531 C 57.355469 21.269531 58.699219 17.933594 58.699219 17.933594 C 58.699219 17.933594 54.890625 18.539062 54.890625 18.539062 Z M 54.890625 18.539062 " fill-opacity="1" fill-rule="nonzero"/><path stroke-linecap="round" transform="matrix(0.0926837, 0, 0, 0.0926837, 62.343126, 13.070838)" fill="none" stroke-linejoin="round" d="M -137.389285 91.32475 C -137.389285 91.32475 -108.56141 85.508599 -67.174022 68.060149 " stroke="#01975c" stroke-width="6" stroke-opacity="1" stroke-miterlimit="4"/></svg>