<svg xmlns="http://www.w3.org/2000/svg" xmlns:xlink="http://www.w3.org/1999/xlink" width="150" zoomAndPan="magnify" viewBox="0 0 112.5 74.999997" height="100" preserveAspectRatio="xMidYMid meet" version="1.0"><defs><clipPath id="1e32544c3d"><path d="M 0 40.113281 L 35 40.113281 L 35 74.832031 L 0 74.832031 Z M 0 40.113281 " clip-rule="nonzero"/></clipPath></defs><path fill="#01975c" d="M 15.5625 71.097656 L 98.363281 71.097656 C 105.886719 71.097656 111.988281 65 111.988281 57.472656 C 111.988281 49.949219 105.886719 43.847656 98.363281 43.847656 L 15.5625 43.847656 Z M 15.5625 71.097656 " fill-opacity="1" fill-rule="nonzero"/><g clip-path="url(#1e32544c3d)"><path fill="#ffffff" d="M 34.734375 57.472656 C 34.734375 58.042969 34.707031 58.609375 34.648438 59.175781 C 34.59375 59.742188 34.511719 60.304688 34.398438 60.859375 C 34.289062 61.417969 34.152344 61.96875 33.984375 62.511719 C 33.820312 63.058594 33.628906 63.589844 33.410156 64.117188 C 33.195312 64.640625 32.953125 65.15625 32.683594 65.65625 C 32.414062 66.160156 32.125 66.644531 31.808594 67.117188 C 31.492188 67.589844 31.152344 68.046875 30.792969 68.488281 C 30.433594 68.925781 30.050781 69.347656 29.648438 69.75 C 29.246094 70.152344 28.824219 70.53125 28.386719 70.894531 C 27.945312 71.253906 27.492188 71.59375 27.019531 71.90625 C 26.546875 72.222656 26.058594 72.515625 25.558594 72.785156 C 25.054688 73.050781 24.542969 73.292969 24.015625 73.511719 C 23.492188 73.730469 22.957031 73.921875 22.414062 74.085938 C 21.867188 74.25 21.316406 74.390625 20.761719 74.5 C 20.203125 74.609375 19.640625 74.695312 19.074219 74.75 C 18.507812 74.804688 17.941406 74.832031 17.375 74.832031 C 16.804688 74.832031 16.238281 74.804688 15.671875 74.75 C 15.105469 74.695312 14.542969 74.609375 13.988281 74.5 C 13.429688 74.390625 12.878906 74.25 12.335938 74.085938 C 11.789062 73.921875 11.257812 73.730469 10.730469 73.511719 C 10.207031 73.292969 9.691406 73.050781 9.191406 72.785156 C 8.6875 72.515625 8.203125 72.222656 7.730469 71.90625 C 7.257812 71.59375 6.800781 71.253906 6.359375 70.894531 C 5.921875 70.53125 5.5 70.152344 5.097656 69.75 C 4.695312 69.347656 4.316406 68.925781 3.953125 68.488281 C 3.59375 68.046875 3.253906 67.589844 2.941406 67.117188 C 2.625 66.644531 2.332031 66.160156 2.0625 65.65625 C 1.796875 65.15625 1.554688 64.640625 1.335938 64.117188 C 1.117188 63.589844 0.925781 63.058594 0.761719 62.511719 C 0.597656 61.96875 0.457031 61.417969 0.347656 60.859375 C 0.238281 60.304688 0.152344 59.742188 0.0976562 59.175781 C 0.0429688 58.609375 0.015625 58.042969 0.015625 57.472656 C 0.015625 56.90625 0.0429688 56.339844 0.0976562 55.773438 C 0.152344 55.207031 0.238281 54.644531 0.347656 54.085938 C 0.457031 53.53125 0.597656 52.980469 0.761719 52.433594 C 0.925781 51.890625 1.117188 51.355469 1.335938 50.832031 C 1.554688 50.304688 1.796875 49.792969 2.0625 49.289062 C 2.332031 48.789062 2.625 48.300781 2.941406 47.828125 C 3.253906 47.355469 3.59375 46.902344 3.953125 46.460938 C 4.316406 46.019531 4.695312 45.601562 5.097656 45.199219 C 5.5 44.796875 5.921875 44.414062 6.359375 44.054688 C 6.800781 43.695312 7.257812 43.355469 7.730469 43.039062 C 8.203125 42.722656 8.6875 42.433594 9.191406 42.164062 C 9.691406 41.894531 10.207031 41.652344 10.730469 41.4375 C 11.257812 41.21875 11.789062 41.027344 12.335938 40.863281 C 12.878906 40.695312 13.429688 40.558594 13.988281 40.449219 C 14.542969 40.335938 15.105469 40.253906 15.671875 40.199219 C 16.238281 40.140625 16.804688 40.113281 17.375 40.113281 C 17.941406 40.113281 18.507812 40.140625 19.074219 40.199219 C 19.640625 40.253906 20.203125 40.335938 20.761719 40.449219 C 21.316406 40.558594 21.867188 40.695312 22.414062 40.863281 C 22.957031 41.027344 23.492188 41.21875 24.015625 41.4375 C 24.542969 41.652344 25.054688 41.894531 25.558594 42.164062 C 26.058594 42.433594 26.546875 42.722656 27.019531 43.039062 C 27.492188 43.355469 27.945312 43.695312 28.386719 44.054688 C 28.824219 44.414062 29.246094 44.796875 29.648438 45.199219 C 30.050781 45.601562 30.433594 46.019531 30.792969 46.460938 C 31.152344 46.902344 31.492188 47.355469 31.808594 47.828125 C 32.125 48.300781 32.414062 48.789062 32.683594 49.289062 C 32.953125 49.792969 33.195312 50.304688 33.410156 50.832031 C 33.628906 51.355469 33.820312 51.890625 33.984375 52.433594 C 34.152344 52.980469 34.289062 53.53125 34.398438 54.085938 C 34.511719 54.644531 34.59375 55.207031 34.648438 55.773438 C 34.707031 56.339844 34.734375 56.90625 34.734375 57.472656 Z M 34.734375 57.472656 " fill-opacity="1" fill-rule="nonzero"/></g><path fill="#01975c" d="M 17.375 72.824219 C 8.910156 72.824219 2.023438 65.9375 2.023438 57.472656 C 2.023438 49.007812 8.910156 42.125 17.375 42.125 C 25.835938 42.125 32.722656 49.007812 32.722656 57.472656 C 32.722656 65.9375 25.839844 72.824219 17.375 72.824219 Z M 17.375 42.558594 C 9.148438 42.558594 2.460938 49.25 2.460938 57.472656 C 2.460938 65.695312 9.148438 72.386719 17.375 72.386719 C 25.597656 72.386719 32.289062 65.695312 32.289062 57.472656 C 32.289062 49.25 25.597656 42.558594 17.375 42.558594 Z M 17.375 42.558594 " fill-opacity="1" fill-rule="nonzero"/><path fill="#01975c" d="M 17.609375 48.292969 C 17.644531 48.308594 17.683594 48.320312 17.71875 48.335938 C 18.441406 48.527344 18.886719 49.089844 18.886719 49.835938 C 18.890625 51.773438 18.890625 53.714844 18.886719 55.652344 L 18.886719 61.464844 C 18.980469 61.378906 19.042969 61.324219 19.101562 61.265625 C 19.957031 60.414062 20.800781 59.550781 21.664062 58.707031 C 22.527344 57.863281 23.925781 58.261719 24.203125 59.421875 C 24.34375 59.996094 24.167969 60.488281 23.75 60.90625 C 22.402344 62.25 21.058594 63.589844 19.71875 64.9375 C 19.3125 65.34375 18.90625 65.753906 18.496094 66.160156 C 17.820312 66.824219 16.921875 66.824219 16.246094 66.152344 C 14.488281 64.398438 12.734375 62.644531 10.980469 60.886719 C 10.554688 60.460938 10.398438 59.953125 10.558594 59.371094 C 10.710938 58.808594 11.089844 58.445312 11.65625 58.308594 C 12.222656 58.171875 12.710938 58.332031 13.125 58.746094 C 13.960938 59.582031 14.796875 60.417969 15.632812 61.253906 C 15.6875 61.320312 15.738281 61.390625 15.785156 61.460938 L 15.859375 61.425781 L 15.859375 61.160156 C 15.859375 57.507812 15.875 53.859375 15.847656 50.207031 C 15.84375 49.253906 16.148438 48.589844 17.089844 48.292969 Z M 17.609375 48.292969 " fill-opacity="1" fill-rule="nonzero"/><path fill="#ffffff" d="M 10.355469 64.660156 C 10.414062 64.78125 10.460938 64.914062 10.535156 65.023438 C 10.671875 65.238281 10.890625 65.339844 11.128906 65.40625 L 10.355469 65.40625 Z M 10.355469 64.660156 " fill-opacity="1" fill-rule="nonzero"/><path fill="#fffaf3" d="M 46.277344 57.472656 C 46.277344 59.78125 44.566406 61.550781 42.316406 61.550781 L 39.058594 61.550781 L 39.058594 53.398438 L 42.316406 53.398438 C 44.566406 53.398438 46.277344 55.167969 46.277344 57.472656 Z M 44.480469 57.472656 C 44.480469 56.078125 43.597656 55.191406 42.316406 55.191406 L 40.917969 55.191406 L 40.917969 59.757812 L 42.316406 59.757812 C 43.601562 59.757812 44.484375 58.871094 44.484375 57.472656 Z M 44.480469 57.472656 " fill-opacity="1" fill-rule="nonzero"/><path fill="#fffaf3" d="M 46.976562 57.472656 C 46.976562 55.074219 48.875 53.234375 51.214844 53.234375 C 53.554688 53.234375 55.453125 55.074219 55.453125 57.472656 C 55.453125 59.871094 53.554688 61.710938 51.214844 61.710938 C 48.875 61.710938 46.976562 59.871094 46.976562 57.472656 Z M 53.589844 57.472656 C 53.589844 56.019531 52.542969 55.050781 51.214844 55.050781 C 49.886719 55.050781 48.839844 56.019531 48.839844 57.472656 C 48.839844 58.929688 49.886719 59.894531 51.214844 59.894531 C 52.542969 59.894531 53.589844 58.929688 53.589844 57.472656 Z M 53.589844 57.472656 " fill-opacity="1" fill-rule="nonzero"/><path fill="#fffaf3" d="M 55.570312 53.398438 L 57.527344 53.398438 L 58.9375 59.105469 L 60.507812 53.398438 L 62.023438 53.398438 L 63.59375 59.105469 L 65.003906 53.398438 L 66.960938 53.398438 L 64.714844 61.550781 L 62.59375 61.550781 L 61.265625 56.738281 L 59.9375 61.550781 L 57.820312 61.550781 Z M 55.570312 53.398438 " fill-opacity="1" fill-rule="nonzero"/><path fill="#fffaf3" d="M 74.179688 53.398438 L 74.179688 61.550781 L 72.78125 61.550781 L 69.640625 57.125 L 69.640625 61.550781 L 67.777344 61.550781 L 67.777344 53.398438 L 69.171875 53.398438 L 72.316406 57.824219 L 72.316406 53.398438 Z M 74.179688 53.398438 " fill-opacity="1" fill-rule="nonzero"/><path fill="#fffaf3" d="M 80.351562 59.757812 L 80.351562 61.550781 L 75.578125 61.550781 L 75.578125 53.398438 L 77.441406 53.398438 L 77.441406 59.757812 Z M 80.351562 59.757812 " fill-opacity="1" fill-rule="nonzero"/><path fill="#fffaf3" d="M 80.351562 57.472656 C 80.351562 55.074219 82.25 53.234375 84.589844 53.234375 C 86.929688 53.234375 88.828125 55.074219 88.828125 57.472656 C 88.828125 59.871094 86.929688 61.710938 84.589844 61.710938 C 82.25 61.710938 80.351562 59.871094 80.351562 57.472656 Z M 86.96875 57.472656 C 86.96875 56.019531 85.917969 55.050781 84.589844 55.050781 C 83.261719 55.050781 82.214844 56.019531 82.214844 57.472656 C 82.214844 58.929688 83.261719 59.894531 84.589844 59.894531 C 85.917969 59.894531 86.96875 58.929688 86.96875 57.472656 Z M 86.96875 57.472656 " fill-opacity="1" fill-rule="nonzero"/><path fill="#fffaf3" d="M 94.363281 60.269531 L 91.332031 60.269531 L 90.925781 61.550781 L 88.886719 61.550781 L 91.660156 53.398438 L 94.035156 53.398438 L 96.808594 61.550781 L 94.769531 61.550781 Z M 93.804688 58.523438 L 92.847656 55.527344 L 91.894531 58.523438 Z M 93.804688 58.523438 " fill-opacity="1" fill-rule="nonzero"/><path fill="#fffaf3" d="M 104.726562 57.472656 C 104.726562 59.78125 103.015625 61.550781 100.765625 61.550781 L 97.503906 61.550781 L 97.503906 53.398438 L 100.765625 53.398438 C 103.015625 53.398438 104.726562 55.167969 104.726562 57.472656 Z M 102.933594 57.472656 C 102.933594 56.078125 102.046875 55.191406 100.765625 55.191406 L 99.367188 55.191406 L 99.367188 59.757812 L 100.765625 59.757812 C 102.046875 59.757812 102.933594 58.871094 102.933594 57.472656 Z M 102.933594 57.472656 " fill-opacity="1" fill-rule="nonzero"/></svg>