<svg xmlns="http://www.w3.org/2000/svg" xmlns:xlink="http://www.w3.org/1999/xlink" width="150" zoomAndPan="magnify" viewBox="0 0 112.5 74.999997" height="100" preserveAspectRatio="xMidYMid meet" version="1.0"><defs><filter x="0%" y="0%" width="100%" height="100%" id="601b55703d"><feColorMatrix values="0 0 0 0 1 0 0 0 0 1 0 0 0 0 1 0 0 0 1 0" color-interpolation-filters="sRGB"/></filter><clipPath id="41ae6e3aff"><path d="M 24 0.164062 L 82 0.164062 L 82 40 L 24 40 Z M 24 0.164062 " clip-rule="nonzero"/></clipPath><clipPath id="8f23061ce1"><path d="M 23 0.164062 L 82 0.164062 L 82 40 L 23 40 Z M 23 0.164062 " clip-rule="nonzero"/></clipPath><clipPath id="a8e8cb7153"><path d="M 67 67 L 93 67 L 93 74.832031 L 67 74.832031 Z M 67 67 " clip-rule="nonzero"/></clipPath><clipPath id="3772179550"><path d="M 75 51 L 100.621094 51 L 100.621094 64 L 75 64 Z M 75 51 " clip-rule="nonzero"/></clipPath><clipPath id="df46db2e07"><path d="M 89 40 L 100.621094 40 L 100.621094 55 L 89 55 Z M 89 40 " clip-rule="nonzero"/></clipPath><mask id="96dad611f2"><g filter="url(#601b55703d)"><rect x="-11.25" width="135" fill="#000000" y="-7.5" height="89.999996" fill-opacity="0.67"/></g></mask><clipPath id="dcffc89592"><path d="M 1 0.273438 L 3.433594 0.273438 L 3.433594 2.902344 L 1 2.902344 Z M 1 0.273438 " clip-rule="nonzero"/></clipPath><clipPath id="41d88fa3b0"><path d="M 0.804688 0.273438 L 3.433594 0.273438 L 3.433594 2.902344 L 0.804688 2.902344 Z M 0.804688 0.273438 " clip-rule="nonzero"/></clipPath><clipPath id="805831932c"><rect x="0" width="4" y="0" height="3"/></clipPath><mask id="d3fa35097e"><g filter="url(#601b55703d)"><rect x="-11.25" width="135" fill="#000000" y="-7.5" height="89.999996" fill-opacity="0.67"/></g></mask><clipPath id="6f382a5cae"><path d="M 1 0.273438 L 3.566406 0.273438 L 3.566406 2.902344 L 1 2.902344 Z M 1 0.273438 " clip-rule="nonzero"/></clipPath><clipPath id="49ee7ad47e"><path d="M 0.699219 0.273438 L 3.566406 0.273438 L 3.566406 2.902344 L 0.699219 2.902344 Z M 0.699219 0.273438 " clip-rule="nonzero"/></clipPath><clipPath id="7fc7b22c1f"><rect x="0" width="4" y="0" height="3"/></clipPath><clipPath id="40f11681e3"><path d="M 12 65 L 37 65 L 37 74.832031 L 12 74.832031 Z M 12 65 " clip-rule="nonzero"/></clipPath><clipPath id="4aaab6cd1d"><path d="M 11.058594 36 L 30 36 L 30 74.832031 L 11.058594 74.832031 Z M 11.058594 36 " clip-rule="nonzero"/></clipPath><clipPath id="eeaaf97b7e"><path d="M 30 35 L 39 35 L 39 74.832031 L 30 74.832031 Z M 30 35 " clip-rule="nonzero"/></clipPath><clipPath id="63fa73b05f"><path d="M 11.058594 40 L 23 40 L 23 58 L 11.058594 58 Z M 11.058594 40 " clip-rule="nonzero"/></clipPath><clipPath id="3a11d8b94f"><path d="M 11.058594 51 L 30 51 L 30 68 L 11.058594 68 Z M 11.058594 51 " clip-rule="nonzero"/></clipPath></defs><g clip-path="url(#41ae6e3aff)"><path fill="#fffbfb" d="M 24.019531 0.714844 C 24.019531 0.714844 81.585938 0.714844 81.585938 0.714844 C 81.585938 0.714844 81.585938 39.171875 81.585938 39.171875 C 81.585938 39.171875 24.019531 39.171875 24.019531 39.171875 C 24.019531 39.171875 24.019531 0.714844 24.019531 0.714844 Z M 24.019531 0.714844 " fill-opacity="1" fill-rule="nonzero"/></g><g clip-path="url(#8f23061ce1)"><path stroke-linecap="round" transform="matrix(0.0878042, 0, 0, 0.0878042, 52.802464, 19.942268)" fill="none" stroke-linejoin="round" d="M -327.808158 -218.980691 C -327.808158 -218.980691 327.814313 -218.980691 327.814313 -218.980691 C 327.814313 -218.980691 327.814313 219.00555 327.814313 219.00555 C 327.814313 219.00555 -327.808158 219.00555 -327.808158 219.00555 C -327.808158 219.00555 -327.808158 -218.980691 -327.808158 -218.980691 Z M -327.808158 -218.980691 " stroke="#000001" stroke-width="6" stroke-opacity="1" stroke-miterlimit="4"/></g><path fill="#01975c" d="M 69.558594 17.28125 C 70.53125 14.398438 71.5 11.53125 72.472656 8.652344 C 72.492188 8.65625 72.523438 8.660156 72.554688 8.671875 C 72.894531 8.835938 73.246094 8.980469 73.570312 9.171875 C 74.019531 9.441406 74.457031 9.726562 74.878906 10.039062 C 75.339844 10.375 75.769531 10.761719 76.152344 11.191406 C 76.699219 11.808594 77.199219 12.46875 77.597656 13.199219 C 77.796875 13.574219 77.972656 13.960938 78.152344 14.34375 C 78.203125 14.441406 78.203125 14.5 78.058594 14.542969 C 77.398438 14.738281 76.742188 14.953125 76.082031 15.164062 C 75.324219 15.40625 74.570312 15.65625 73.8125 15.902344 C 73.25 16.089844 72.691406 16.277344 72.128906 16.457031 C 71.648438 16.613281 71.164062 16.757812 70.683594 16.914062 C 70.324219 17.027344 69.972656 17.15625 69.617188 17.273438 C 69.601562 17.28125 69.585938 17.277344 69.558594 17.28125 Z M 69.558594 17.28125 " fill-opacity="1" fill-rule="nonzero"/><path stroke-linecap="round" transform="matrix(0.0878042, 0, 0, 0.0878042, 64.727585, 18.3351)" fill-opacity="1" fill="#fffbfb" fill-rule="nonzero" stroke-linejoin="round" d="M 71.614345 110.162297 C 59.69151 113.632376 47.546234 114.477651 35.400958 113.76584 C 8.974972 112.253242 -14.158887 102.332375 -33.778179 84.626075 C -51.884873 68.298909 -63.76322 48.190247 -68.834874 24.389064 C -74.529362 -2.081409 -71.63763 -27.840072 -59.002984 -51.863695 C -30.619518 -105.738894 24.011981 -120.686927 66.498203 -111.433383 C 64.718676 -106.228265 62.89466 -101.067634 61.115132 -95.862516 C 57.867494 -86.253067 54.619856 -76.643617 51.372218 -66.98968 C 48.435998 -58.314483 45.544265 -49.639286 42.608045 -40.964088 C 38.915525 -29.975505 35.223005 -19.075898 31.485997 -8.087315 C 30.68521 -5.773929 29.795446 -3.460543 29.083635 -1.058181 C 28.861194 -0.257393 28.816706 0.810323 29.128123 1.566622 C 34.333241 14.91308 39.627336 28.259537 44.876943 41.605994 C 48.480486 50.859538 51.995053 60.113082 55.598597 69.322137 C 58.401353 76.529224 61.248597 83.691823 64.051353 90.854422 C 66.364739 96.815839 68.678125 102.821745 70.991511 108.827651 C 71.169463 109.228045 71.347416 109.628438 71.614345 110.162297 Z M 71.614345 110.162297 " stroke="#01975c" stroke-width="6" stroke-opacity="1" stroke-miterlimit="4"/><path stroke-linecap="round" transform="matrix(0.0878042, 0, 0, 0.0878042, 74.247058, 21.814342)" fill-opacity="1" fill="#fffbfb" fill-rule="nonzero" stroke-linejoin="round" d="M 46.167761 -61.103266 C 51.10595 -31.162713 46.256737 -3.268617 29.796107 22.267605 C 19.118941 38.817212 5.060672 51.807763 -12.378699 61.105795 C -14.959014 54.655008 -17.450352 48.337684 -19.941691 42.020361 C -22.966888 34.323904 -25.947597 26.671935 -28.928306 19.019967 C -33.777518 6.518785 -38.626731 -6.026885 -43.475944 -18.528067 C -44.899566 -22.176098 -46.412165 -25.82413 -47.924763 -29.51665 C -48.325157 -30.584366 -47.346417 -30.717831 -46.812558 -30.895784 C -43.876338 -31.9635 -40.895629 -32.986729 -37.870432 -33.920981 C -31.77555 -35.878461 -25.680668 -37.746965 -19.585786 -39.704446 C -14.469644 -41.350509 -9.39799 -43.130036 -4.281848 -44.820588 C 3.815003 -47.489879 11.956342 -50.114682 20.053193 -52.739486 C 26.548469 -54.874919 33.088233 -56.921376 39.583509 -59.012321 C 41.407524 -59.590667 43.187052 -60.213502 44.96658 -60.791848 C 45.366973 -60.925313 45.767367 -60.969801 46.167761 -61.058777 C 46.167761 -61.058777 46.167761 -61.103266 46.167761 -61.103266 Z M 46.167761 -61.103266 " stroke="#01975c" stroke-width="6" stroke-opacity="1" stroke-miterlimit="4"/><path stroke-linecap="round" transform="matrix(0.0957066, 0, 0, 0.00478533, 50.016504, 24.515041)" fill-opacity="1" fill="#fffbfb" fill-rule="nonzero" stroke-linejoin="round" d="M -11.029194 -74.977253 C -11.029194 -74.977253 11.010827 -74.977253 11.010827 -74.977253 C 11.010827 -74.977253 11.010827 74.405101 11.010827 74.405101 C 11.010827 74.405101 -11.029194 74.405101 -11.029194 74.405101 C -11.029194 74.405101 -11.029194 -74.977253 -11.029194 -74.977253 Z M -11.029194 -74.977253 " stroke="#01975c" stroke-width="6" stroke-opacity="1" stroke-miterlimit="4"/><path stroke-linecap="round" transform="matrix(0.0957066, 0, 0, 0.00765653, 45.354639, 24.540507)" fill-opacity="1" fill="#fffbfb" fill-rule="nonzero" stroke-linejoin="round" d="M -11.011338 -43.554488 C -11.011338 -43.554488 11.028683 -43.554488 11.028683 -43.554488 C 11.028683 -43.554488 11.028683 43.177075 11.028683 43.177075 C 11.028683 43.177075 -11.011338 43.177075 -11.011338 43.177075 C -11.011338 43.177075 -11.011338 -43.554488 -11.011338 -43.554488 Z M -11.011338 -43.554488 " stroke="#01975c" stroke-width="6" stroke-opacity="1" stroke-miterlimit="4"/><path stroke-linecap="round" transform="matrix(0.0957066, 0, 0, 0.00574239, 40.72148, 24.574799)" fill-opacity="1" fill="#fffbfb" fill-rule="nonzero" stroke-linejoin="round" d="M -11.04853 -51.799864 C -11.04853 -51.799864 11.032305 -51.799864 11.032305 -51.799864 C 11.032305 -51.799864 11.032305 51.597767 11.032305 51.597767 C 11.032305 51.597767 -11.04853 51.597767 -11.04853 51.597767 C -11.04853 51.597767 -11.04853 -51.799864 -11.04853 -51.799864 Z M -11.04853 -51.799864 " stroke="#01975c" stroke-width="6" stroke-opacity="1" stroke-miterlimit="4"/><path stroke-linecap="round" transform="matrix(0.0957066, 0, 0, 0.00957066, 36.09024, 24.547342)" fill-opacity="1" fill="#fffbfb" fill-rule="nonzero" stroke-linejoin="round" d="M -11.024146 -33.925091 C -11.024146 -33.925091 11.015875 -33.925091 11.015875 -33.925091 C 11.015875 -33.925091 11.015875 33.827567 11.015875 33.827567 C 11.015875 33.827567 -11.024146 33.827567 -11.024146 33.827567 C -11.024146 33.827567 -11.024146 -33.925091 -11.024146 -33.925091 Z M -11.024146 -33.925091 " stroke="#01975c" stroke-width="6" stroke-opacity="1" stroke-miterlimit="4"/><path stroke-linecap="round" transform="matrix(0.0957066, 0, 0, 0.00957066, 31.168049, 24.651423)" fill-opacity="1" fill="#fffbfb" fill-rule="nonzero" stroke-linejoin="round" d="M -11.020846 -23.168271 C -11.020846 -23.168271 11.019175 -23.168271 11.019175 -23.168271 C 11.019175 -23.168271 11.019175 22.952514 11.019175 22.952514 C 11.019175 22.952514 -11.020846 22.952514 -11.020846 22.952514 C -11.020846 22.952514 -11.020846 -23.168271 -11.020846 -23.168271 Z M -11.020846 -23.168271 " stroke="#01975c" stroke-width="6" stroke-opacity="1" stroke-miterlimit="4"/><g clip-path="url(#a8e8cb7153)"><path fill="#01975c" d="M 71.40625 69.117188 C 71.40625 69.117188 68.371094 67.890625 68.371094 67.890625 C 67.027344 71.363281 67.03125 75.128906 67.03125 75.128906 C 67.03125 75.128906 92.132812 75.128906 92.132812 75.128906 C 92.332031 72.074219 92.007812 69.589844 91.535156 67.683594 C 82.699219 73.699219 71.40625 69.117188 71.40625 69.117188 Z M 71.40625 69.117188 " fill-opacity="1" fill-rule="nonzero"/></g><path fill="#000001" d="M 91.535156 67.683594 C 90.78125 64.65625 89.648438 63.101562 89.648438 63.101562 C 89.648438 63.101562 72.027344 63.101562 72.027344 63.101562 C 70.253906 64.160156 69.109375 65.980469 68.371094 67.886719 C 68.371094 67.886719 71.40625 69.113281 71.40625 69.113281 C 71.40625 69.113281 82.699219 73.695312 91.535156 67.683594 Z M 91.535156 67.683594 " fill-opacity="1" fill-rule="nonzero"/><path fill="#dffd6e" d="M 91.742188 40.503906 C 89.363281 39.285156 86.988281 38.558594 84.71875 38.171875 C 82.988281 40.085938 78.484375 42.339844 78.484375 42.339844 C 77.199219 40.363281 75.601562 40.121094 75.601562 40.121094 C 75.601562 40.121094 76.28125 38.09375 76.28125 38.09375 C 72.273438 38.660156 69.617188 39.871094 69.617188 39.871094 C 69.667969 40.332031 69.679688 40.792969 69.679688 41.253906 C 69.679688 44.148438 69.300781 47.058594 68.925781 49.921875 C 68.511719 53.113281 67.195312 56.066406 66.472656 59.210938 C 66.449219 59.304688 66.429688 59.398438 66.410156 59.492188 C 65.65625 63.027344 66.296875 66.371094 69.210938 68.695312 C 71.578125 70.582031 74.789062 71.542969 77.777344 71.472656 C 92.648438 71.128906 92.648438 58.382812 92.648438 58.382812 C 92.648438 52.023438 91.742188 40.503906 91.742188 40.503906 Z M 91.742188 40.503906 " fill-opacity="1" fill-rule="nonzero"/><path stroke-linecap="round" transform="matrix(0.0878042, 0, 0, 0.0878042, 77.802857, 48.990111)" fill="none" stroke-linejoin="round" d="M 7.761787 -75.739737 C 7.761787 -75.739737 -4.872859 -61.548004 -4.872859 -61.548004 C -4.872859 -61.548004 9.274386 1.669716 -7.764591 75.742554 " stroke="#000001" stroke-width="6" stroke-opacity="1" stroke-miterlimit="4"/><path fill="#dffd6e" d="M 79.59375 34.183594 C 79.59375 34.183594 75.5625 32.90625 72.027344 40.507812 C 72.027344 40.507812 75.597656 40.121094 75.597656 40.121094 C 75.597656 40.121094 81.464844 40.664062 81.464844 40.664062 C 81.464844 40.664062 84.652344 39.855469 86.527344 40.664062 C 86.527344 40.664062 89.136719 35.695312 81.773438 34.183594 C 81.773438 34.183594 79.59375 34.183594 79.59375 34.183594 Z M 79.59375 34.183594 " fill-opacity="1" fill-rule="nonzero"/><path fill="#000001" d="M 79.59375 37.421875 C 79.59375 37.421875 82.195312 37.878906 83.796875 35.875 C 83.679688 35.105469 83.660156 34.132812 83.859375 32.917969 C 83.859375 32.917969 77.648438 32.917969 77.648438 32.917969 C 77.648438 32.917969 76.859375 35.894531 76.859375 35.894531 C 77.390625 36.578125 78.25 37.269531 79.59375 37.421875 Z M 79.59375 37.421875 " fill-opacity="1" fill-rule="nonzero"/><path fill="#86492a" d="M 79.59375 37.421875 C 78.25 37.265625 77.394531 36.578125 76.863281 35.894531 C 76.863281 35.894531 76.28125 38.09375 76.28125 38.09375 C 76.28125 38.09375 75.601562 40.121094 75.601562 40.121094 C 75.601562 40.121094 77.199219 40.363281 78.484375 42.339844 C 78.484375 42.339844 82.988281 40.085938 84.71875 38.175781 C 84.71875 38.175781 84.039062 37.488281 83.796875 35.875 C 82.195312 37.878906 79.59375 37.421875 79.59375 37.421875 Z M 79.59375 37.421875 " fill-opacity="1" fill-rule="nonzero"/><path stroke-linecap="round" transform="matrix(0.0878042, 0, 0, 0.0878042, 79.506438, 40.50339)" fill="none" stroke-linejoin="round" d="M -74.902459 -19.791363 C -74.902459 -19.791363 -85.179231 0.00588177 -85.179231 0.00588177 C -85.179231 0.00588177 -44.517024 -4.353961 -44.517024 -4.353961 C -44.517024 -4.353961 -24.719779 -0.616953 -11.640251 20.915332 C -11.640251 20.915332 25.240459 1.785409 25.240459 1.785409 C 57.672351 -7.290182 79.960934 1.785409 79.960934 1.785409 C 86.322746 -10.76026 85.077076 -20.903568 85.077076 -20.903568 " stroke="#000001" stroke-width="6" stroke-opacity="1" stroke-miterlimit="4"/><path fill="#86492a" d="M 63.421875 51.527344 C 63.421875 51.527344 60.78125 53.851562 60.78125 53.851562 C 60.78125 53.851562 57.265625 62.257812 65.5 64.210938 C 65.5 64.210938 70.507812 62.871094 68.578125 54.785156 C 68.578125 54.785156 68.828125 53.492188 68.828125 53.492188 C 68.828125 53.492188 68.007812 50.886719 68.007812 50.886719 C 68.007812 50.886719 63.421875 51.527344 63.421875 51.527344 Z M 63.421875 51.527344 " fill-opacity="1" fill-rule="nonzero"/><path fill="#dffd6e" d="M 71.320312 40.917969 C 71.320312 40.917969 69.613281 39.875 69.613281 39.875 C 69.613281 39.875 67.144531 40.230469 64.523438 46.417969 C 64.523438 46.417969 60.78125 53.851562 60.78125 53.851562 C 60.78125 53.851562 65.957031 52.449219 68.828125 53.492188 C 68.828125 53.492188 71.320312 40.917969 71.320312 40.917969 Z M 71.320312 40.917969 " fill-opacity="1" fill-rule="nonzero"/><path stroke-linecap="round" transform="matrix(0.0878042, 0, 0, 0.0878042, 68.8089, 48.4646)" fill="none" stroke-linejoin="round" d="M -9.47947 63.176008 C 0.35242 21.668526 7.381554 -20.328326 9.472499 -63.214942 " stroke="#000001" stroke-width="6" stroke-opacity="1" stroke-miterlimit="4"/><path fill="#fffbfb" d="M 68.457031 52.753906 C 68.457031 52.753906 78.40625 52.753906 78.40625 52.753906 C 78.40625 52.753906 78.40625 65.21875 78.40625 65.21875 C 78.40625 65.21875 68.457031 65.21875 68.457031 65.21875 C 68.457031 65.21875 68.457031 52.753906 68.457031 52.753906 Z M 68.457031 52.753906 " fill-opacity="1" fill-rule="nonzero"/><path fill="#86492a" d="M 61.59375 59.773438 C 61.59375 59.773438 61.695312 54.167969 68.886719 54.253906 C 69.558594 54.261719 70.515625 54.332031 71.019531 54.875 C 71.480469 55.375 71.519531 57.007812 70.574219 57.011719 C 71.941406 57.011719 71.46875 60.289062 70.261719 60.039062 C 70.261719 60.039062 71.695312 60.335938 71.320312 61.894531 C 71.320312 61.894531 71.257812 64.335938 66.832031 64.335938 C 66.832031 64.335938 62.214844 64.636719 61.59375 59.773438 Z M 61.59375 59.773438 " fill-opacity="1" fill-rule="nonzero"/><path stroke-linecap="round" transform="matrix(0.0878042, 0, 0, 0.0878042, 69.576916, 57.010145)" fill="none" stroke-linejoin="round" d="M 11.358259 0.0179239 C 11.358259 0.0179239 -11.375207 0.0179239 -11.375207 0.0179239 " stroke="#000001" stroke-width="6" stroke-opacity="1" stroke-miterlimit="4"/><path stroke-linecap="round" transform="matrix(0.0878042, 0, 0, 0.0878042, 69.420194, 60.037633)" fill="none" stroke-linejoin="round" d="M 9.584105 0.0162768 C 9.584105 0.0162768 -9.590306 0.0162768 -9.590306 0.0162768 " stroke="#000001" stroke-width="6" stroke-opacity="1" stroke-miterlimit="4"/><path stroke-linecap="round" transform="matrix(0.0878042, 0, 0, 0.0878042, 64.608787, 58.784226)" fill="none" stroke-linejoin="round" d="M -12.227557 51.39445 C -29.800393 42.140906 -36.785039 22.12122 -33.80433 3.124763 C -29.800393 -13.869726 -21.792518 -27.883507 -7.778738 -37.848861 C 5.211814 -46.879964 19.181106 -48.881933 34.485043 -51.373272 " stroke="#000001" stroke-width="6" stroke-opacity="1" stroke-miterlimit="4"/><path fill="#fffbfb" d="M 70.9375 65.21875 C 70.9375 65.21875 67.746094 65.21875 67.746094 65.21875 C 64.992188 65.21875 64.222656 62.917969 64.203125 61.699219 C 64.203125 61.695312 64.203125 61.6875 64.203125 61.683594 C 64.203125 61.683594 64.203125 57.476562 64.203125 57.476562 C 64.203125 55.898438 64.601562 54.707031 65.386719 53.929688 C 66.367188 52.96875 67.597656 53.027344 67.871094 53.054688 C 67.871094 53.054688 70.613281 53.054688 70.613281 53.054688 C 70.984375 53.054688 71.285156 53.390625 71.285156 53.808594 C 71.285156 54.226562 70.984375 54.5625 70.613281 54.5625 C 70.613281 54.5625 67.835938 54.5625 67.835938 54.5625 C 67.808594 54.5625 67.78125 54.558594 67.753906 54.554688 C 67.746094 54.554688 66.886719 54.453125 66.269531 55.074219 C 65.792969 55.550781 65.550781 56.359375 65.550781 57.480469 C 65.550781 57.480469 65.550781 61.671875 65.550781 61.671875 C 65.550781 61.714844 65.582031 62.238281 65.855469 62.734375 C 66.214844 63.382812 66.851562 63.710938 67.746094 63.710938 C 67.746094 63.710938 70.9375 63.710938 70.9375 63.710938 C 71.308594 63.710938 71.609375 64.046875 71.609375 64.464844 C 71.609375 64.882812 71.308594 65.21875 70.9375 65.21875 Z M 70.9375 65.21875 " fill-opacity="1" fill-rule="nonzero"/><g clip-path="url(#3772179550)"><path fill="#86492a" d="M 90.773438 54.785156 C 90.773438 54.785156 83.5625 53.988281 83.5625 53.988281 C 83.5625 53.988281 78.484375 51.945312 78.484375 51.945312 C 78.484375 51.945312 75.902344 51.15625 75.597656 52.753906 C 75.597656 52.753906 75.265625 53.527344 76.082031 54.34375 C 76.082031 54.34375 74.933594 55.195312 75.238281 56.34375 C 75.238281 56.34375 75.578125 57.550781 76.34375 57.550781 C 76.34375 57.550781 74.996094 58.667969 75.597656 59.773438 C 76.695312 61.777344 79.4375 61.519531 81.367188 61.589844 C 83.132812 61.65625 84.898438 61.722656 86.660156 61.785156 C 86.660156 61.785156 95.878906 63.050781 95.910156 63.054688 C 98.121094 63.359375 100.417969 62.027344 100.996094 59.820312 C 101.40625 58.25 100.53125 56.328125 100.140625 54.785156 C 100.140625 54.785156 97.90625 52.753906 97.90625 52.753906 C 97.90625 52.753906 91.5 53.082031 91.5 53.082031 C 91.5 53.082031 90.773438 54.785156 90.773438 54.785156 Z M 90.773438 54.785156 " fill-opacity="1" fill-rule="nonzero"/></g><path stroke-linecap="round" transform="matrix(0.0878042, 0, 0, 0.0878042, 77.473589, 54.565235)" fill="none" stroke-linejoin="round" d="M -15.848418 -2.522491 C -15.848418 -2.522491 15.827174 2.504674 15.827174 2.504674 " stroke="#000001" stroke-width="6" stroke-opacity="1" stroke-miterlimit="4"/><path stroke-linecap="round" transform="matrix(0.0878042, 0, 0, 0.0878042, 77.604412, 57.702475)" fill="none" stroke-linejoin="round" d="M -14.357653 -1.727638 C -14.357653 -1.727638 14.33723 1.742441 14.33723 1.742441 " stroke="#000001" stroke-width="6" stroke-opacity="1" stroke-miterlimit="4"/><g clip-path="url(#df46db2e07)"><path fill="#dffd6e" d="M 91.742188 40.503906 C 91.742188 40.503906 97.605469 42.949219 100.144531 54.785156 C 100.144531 54.785156 94.519531 53.226562 90.773438 54.785156 C 90.773438 54.785156 87.691406 43.949219 91.742188 40.503906 Z M 91.742188 40.503906 " fill-opacity="1" fill-rule="nonzero"/></g><path stroke-linecap="round" transform="matrix(0.0878042, 0, 0, 0.0878042, 90.18062, 48.311386)" fill="none" stroke-linejoin="round" d="M 5.639382 -73.74873 C 5.639382 -73.74873 -10.55432 -51.727075 -5.927548 -7.59479 C -5.927548 -7.59479 6.751586 73.729624 6.751586 73.729624 " stroke="#000001" stroke-width="6" stroke-opacity="1" stroke-miterlimit="4"/><path fill="#000001" d="M 78.070312 28.289062 C 78.070312 28.289062 83.421875 28.773438 83.421875 28.773438 C 84.695312 28.890625 85.636719 30.019531 85.523438 31.296875 C 85.40625 32.574219 84.277344 33.515625 83 33.398438 C 83 33.398438 77.648438 32.914062 77.648438 32.914062 C 76.375 32.796875 75.433594 31.667969 75.546875 30.390625 C 75.664062 29.113281 76.792969 28.171875 78.070312 28.289062 Z M 78.070312 28.289062 " fill-opacity="1" fill-rule="nonzero"/><path fill="#86492a" d="M 80.347656 36.832031 C 80.347656 36.832031 79.632812 36.769531 79.632812 36.769531 C 77.71875 36.59375 76.304688 34.902344 76.480469 32.988281 C 76.480469 32.988281 76.722656 30.300781 76.722656 30.300781 C 76.898438 28.386719 78.589844 26.972656 80.503906 27.148438 C 80.503906 27.148438 81.21875 27.214844 81.21875 27.214844 C 83.132812 27.386719 84.546875 29.078125 84.371094 30.996094 C 84.371094 30.996094 84.128906 33.679688 84.128906 33.679688 C 83.953125 35.597656 82.261719 37.007812 80.347656 36.832031 Z M 80.347656 36.832031 " fill-opacity="1" fill-rule="nonzero"/><path fill="#fffbfb" d="M 81.804688 33.515625 C 82.921875 33.167969 82.742188 34.054688 82.742188 34.054688 C 82.507812 35.214844 81.046875 35.859375 79.925781 35.777344 C 78.949219 35.707031 77.402344 35.03125 77.445312 33.851562 C 77.445312 33.851562 77.335938 32.957031 78.425781 33.386719 C 79.40625 34.203125 80.738281 33.847656 81.804688 33.515625 Z M 81.804688 33.515625 " fill-opacity="1" fill-rule="nonzero"/><g mask="url(#96dad611f2)"><g transform="matrix(1, 0, 0, 1, 79, 30)"><g clip-path="url(#805831932c)"><g clip-path="url(#dcffc89592)"><path fill="#fffbfb" d="M 2.148438 0.558594 C 2.714844 0.558594 3.171875 1.015625 3.171875 1.582031 C 3.171875 2.152344 2.714844 2.609375 2.148438 2.609375 C 1.578125 2.609375 1.121094 2.152344 1.121094 1.582031 C 1.121094 1.015625 1.578125 0.558594 2.148438 0.558594 Z M 2.148438 0.558594 " fill-opacity="1" fill-rule="nonzero"/></g><g clip-path="url(#41d88fa3b0)"><path stroke-linecap="round" transform="matrix(0.0878042, 0, 0, 0.0878042, 2.146883, 1.583804)" fill="none" stroke-linejoin="round" d="M 0.0177058 -11.676094 C 6.468494 -11.676094 11.673612 -6.470975 11.673612 -0.0201877 C 11.673612 6.475088 6.468494 11.680207 0.0177058 11.680207 C -6.47757 11.680207 -11.682688 6.475088 -11.682688 -0.0201877 C -11.682688 -6.470975 -6.47757 -11.676094 0.0177058 -11.676094 Z M 0.0177058 -11.676094 " stroke="#000001" stroke-width="3" stroke-opacity="1" stroke-miterlimit="4"/></g></g></g></g><g mask="url(#d3fa35097e)"><g transform="matrix(1, 0, 0, 1, 76, 30)"><g clip-path="url(#7fc7b22c1f)"><g clip-path="url(#6f382a5cae)"><path fill="#fffbfb" d="M 2.136719 0.546875 C 2.703125 0.546875 3.164062 1.007812 3.164062 1.574219 C 3.164062 2.140625 2.703125 2.601562 2.136719 2.601562 C 1.570312 2.601562 1.113281 2.140625 1.113281 1.574219 C 1.113281 1.007812 1.570312 0.546875 2.136719 0.546875 Z M 2.136719 0.546875 " fill-opacity="1" fill-rule="nonzero"/></g><g clip-path="url(#49ee7ad47e)"><path stroke-linecap="round" transform="matrix(0.0878042, 0, 0, 0.0878042, 2.13783, 1.575021)" fill="none" stroke-linejoin="round" d="M -0.0126537 -11.709529 C 6.438134 -11.709529 11.687741 -6.459923 11.687741 -0.00913493 C 11.687741 6.441653 6.438134 11.691259 -0.0126537 11.691259 C -6.463441 11.691259 -11.66856 6.441653 -11.66856 -0.00913493 C -11.66856 -6.459923 -6.463441 -11.709529 -0.0126537 -11.709529 Z M -0.0126537 -11.709529 " stroke="#000001" stroke-width="3" stroke-opacity="1" stroke-miterlimit="4"/></g></g></g></g><path stroke-linecap="round" transform="matrix(0.0878042, 0, 0, 0.0878042, 79.647622, 31.680388)" fill="none" stroke-linejoin="round" d="M 5.525828 0.65935 C 5.525828 0.65935 -5.507244 -0.675295 -5.507244 -0.675295 " stroke="#000001" stroke-width="3" stroke-opacity="1" stroke-miterlimit="4"/><path stroke-linecap="round" transform="matrix(0.0878042, 0, 0, 0.0878042, 81.146884, 31.583804)" fill="none" stroke-linejoin="round" d="M 0.0176952 -11.676093 C 6.468483 -11.676093 11.673601 -6.470975 11.673601 -0.0201869 C 11.673601 6.475089 6.468483 11.680207 0.0176952 11.680207 C -6.477581 11.680207 -11.682699 6.475089 -11.682699 -0.0201869 C -11.682699 -6.470975 -6.477581 -11.676093 0.0176952 -11.676093 Z M 0.0176952 -11.676093 " stroke="#000001" stroke-width="3" stroke-opacity="1" stroke-miterlimit="4"/><path stroke-linecap="round" transform="matrix(0.0878042, 0, 0, 0.0878042, 78.137829, 31.575021)" fill="none" stroke-linejoin="round" d="M -0.0126502 -11.709529 C 6.438138 -11.709529 11.687744 -6.459923 11.687744 -0.00913521 C 11.687744 6.441652 6.438138 11.691259 -0.0126502 11.691259 C -6.463438 11.691259 -11.668556 6.441652 -11.668556 -0.00913521 C -11.668556 -6.459923 -6.463438 -11.709529 -0.0126502 -11.709529 Z M -0.0126502 -11.709529 " stroke="#000001" stroke-width="3" stroke-opacity="1" stroke-miterlimit="4"/><path stroke-linecap="round" transform="matrix(0.0878042, 0, 0, 0.0878042, 83.366568, 31.785754)" fill="none" stroke-linejoin="round" d="M -13.65082 -1.252479 C -13.65082 -1.252479 3.210205 0.304608 3.210205 0.304608 C 3.210205 0.304608 13.620442 1.23886 13.620442 1.23886 " stroke="#000001" stroke-width="3" stroke-opacity="1" stroke-miterlimit="4"/><path stroke-linecap="round" transform="matrix(0.0878042, 0, 0, 0.0878042, 76.82779, 31.500827)" fill="none" stroke-linejoin="round" d="M 3.251458 0.302001 C 3.251458 0.302001 -3.243817 -0.276345 -3.243817 -0.276345 " stroke="#000001" stroke-width="3" stroke-opacity="1" stroke-miterlimit="4"/><path stroke-linecap="round" transform="matrix(0.0878042, 0, 0, 0.0878042, 78.208072, 29.611458)" fill="none" stroke-linejoin="round" d="M -8.820521 2.156194 C -8.820521 2.156194 -0.857134 -7.497744 8.841291 2.067218 " stroke="#000001" stroke-width="4" stroke-opacity="1" stroke-miterlimit="4"/><path stroke-linecap="round" transform="matrix(0.0878042, 0, 0, 0.0878042, 81.335662, 29.614091)" fill="none" stroke-linejoin="round" d="M -8.850007 2.170702 C -8.850007 2.170702 -0.842133 -7.527724 8.856293 2.081726 " stroke="#000001" stroke-width="4" stroke-opacity="1" stroke-miterlimit="4"/><path fill="#01975c" d="M 32.59375 37.742188 C 33.15625 37.679688 33.703125 37.945312 34.003906 38.429688 C 34.003906 38.429688 38.117188 45.074219 38.117188 45.074219 C 38.167969 45.152344 38.226562 45.226562 38.289062 45.296875 C 38.289062 45.296875 40.273438 47.441406 40.273438 47.441406 C 40.445312 47.625 40.566406 47.851562 40.625 48.097656 C 40.625 48.097656 41.546875 51.992188 41.546875 51.992188 C 41.722656 52.722656 41.316406 53.472656 40.605469 53.714844 C 39.160156 54.203125 36.679688 54.347656 34.597656 50.972656 C 34.578125 50.945312 34.558594 50.914062 34.539062 50.886719 C 34.539062 50.886719 28.773438 42.925781 28.773438 42.925781 C 28.605469 42.691406 28.511719 42.417969 28.496094 42.132812 C 28.285156 37.523438 31.953125 37.609375 32.59375 37.742188 Z M 32.59375 37.742188 " fill-opacity="1" fill-rule="nonzero"/><g clip-path="url(#40f11681e3)"><path fill="#000001" d="M 12.484375 65.023438 C 12.484375 65.023438 36.742188 65.023438 36.742188 65.023438 C 36.742188 65.023438 36.742188 75.070312 36.742188 75.070312 C 36.742188 75.070312 12.484375 75.070312 12.484375 75.070312 C 12.484375 75.070312 12.484375 65.023438 12.484375 65.023438 Z M 12.484375 65.023438 " fill-opacity="1" fill-rule="nonzero"/></g><path fill="#fffbfb" d="M 33.515625 63.21875 C 33.515625 63.21875 33.074219 52.753906 33.074219 52.753906 C 32.496094 46.183594 30.738281 40.925781 29.207031 37.421875 C 27.8125 36.945312 26.300781 36.855469 26.300781 36.855469 C 25.390625 38.578125 23.550781 40.304688 22.679688 41.070312 C 24.65625 45.277344 27.316406 50.683594 29.167969 53.492188 C 29.167969 53.492188 28.773438 65.082031 28.773438 65.082031 C 28.773438 65.082031 33.53125 65.023438 33.53125 65.023438 C 33.53125 65.023438 33.515625 63.21875 33.515625 63.21875 Z M 33.515625 63.21875 " fill-opacity="1" fill-rule="nonzero"/><path fill="#dffd6e" d="M 26.300781 36.855469 C 26.300781 36.855469 24.675781 37.910156 24.675781 37.910156 C 24.675781 37.910156 26.300781 40.121094 26.300781 40.121094 C 26.300781 40.121094 27.640625 38.820312 28.84375 39.265625 C 28.84375 39.265625 27.851562 36.332031 27.851562 36.332031 C 27.851562 36.332031 26.300781 36.855469 26.300781 36.855469 Z M 26.300781 36.855469 " fill-opacity="1" fill-rule="nonzero"/><path fill="#000001" d="M 28.074219 33.796875 C 28.074219 33.796875 27.851562 31.441406 27.851562 31.441406 C 27.851562 31.441406 21.84375 31.691406 21.84375 31.691406 C 21.84375 32.746094 21.6875 33.589844 21.480469 34.246094 C 22.6875 35.199219 25.234375 37.394531 27.921875 34.378906 C 27.921875 34.378906 28.074219 33.796875 28.074219 33.796875 Z M 28.074219 33.796875 " fill-opacity="1" fill-rule="nonzero"/><path fill="#86492a" d="M 21.480469 34.246094 C 21.386719 34.539062 21.285156 34.792969 21.179688 35.015625 C 21.179688 35.015625 22.375 36.855469 26.300781 36.855469 C 26.300781 36.855469 28.175781 35.238281 28.175781 35.238281 C 28.175781 35.238281 28.050781 33.773438 28.050781 33.773438 C 26.621094 36.882812 22.6875 35.195312 21.480469 34.246094 Z M 21.480469 34.246094 " fill-opacity="1" fill-rule="nonzero"/><path fill="#fffbfb" d="M 28.175781 35.238281 C 28.175781 35.238281 26.300781 36.855469 26.300781 36.855469 C 26.300781 36.855469 27.8125 36.945312 29.203125 37.421875 C 28.84375 36.597656 28.492188 35.867188 28.175781 35.238281 Z M 28.175781 35.238281 " fill-opacity="1" fill-rule="nonzero"/><path fill="#dffd6e" d="M 26.761719 38.398438 C 26.761719 38.398438 26.300781 40.121094 26.300781 40.121094 C 26.300781 40.121094 26.632812 43.144531 26.632812 43.152344 C 26.867188 45.261719 27.78125 47.183594 28.367188 49.195312 C 28.789062 50.644531 29.242188 52.085938 29.683594 53.53125 C 30.390625 55.867188 31.101562 58.207031 31.808594 60.546875 C 31.820312 60.585938 31.835938 60.625 31.84375 60.664062 C 31.84375 60.664062 33.640625 64.273438 33.640625 60.664062 C 33.640625 60.664062 32.742188 49.359375 31.390625 45.5625 C 31.390625 45.5625 30.832031 43.339844 29.96875 41.644531 C 29.96875 41.644531 28.84375 39.265625 28.84375 39.265625 C 28.84375 39.265625 27.675781 38.113281 27.675781 38.113281 C 27.675781 38.113281 26.761719 38.398438 26.761719 38.398438 Z M 26.761719 38.398438 " fill-opacity="1" fill-rule="nonzero"/><g clip-path="url(#4aaab6cd1d)"><path fill="#01975c" d="M 29.164062 53.492188 C 26.394531 49.289062 21.816406 39.261719 20.421875 36.15625 C 15.863281 38.019531 12.550781 41.476562 12.550781 41.476562 C 10.949219 42.933594 11.859375 46.417969 11.859375 46.417969 C 12.847656 52.84375 11.265625 65.605469 11.265625 65.605469 C 10.476562 68.480469 11.761719 69.65625 11.761719 69.65625 C 16.011719 76.082031 25.371094 75.070312 25.371094 75.070312 C 29.195312 75.070312 28.964844 71.921875 28.964844 71.921875 C 28.964844 71.921875 28.769531 64.921875 28.769531 64.921875 C 28.769531 64.921875 29.164062 53.492188 29.164062 53.492188 Z M 29.164062 53.492188 " fill-opacity="1" fill-rule="nonzero"/></g><path fill="#fffbfb" d="M 21.179688 35.015625 C 20.285156 35.015625 20.421875 36.15625 20.421875 36.15625 C 20.882812 37.1875 21.699219 38.980469 22.679688 41.070312 C 23.550781 40.308594 25.390625 38.578125 26.300781 36.855469 C 22.375 36.855469 21.179688 35.015625 21.179688 35.015625 Z M 21.179688 35.015625 " fill-opacity="1" fill-rule="nonzero"/><path fill="#01975c" d="M 21.179688 35.015625 C 21.179688 35.015625 20.128906 34.585938 18.53125 37.046875 C 18.53125 37.046875 19.21875 40.757812 20.800781 42.339844 C 20.800781 42.339844 20.085938 43.585938 20.085938 43.585938 C 20.085938 43.585938 25.125 51.125 29.167969 53.492188 C 29.167969 53.492188 24.421875 44.832031 22.679688 41.070312 C 22.679688 41.070312 20.953125 37.390625 20.421875 36.15625 C 20.421875 36.15625 21.183594 35.015625 21.183594 35.015625 C 21.183594 35.015625 21.179688 35.015625 21.179688 35.015625 Z M 21.179688 35.015625 " fill-opacity="1" fill-rule="nonzero"/><path stroke-linecap="round" transform="matrix(0.0878042, 0, 0, 0.0878042, 23.848384, 45.269807)" fill="none" stroke-linejoin="round" d="M -60.556712 -93.650784 C -60.556712 -93.650784 -54.595294 -59.795271 -34.709073 -33.369285 C -34.709073 -33.369285 -42.850412 -19.177552 -42.850412 -19.177552 C -42.850412 -19.177552 7.955102 58.943711 60.584632 93.6445 " stroke="#000001" stroke-width="6" stroke-opacity="1" stroke-miterlimit="4"/><g clip-path="url(#eeaaf97b7e)"><path fill="#01975c" d="M 38.164062 71.476562 C 36.777344 55.59375 33.515625 38.007812 33.515625 38.007812 C 32.390625 37.023438 31.238281 36.316406 30.085938 35.835938 C 30.539062 36.558594 31.140625 37.769531 31.539062 39.539062 C 31.539062 39.539062 32.332031 39.875 32.332031 39.875 C 32.332031 39.875 34.613281 46.367188 33.074219 52.753906 C 33.074219 52.753906 33.515625 63.21875 33.515625 63.21875 C 33.515625 63.21875 33.613281 75.070312 33.613281 75.070312 C 38.855469 73.855469 38.164062 71.472656 38.164062 71.472656 C 38.164062 71.472656 38.164062 71.476562 38.164062 71.476562 Z M 38.164062 71.476562 " fill-opacity="1" fill-rule="nonzero"/></g><path fill="#01975c" d="M 32.332031 39.875 C 32.332031 39.875 31.539062 39.539062 31.539062 39.539062 C 31.140625 37.769531 30.539062 36.558594 30.085938 35.835938 C 29.027344 34.78125 28.046875 33.96875 28.046875 33.96875 C 28.046875 33.96875 28.125 35.226562 28.125 35.226562 C 29.84375 38.515625 32.359375 44.632812 33.074219 52.753906 C 34.613281 46.367188 32.332031 39.875 32.332031 39.875 Z M 32.332031 39.875 " fill-opacity="1" fill-rule="nonzero"/><path stroke-linecap="round" transform="matrix(0.0878042, 0, 0, 0.0878042, 31.847172, 44.294742)" fill="none" stroke-linejoin="round" d="M -20.058654 -96.337125 C -20.058654 -96.337125 -7.779913 -79.209171 -3.509047 -54.162319 C -3.509047 -54.162319 5.522056 -50.336335 5.522056 -50.336335 C 5.522056 -50.336335 31.50316 15.595164 13.974813 96.341231 " stroke="#000001" stroke-width="6" stroke-opacity="1" stroke-miterlimit="4"/><path stroke-linecap="round" transform="matrix(0.0878042, 0, 0, 0.0878042, 27.57216, 39.665084)" fill="none" stroke-linejoin="round" d="M -14.479702 5.193484 C -14.479702 5.193484 -3.891513 -8.286438 14.48211 -4.54943 " stroke="#000001" stroke-width="6" stroke-opacity="1" stroke-miterlimit="4"/><path stroke-linecap="round" transform="matrix(0.0878042, 0, 0, 0.0878042, 34.959568, 46.773891)" fill="none" stroke-linejoin="round" d="M -11.373377 -71.408712 C -11.373377 -71.408712 11.404577 71.398381 11.404577 71.398381 " stroke="#000001" stroke-width="6" stroke-opacity="1" stroke-miterlimit="4"/><path stroke-linecap="round" transform="matrix(0.0878042, 0, 0, 0.0878042, 25.942074, 38.962387)" fill="none" stroke-linejoin="round" d="M -37.155244 24.007117 C -37.155244 24.007117 -4.011541 -2.285404 4.085309 -23.995642 C 4.085309 -23.995642 37.140035 -17.544854 37.140035 -17.544854 " stroke="#000001" stroke-width="6" stroke-opacity="1" stroke-miterlimit="4"/><path fill="#86492a" d="M 35.871094 61.578125 C 35.871094 61.578125 36.996094 60.664062 36.996094 60.664062 C 36.996094 60.664062 39.894531 61.578125 39.894531 61.578125 C 39.894531 61.578125 44.496094 62.527344 42.101562 64.921875 C 42.101562 64.921875 43.058594 66.257812 41.332031 67.984375 C 41.332031 67.984375 41.976562 71.582031 37.5 70.476562 C 37.5 70.476562 34.992188 69.371094 34.992188 69.371094 C 34.992188 69.371094 30.695312 62.15625 30.695312 62.15625 C 30.695312 62.15625 35.871094 61.578125 35.871094 61.578125 Z M 35.871094 61.578125 " fill-opacity="1" fill-rule="nonzero"/><path stroke-linecap="round" transform="matrix(0.0878042, 0, 0, 0.0878042, 41.815754, 64.814578)" fill="none" stroke-linejoin="round" d="M 3.25507 1.222 C 3.25507 1.222 -3.240206 -1.22485 -3.240206 -1.22485 " stroke="#000001" stroke-width="6" stroke-opacity="1" stroke-miterlimit="4"/><path stroke-linecap="round" transform="matrix(0.0878042, 0, 0, 0.0878042, 40.935083, 67.792021)" fill="none" stroke-linejoin="round" d="M 4.520835 2.190715 C 4.520835 2.190715 -4.554756 -2.169128 -4.554756 -2.169128 " stroke="#000001" stroke-width="6" stroke-opacity="1" stroke-miterlimit="4"/><path fill="#dffd6e" d="M 33.953125 59.300781 C 33.953125 59.300781 36.996094 60.664062 36.996094 60.664062 C 36.996094 60.664062 37.589844 65 34.992188 69.371094 C 34.992188 69.371094 32.085938 67.429688 32.085938 67.429688 C 32.085938 67.429688 33.953125 59.300781 33.953125 59.300781 Z M 33.953125 59.300781 " fill-opacity="1" fill-rule="nonzero"/><g clip-path="url(#63fa73b05f)"><path fill="#01975c" d="M 15.074219 57.550781 C 15.074219 57.550781 11.753906 53.636719 11.007812 46.515625 C 11.007812 46.515625 10.253906 43.492188 12.550781 41.476562 C 12.550781 41.476562 17.507812 38.484375 20.101562 46.359375 C 20.101562 46.359375 22.902344 54.035156 22.902344 54.035156 C 22.902344 54.035156 17.480469 52.246094 15.074219 57.550781 Z M 15.074219 57.550781 " fill-opacity="1" fill-rule="nonzero"/></g><path fill="#01975c" d="M 17.683594 51.296875 C 17.683594 51.296875 22.902344 54.035156 22.902344 54.035156 C 22.902344 54.035156 35.328125 59.300781 35.328125 59.300781 C 35.328125 59.300781 35.832031 64.457031 33.023438 69.371094 C 33.023438 69.371094 20.691406 65.28125 15.078125 57.550781 C 15.078125 57.550781 15.078125 51.996094 15.078125 51.996094 C 15.078125 51.996094 17.683594 51.296875 17.683594 51.296875 Z M 17.683594 51.296875 " fill-opacity="1" fill-rule="nonzero"/><g clip-path="url(#3a11d8b94f)"><path stroke-linecap="round" transform="matrix(0.0878042, 0, 0, 0.0878042, 20.514459, 59.772426)" fill="none" stroke-linejoin="round" d="M -94.880028 -89.14282 C -94.880028 -89.14282 -81.756012 7.530019 94.862107 89.16585 " stroke="#000001" stroke-width="6" stroke-opacity="1" stroke-miterlimit="4"/></g><path stroke-linecap="round" transform="matrix(0.0878042, 0, 0, 0.0878042, 29.210673, 56.707532)" fill="none" stroke-linejoin="round" d="M -69.709988 -29.501377 C -62.814319 -26.609645 -55.918649 -23.673424 -49.067468 -20.781692 C -37.634003 -15.932479 -26.245026 -11.127754 -14.856049 -6.278542 C -2.176914 -0.939959 10.457732 4.443112 23.136866 9.781695 C 33.591591 14.230515 44.046316 18.679334 54.501041 23.083665 C 59.483718 25.219098 64.466396 27.310043 69.493561 29.445476 C 69.53805 29.445476 69.627026 29.489964 69.671514 29.534452 " stroke="#000001" stroke-width="6" stroke-opacity="1" stroke-miterlimit="4"/><path stroke-linecap="round" transform="matrix(0.0878042, 0, 0, 0.0878042, 18.952247, 47.374388)" fill="none" stroke-linejoin="round" d="M -44.16677 -73.532007 C -14.804564 -67.926495 2.189925 -40.922163 12.199768 -14.941059 C 23.188352 15.08847 33.198195 44.09477 44.14229 73.545953 " stroke="#000001" stroke-width="6" stroke-opacity="1" stroke-miterlimit="4"/><path stroke-linecap="round" transform="matrix(0.0878042, 0, 0, 0.0878042, 19.991585, 54.353324)" fill="none" stroke-linejoin="round" d="M 33.150567 -3.6236 C 33.150567 -3.6236 -3.952585 -15.012577 -33.181326 6.608684 " stroke="#000001" stroke-width="6" stroke-opacity="1" stroke-miterlimit="4"/><path fill="#86492a" d="M 48.039062 39.453125 C 48.039062 39.453125 48.328125 37.691406 48.328125 37.691406 C 48.328125 37.691406 48.75 35.113281 49.507812 33.351562 C 49.785156 32.710938 50.820312 31.59375 51.34375 32.496094 C 51.65625 33.039062 51.410156 34.128906 51.3125 34.714844 C 51.3125 34.714844 53.867188 31.210938 53.867188 31.210938 C 53.867188 31.210938 54.941406 29.578125 55.699219 30.335938 C 55.699219 30.335938 56.878906 30.90625 55.109375 33.210938 C 55.109375 33.210938 57.109375 30.183594 58.382812 31.460938 C 58.382812 31.460938 59.597656 32.273438 57.074219 34.796875 C 57.074219 34.796875 58.769531 33.269531 59.824219 34.324219 C 59.824219 34.324219 60.871094 35.40625 58.058594 37.492188 C 58.058594 37.492188 59.039062 36.792969 59.300781 37.695312 C 59.300781 37.695312 60.304688 39.046875 56.71875 41.417969 C 56.71875 41.417969 53.128906 43.792969 53.128906 43.792969 C 53.128906 43.792969 50.855469 43.167969 50.855469 43.167969 C 50.855469 43.167969 48.042969 39.453125 48.042969 39.453125 C 48.042969 39.453125 48.039062 39.453125 48.039062 39.453125 Z M 48.039062 39.453125 " fill-opacity="1" fill-rule="nonzero"/><path stroke-linecap="round" transform="matrix(0.0878042, 0, 0, 0.0878042, 54.569401, 33.962556)" fill="none" stroke-linejoin="round" d="M 6.149746 -8.560171 C 6.149746 -8.560171 -6.173483 8.567783 -6.173483 8.567783 " stroke="#000001" stroke-width="6" stroke-opacity="1" stroke-miterlimit="4"/><path stroke-linecap="round" transform="matrix(0.0878042, 0, 0, 0.0878042, 56.419881, 35.61503)" fill="none" stroke-linejoin="round" d="M 7.452237 -9.317951 C 7.452237 -9.317951 -7.451307 9.322601 -7.451307 9.322601 " stroke="#000001" stroke-width="6" stroke-opacity="1" stroke-miterlimit="4"/><path stroke-linecap="round" transform="matrix(0.0878042, 0, 0, 0.0878042, 57.238655, 37.978725)" fill="none" stroke-linejoin="round" d="M 9.338266 -5.541168 C 9.338266 -5.541168 -9.302286 5.536392 -9.302286 5.536392 " stroke="#000001" stroke-width="6" stroke-opacity="1" stroke-miterlimit="4"/><path fill="#dffd6e" d="M 45.890625 39.453125 C 45.890625 39.453125 48.328125 37.691406 48.328125 37.691406 C 48.328125 37.691406 50.214844 41.796875 53.125 43.792969 C 53.125 43.792969 51.160156 45.144531 51.160156 45.144531 C 51.160156 45.144531 45.890625 39.457031 45.890625 39.457031 C 45.890625 39.457031 45.890625 39.453125 45.890625 39.453125 Z M 45.890625 39.453125 " fill-opacity="1" fill-rule="nonzero"/><path fill="#01975c" d="M 37.4375 45.269531 C 37.4375 45.269531 38.113281 45.144531 38.113281 45.144531 C 38.113281 45.144531 44.472656 39.660156 46.753906 38.160156 C 46.753906 38.160156 48.722656 42.53125 52.261719 45.144531 C 52.261719 45.144531 44.429688 51.707031 41.738281 53.074219 C 38.113281 55.359375 36.214844 52.742188 35.960938 50.757812 C 35.960938 50.757812 35.960938 46.714844 35.960938 46.714844 C 36.113281 45.976562 36.695312 45.402344 37.4375 45.269531 Z M 37.4375 45.269531 " fill-opacity="1" fill-rule="nonzero"/><path stroke-linecap="round" transform="matrix(0.0878042, 0, 0, 0.0878042, 38.886168, 47.733939)" fill="none" stroke-linejoin="round" d="M -7.91262 -28.956851 C -7.91262 -28.956851 4.855491 -19.169448 7.880688 28.922286 " stroke="#000001" stroke-width="6" stroke-opacity="1" stroke-miterlimit="4"/><path fill="#fffbfb" d="M 20.5 27.507812 C 20.5 27.507812 26.707031 27.023438 26.707031 27.023438 C 28.015625 26.921875 29.160156 27.902344 29.261719 29.210938 C 29.363281 30.519531 28.382812 31.664062 27.074219 31.765625 C 27.074219 31.765625 20.867188 32.246094 20.867188 32.246094 C 19.558594 32.347656 18.414062 31.367188 18.316406 30.058594 C 18.214844 28.75 19.191406 27.605469 20.5 27.507812 Z M 20.5 27.507812 " fill-opacity="1" fill-rule="nonzero"/><path fill="#86492a" d="M 25.246094 34.941406 C 25.246094 34.941406 24.574219 34.992188 24.574219 34.992188 C 22.769531 35.132812 21.195312 33.785156 21.054688 31.980469 C 21.054688 31.980469 20.859375 29.449219 20.859375 29.449219 C 20.71875 27.644531 22.066406 26.066406 23.871094 25.929688 C 23.871094 25.929688 24.546875 25.875 24.546875 25.875 C 26.347656 25.738281 27.925781 27.085938 28.0625 28.890625 C 28.0625 28.890625 28.261719 31.421875 28.261719 31.421875 C 28.398438 33.226562 27.050781 34.800781 25.246094 34.941406 Z M 25.246094 34.941406 " fill-opacity="1" fill-rule="nonzero"/><path fill="#fffbfb" d="M 23.628906 31.699219 C 24.640625 31.96875 25.90625 32.253906 26.800781 31.453125 C 27.808594 31.003906 27.738281 31.851562 27.738281 31.851562 C 27.824219 32.960938 26.394531 33.648438 25.476562 33.753906 C 24.429688 33.871094 23.027344 33.320312 22.765625 32.238281 C 22.765625 32.238281 22.5625 31.410156 23.628906 31.699219 Z M 23.628906 31.699219 " fill-opacity="1" fill-rule="nonzero"/><path fill="#fffbfb" d="M 20.558594 30.707031 C 20.558594 30.707031 21.558594 31.066406 21.460938 29.789062 C 21.460938 29.789062 21.238281 28.183594 21.90625 27.402344 C 21.90625 27.402344 21.339844 27.445312 21.339844 27.445312 C 21.339844 27.445312 20.164062 28.765625 20.164062 28.765625 C 20.164062 28.765625 20.558594 30.710938 20.558594 30.710938 C 20.558594 30.710938 20.558594 30.707031 20.558594 30.707031 Z M 20.558594 30.707031 " fill-opacity="1" fill-rule="nonzero"/><path stroke-linecap="round" transform="matrix(0.0878042, 0, 0, 0.0878042, 24.514467, 33.569984)" fill="none" stroke-linejoin="round" d="M -41.538781 -15.077751 C -30.906103 22.247841 29.553348 24.427762 41.56516 -5.646255 " stroke="#fffbfb" stroke-width="6" stroke-opacity="1" stroke-miterlimit="4"/><path fill="#000001" d="M 23.394531 29.707031 C 23.632812 29.707031 23.824219 29.898438 23.824219 30.136719 C 23.824219 30.371094 23.632812 30.5625 23.394531 30.5625 C 23.160156 30.5625 22.96875 30.371094 22.96875 30.136719 C 22.96875 29.898438 23.160156 29.707031 23.394531 29.707031 Z M 23.394531 29.707031 " fill-opacity="1" fill-rule="nonzero"/><path fill="#000001" d="M 26.792969 29.445312 C 27.027344 29.445312 27.21875 29.636719 27.21875 29.871094 C 27.21875 30.109375 27.027344 30.300781 26.792969 30.300781 C 26.554688 30.300781 26.363281 30.109375 26.363281 29.871094 C 26.363281 29.636719 26.554688 29.445312 26.792969 29.445312 Z M 26.792969 29.445312 " fill-opacity="1" fill-rule="nonzero"/><path stroke-linecap="round" transform="matrix(0.0878042, 0, 0, 0.0878042, 26.699474, 28.505176)" fill="none" stroke-linejoin="round" d="M 8.939216 1.142232 C 8.939216 1.142232 0.0415776 -8.022335 -8.945037 2.521366 " stroke="#000001" stroke-width="4" stroke-opacity="1" stroke-miterlimit="4"/><path stroke-linecap="round" transform="matrix(0.0878042, 0, 0, 0.0878042, 23.404181, 28.760686)" fill="none" stroke-linejoin="round" d="M 8.965689 1.168449 C 8.965689 1.168449 0.0680511 -7.996118 -8.963052 2.547583 " stroke="#000001" stroke-width="4" stroke-opacity="1" stroke-miterlimit="4"/></svg>