<svg xmlns="http://www.w3.org/2000/svg" xmlns:xlink="http://www.w3.org/1999/xlink" width="150" zoomAndPan="magnify" viewBox="0 0 112.5 74.999997" height="100" preserveAspectRatio="xMidYMid meet" version="1.0"><defs><clipPath id="5ae8a740aa"><path d="M 93 3.894531 L 110 3.894531 L 110 62 L 93 62 Z M 93 3.894531 " clip-rule="nonzero"/></clipPath><clipPath id="fa481b3c47"><path d="M 90.816406 50 L 111.722656 50 L 111.722656 71.097656 L 90.816406 71.097656 Z M 90.816406 50 " clip-rule="nonzero"/></clipPath></defs><path fill="#fffbfb" d="M 28.886719 21.398438 C 28.839844 21.339844 28.765625 21.304688 28.6875 21.304688 C 28.605469 21.304688 28.535156 21.339844 28.488281 21.398438 C 28.488281 21.398438 25.875 24.285156 25.875 24.285156 C 25.875 24.285156 25.875 3.867188 25.875 3.867188 C 25.875 2.691406 26.832031 1.734375 28.007812 1.734375 C 28.007812 1.734375 44.652344 1.734375 44.652344 1.734375 C 45.824219 1.734375 46.78125 2.691406 46.78125 3.867188 C 46.78125 3.867188 46.78125 24.046875 46.78125 24.046875 C 46.78125 24.046875 44.386719 21.398438 44.386719 21.398438 C 44.335938 21.339844 44.265625 21.304688 44.1875 21.304688 C 44.105469 21.304688 44.035156 21.339844 43.984375 21.398438 C 43.984375 21.398438 40.316406 25.453125 40.316406 25.453125 C 40.316406 25.453125 36.648438 21.398438 36.648438 21.398438 C 36.601562 21.339844 36.527344 21.304688 36.449219 21.304688 C 36.371094 21.304688 36.296875 21.339844 36.25 21.398438 C 36.25 21.398438 32.566406 25.464844 32.566406 25.464844 C 32.566406 25.464844 28.886719 21.398438 28.886719 21.398438 Z M 28.886719 21.398438 " fill-opacity="1" fill-rule="nonzero"/><path fill="#01975c" d="M 44.648438 1.992188 C 45.683594 1.992188 46.523438 2.832031 46.523438 3.867188 C 46.523438 3.867188 46.523438 23.378906 46.523438 23.378906 C 46.523438 23.378906 44.578125 21.230469 44.578125 21.230469 C 44.480469 21.117188 44.335938 21.046875 44.183594 21.046875 C 44.027344 21.046875 43.882812 21.117188 43.789062 21.230469 C 43.789062 21.230469 40.316406 25.070312 40.316406 25.070312 C 40.316406 25.070312 36.839844 21.230469 36.839844 21.230469 C 36.746094 21.117188 36.601562 21.046875 36.449219 21.046875 C 36.292969 21.046875 36.148438 21.117188 36.054688 21.234375 C 36.054688 21.234375 32.566406 25.082031 32.566406 25.082031 C 32.566406 25.082031 29.082031 21.230469 29.082031 21.230469 C 28.984375 21.117188 28.839844 21.046875 28.6875 21.046875 C 28.53125 21.046875 28.386719 21.117188 28.292969 21.234375 C 28.292969 21.234375 26.132812 23.617188 26.132812 23.617188 C 26.132812 23.617188 26.132812 3.867188 26.132812 3.867188 C 26.132812 2.832031 26.972656 1.992188 28.007812 1.992188 C 28.007812 1.992188 44.652344 1.992188 44.652344 1.992188 M 44.652344 1.476562 C 44.652344 1.476562 28.007812 1.476562 28.007812 1.476562 C 26.695312 1.476562 25.621094 2.550781 25.621094 3.867188 C 25.621094 3.867188 25.621094 24.949219 25.621094 24.949219 C 25.621094 24.949219 28.6875 21.5625 28.6875 21.5625 C 28.6875 21.5625 32.515625 25.789062 32.515625 25.789062 C 32.515625 25.789062 32.625 25.789062 32.625 25.789062 C 32.625 25.789062 36.449219 21.5625 36.449219 21.5625 C 36.449219 21.5625 36.453125 21.5625 36.453125 21.5625 C 36.453125 21.5625 40.28125 25.792969 40.28125 25.792969 C 40.28125 25.792969 40.359375 25.792969 40.359375 25.792969 C 40.359375 25.792969 44.1875 21.5625 44.1875 21.5625 C 44.1875 21.5625 47.042969 24.714844 47.042969 24.714844 C 47.042969 24.714844 47.042969 3.867188 47.042969 3.867188 C 47.042969 2.550781 45.96875 1.476562 44.65625 1.476562 C 44.65625 1.476562 44.652344 1.476562 44.652344 1.476562 Z M 44.652344 1.476562 " fill-opacity="1" fill-rule="nonzero"/><path fill="#fffbfb" d="M 32.328125 10.851562 C 31.171875 10.851562 30.234375 9.910156 30.234375 8.753906 C 30.234375 7.597656 31.171875 6.65625 32.328125 6.65625 C 33.488281 6.65625 34.425781 7.597656 34.425781 8.753906 C 34.425781 9.910156 33.488281 10.851562 32.328125 10.851562 Z M 32.328125 10.851562 " fill-opacity="1" fill-rule="nonzero"/><path fill="#01975c" d="M 32.328125 6.914062 C 33.34375 6.914062 34.167969 7.738281 34.167969 8.753906 C 34.167969 9.769531 33.34375 10.59375 32.328125 10.59375 C 31.316406 10.59375 30.488281 9.769531 30.488281 8.753906 C 30.488281 7.738281 31.316406 6.914062 32.328125 6.914062 M 32.328125 6.398438 C 31.03125 6.398438 29.976562 7.453125 29.976562 8.753906 C 29.976562 10.054688 31.03125 11.109375 32.328125 11.109375 C 33.628906 11.109375 34.683594 10.054688 34.683594 8.753906 C 34.683594 7.453125 33.628906 6.398438 32.328125 6.398438 Z M 32.328125 6.398438 " fill-opacity="1" fill-rule="nonzero"/><path fill="#fffbfb" d="M 39.785156 18.578125 C 38.628906 18.578125 37.6875 17.636719 37.6875 16.480469 C 37.6875 15.324219 38.628906 14.382812 39.785156 14.382812 C 40.941406 14.382812 41.882812 15.324219 41.882812 16.480469 C 41.882812 17.636719 40.941406 18.578125 39.785156 18.578125 Z M 39.785156 18.578125 " fill-opacity="1" fill-rule="nonzero"/><path fill="#01975c" d="M 39.785156 14.640625 C 40.800781 14.640625 41.625 15.464844 41.625 16.480469 C 41.625 17.492188 40.800781 18.320312 39.785156 18.320312 C 38.769531 18.320312 37.945312 17.492188 37.945312 16.480469 C 37.945312 15.464844 38.769531 14.640625 39.785156 14.640625 M 39.785156 14.125 C 38.484375 14.125 37.429688 15.179688 37.429688 16.480469 C 37.429688 17.777344 38.484375 18.832031 39.785156 18.832031 C 41.085938 18.832031 42.140625 17.777344 42.140625 16.480469 C 42.140625 15.179688 41.085938 14.125 39.785156 14.125 Z M 39.785156 14.125 " fill-opacity="1" fill-rule="nonzero"/><path stroke-linecap="round" transform="matrix(0.0857277, 0, 0, 0.0857277, 36.41051, 11.844709)" fill="none" stroke-linejoin="round" d="M 64.60819 -59.839098 C 64.60819 -59.839098 -64.570886 59.862289 -64.570886 59.862289 " stroke="#01975c" stroke-width="6" stroke-opacity="1" stroke-miterlimit="4"/><path fill="#fffbfb" d="M 62.875 17.5625 C 60.601562 17.5625 58.753906 15.710938 58.753906 13.441406 C 58.753906 11.167969 60.605469 9.320312 62.875 9.320312 C 65.144531 9.320312 66.996094 11.171875 66.996094 13.441406 C 66.996094 15.710938 65.144531 17.5625 62.875 17.5625 Z M 62.875 17.5625 " fill-opacity="1" fill-rule="nonzero"/><path fill="#01975c" d="M 62.875 9.578125 C 65.003906 9.578125 66.738281 11.3125 66.738281 13.441406 C 66.738281 15.570312 65.003906 17.304688 62.875 17.304688 C 60.742188 17.304688 59.011719 15.570312 59.011719 13.441406 C 59.011719 11.308594 60.746094 9.578125 62.875 9.578125 M 62.875 9.066406 C 60.457031 9.0625 58.496094 11.023438 58.496094 13.441406 C 58.496094 15.855469 60.457031 17.816406 62.875 17.816406 C 65.292969 17.820312 67.25 15.859375 67.25 13.441406 C 67.253906 11.023438 65.292969 9.066406 62.875 9.066406 Z M 62.875 9.066406 " fill-opacity="1" fill-rule="nonzero"/><path stroke-linecap="round" transform="matrix(0.0857277, 0.00000791007, -0.00000791007, 0.0857277, 64.244708, 11.854267)" fill="none" stroke-linejoin="round" d="M -35.068282 13.276907 C -35.068282 13.276907 -15.974428 32.549484 -15.974428 32.549484 C -15.974428 32.549484 35.098842 -32.523208 35.098842 -32.523208 " stroke="#01975c" stroke-width="6" stroke-opacity="1" stroke-miterlimit="4"/><path fill="#020203" d="M 19.867188 26.613281 C 21.023438 26.738281 22.59375 26.414062 23.195312 25.296875 C 23.78125 24.21875 23.074219 23.070312 22.375 22.238281 C 20.449219 19.945312 17.914062 20.207031 15.9375 22.355469 C 15.898438 22.402344 15.359375 22.332031 15.289062 22.335938 C 14.789062 22.363281 14.285156 22.476562 13.84375 22.714844 C 11.011719 24.222656 12.015625 28.949219 14.3125 30.40625 C 14.3125 30.40625 16.285156 32.339844 16.285156 32.339844 C 16.285156 32.339844 18.21875 27.5 18.21875 27.5 C 18.21875 27.5 19.867188 26.613281 19.867188 26.613281 Z M 19.867188 26.613281 " fill-opacity="1" fill-rule="nonzero"/><path fill="#01975c" d="M 29.5625 34.597656 C 29.5625 34.597656 30.324219 33.601562 30.324219 33.601562 C 30.324219 33.601562 32.332031 36.585938 32.242188 41.839844 C 32.242188 41.839844 32.539062 53.070312 32.539062 53.070312 C 32.539062 53.070312 25.433594 52.246094 25.433594 52.246094 C 25.433594 52.246094 29.414062 43.238281 29.566406 34.597656 C 29.566406 34.597656 29.5625 34.597656 29.5625 34.597656 Z M 29.5625 34.597656 " fill-opacity="1" fill-rule="nonzero"/><path fill="#01975c" d="M 15.148438 37.359375 C 15.148438 37.359375 14.585938 29.878906 19.839844 28.207031 C 19.839844 28.207031 23.820312 27.742188 28.164062 35.640625 C 28.164062 35.640625 26.753906 36.976562 26.753906 36.976562 C 26.753906 36.976562 28.113281 38.488281 28.113281 38.488281 C 28.113281 38.488281 22.65625 53.125 22.65625 53.125 C 22.65625 53.125 20.382812 45.800781 15.628906 39.972656 C 15.628906 39.972656 16.417969 37.898438 16.417969 37.898438 C 16.417969 37.898438 15.148438 37.359375 15.148438 37.359375 Z M 15.148438 37.359375 " fill-opacity="1" fill-rule="nonzero"/><path fill="#01975c" d="M 30.324219 33.601562 C 28.320312 32.808594 26.429688 32.296875 24.667969 32 C 24.945312 36.628906 24.921875 46.175781 21.507812 57.304688 C 21.507812 57.304688 24.25 57.351562 24.25 57.351562 C 30.890625 43.113281 30.324219 33.601562 30.324219 33.601562 Z M 30.324219 33.601562 " fill-opacity="1" fill-rule="nonzero"/><path stroke-linecap="round" transform="matrix(0.0857146, 0.00149615, -0.00149615, 0.0857146, 21.769248, 44.998438)" fill="none" stroke-linejoin="round" d="M 56.503338 -94.574484 C 56.503338 -94.574484 72.665582 -77.219941 72.665582 -77.219941 C 72.665582 -77.219941 11.999574 94.600099 11.999574 94.600099 C -9.654085 18.506983 -72.63839 -57.366004 -72.63839 -57.366004 C -72.63839 -57.366004 -63.857766 -81.718403 -63.857766 -81.718403 " stroke="#020203" stroke-width="6" stroke-opacity="1" stroke-miterlimit="4"/><path fill="#01975c" d="M 9.050781 35.347656 C 16.539062 41.40625 8.074219 57.070312 8.074219 57.070312 C 8.074219 57.070312 21.507812 57.304688 21.507812 57.304688 C 21.941406 55.882812 22.324219 54.488281 22.65625 53.125 C 20.996094 42.570312 18.046875 35.328125 16.519531 32.085938 C 11.734375 33.050781 9.050781 35.347656 9.050781 35.347656 Z M 9.050781 35.347656 " fill-opacity="1" fill-rule="nonzero"/><path fill="#fffbfb" d="M 23.585938 37.261719 C 22.636719 35.074219 20.863281 34.703125 20.863281 34.703125 C 20.066406 35.328125 19.3125 36.765625 18.839844 37.792969 C 20.1875 41.597656 21.65625 46.757812 22.65625 53.125 C 24.347656 46.175781 24.769531 40.078125 24.773438 35.753906 C 24.148438 36.660156 23.585938 37.261719 23.585938 37.261719 Z M 23.585938 37.261719 " fill-opacity="1" fill-rule="nonzero"/><path fill="#020203" d="M 21.949219 29.515625 C 21.816406 28.898438 21.730469 28.132812 21.746094 27.199219 C 21.746094 27.199219 17.414062 27.953125 17.414062 27.953125 C 17.414062 27.953125 18.144531 29.09375 17.84375 30.339844 C 18.859375 30.796875 20.441406 31.0625 21.949219 29.515625 Z M 21.949219 29.515625 " fill-opacity="1" fill-rule="nonzero"/><path fill="#fffbfb" d="M 20.863281 34.703125 C 20.863281 34.703125 22.636719 35.074219 23.585938 37.257812 C 23.585938 37.257812 24.148438 36.660156 24.773438 35.753906 C 24.777344 34.285156 24.730469 33.023438 24.667969 32 C 21.523438 31.472656 18.785156 31.628906 16.519531 32.085938 C 17.125 33.371094 17.957031 35.289062 18.839844 37.792969 C 19.3125 36.765625 20.066406 35.328125 20.863281 34.703125 Z M 20.863281 34.703125 " fill-opacity="1" fill-rule="nonzero"/><path stroke-linecap="round" transform="matrix(0.0857146, 0.00149615, -0.00149615, 0.0857146, 26.442853, 35.942629)" fill="none" stroke-linejoin="round" d="M -6.5546 -42.966111 C -6.5546 -42.966111 9.777155 -26.343691 20.013103 -3.872701 C 20.013103 -3.872701 3.838319 11.995513 3.838319 11.995513 C 3.838319 11.995513 -20.002872 42.945408 -20.002872 42.945408 " stroke="#020203" stroke-width="6" stroke-opacity="1" stroke-miterlimit="4"/><path stroke-linecap="round" transform="matrix(0.0857146, 0.00149615, -0.00149615, 0.0857146, 28.429174, 44.358885)" fill="none" stroke-linejoin="round" d="M 18.863713 -84.086268 C 18.863713 -84.086268 16.307193 1.817426 -18.897084 84.098295 " stroke="#020203" stroke-width="6" stroke-opacity="1" stroke-miterlimit="4"/><path stroke-linecap="round" transform="matrix(0.0857146, 0.00149615, -0.00149615, 0.0857146, 21.815489, 36.282847)" fill="none" stroke-linejoin="round" d="M -34.397733 18.218439 C -34.397733 18.218439 -21.805608 -12.307239 -11.472825 -18.229765 C -11.472825 -18.229765 12.236414 -12.354572 20.848147 11.056224 C 20.848147 11.056224 34.391084 -6.771252 34.391084 -6.771252 " stroke="#020203" stroke-width="6" stroke-opacity="1" stroke-miterlimit="4"/><path fill="#f66819" d="M 21.949219 29.515625 C 20.441406 31.0625 18.859375 30.792969 17.84375 30.339844 C 17.703125 30.933594 17.324219 31.554688 16.515625 32.085938 C 16.515625 32.085938 18.160156 34.65625 20.859375 34.703125 C 20.859375 34.703125 21.988281 34.871094 23.027344 31.78125 C 23.027344 31.78125 22.3125 31.191406 21.949219 29.515625 Z M 21.949219 29.515625 " fill-opacity="1" fill-rule="nonzero"/><path stroke-linecap="round" transform="matrix(0.0857146, 0.00149615, -0.00149615, 0.0857146, 17.365917, 36.222329)" fill="none" stroke-linejoin="round" d="M -18.020687 -46.348125 C -18.020687 -46.348125 -31.766894 -16.668185 -25.631141 13.712888 C -25.631141 13.712888 -10.714765 19.741562 -10.714765 19.741562 C -10.714765 19.741562 27.210179 46.332087 27.210179 46.332087 " stroke="#020203" stroke-width="6" stroke-opacity="1" stroke-miterlimit="4"/><path fill="#f66819" d="M 20.535156 29.929688 C 20.535156 29.929688 20.046875 30.089844 20.046875 30.089844 C 18.742188 30.519531 17.335938 29.8125 16.902344 28.507812 C 16.902344 28.507812 16.296875 26.675781 16.296875 26.675781 C 15.867188 25.371094 16.574219 23.964844 17.878906 23.53125 C 17.878906 23.53125 18.367188 23.371094 18.367188 23.371094 C 19.671875 22.9375 21.078125 23.644531 21.511719 24.949219 C 21.511719 24.949219 22.117188 26.785156 22.117188 26.785156 C 22.550781 28.089844 21.839844 29.496094 20.535156 29.929688 Z M 20.535156 29.929688 " fill-opacity="1" fill-rule="nonzero"/><path fill="#fffbfb" d="M 18.6875 27.832031 C 19.484375 27.847656 20.472656 27.828125 20.984375 27.074219 C 21.644531 26.558594 21.746094 27.195312 21.746094 27.195312 C 22.011719 27.996094 21.082031 28.769531 20.425781 29.011719 C 19.675781 29.289062 18.539062 29.136719 18.148438 28.386719 C 18.148438 28.386719 17.851562 27.8125 18.6875 27.832031 Z M 18.6875 27.832031 " fill-opacity="1" fill-rule="nonzero"/><path fill="#020203" d="M 18.296875 26.398438 C 18.476562 26.402344 18.621094 26.550781 18.617188 26.730469 C 18.613281 26.910156 18.464844 27.050781 18.285156 27.046875 C 18.105469 27.046875 17.964844 26.898438 17.96875 26.71875 C 17.96875 26.539062 18.117188 26.394531 18.296875 26.398438 Z M 18.296875 26.398438 " fill-opacity="1" fill-rule="nonzero"/><path fill="#020203" d="M 20.753906 25.585938 C 20.933594 25.589844 21.078125 25.734375 21.074219 25.914062 C 21.070312 26.09375 20.921875 26.238281 20.742188 26.234375 C 20.5625 26.230469 20.421875 26.082031 20.425781 25.902344 C 20.425781 25.722656 20.574219 25.582031 20.753906 25.585938 Z M 20.753906 25.585938 " fill-opacity="1" fill-rule="nonzero"/><path stroke-linecap="round" transform="matrix(0.0857146, 0.00149615, -0.00149615, 0.0857146, 20.461886, 24.980973)" fill="none" stroke-linejoin="round" d="M 6.614184 -1.625234 C 6.614184 -1.625234 -1.952013 -6.76215 -6.612665 2.980626 " stroke="#020203" stroke-width="4" stroke-opacity="1" stroke-miterlimit="4"/><path stroke-linecap="round" transform="matrix(0.0857146, 0.00149615, -0.00149615, 0.0857146, 18.078254, 25.769336)" fill="none" stroke-linejoin="round" d="M 6.577537 -1.662008 C 6.577537 -1.662008 -1.942307 -6.75416 -6.602958 2.988616 " stroke="#020203" stroke-width="4" stroke-opacity="1" stroke-miterlimit="4"/><path fill="#020203" d="M 13.941406 28.097656 C 14.144531 29.199219 14.371094 30.261719 14.671875 31.335938 C 14.785156 31.738281 14.75 32.355469 14.335938 32.59375 C 13.855469 32.867188 13.539062 32.300781 13.066406 32.414062 C 12.296875 32.597656 12.671875 33.710938 13.042969 34.097656 C 13.816406 34.90625 15.238281 34.878906 16.207031 34.488281 C 18.511719 33.566406 18.570312 31.121094 17.753906 29.109375 C 17.753906 29.109375 15.980469 26.589844 16.699219 25.164062 C 16.699219 25.164062 21.046875 23.875 21.046875 23.875 C 21.046875 23.875 20.738281 22.683594 18.703125 22.40625 C 18.703125 22.40625 14.433594 24.992188 14.433594 24.992188 C 14.433594 24.992188 13.941406 28.097656 13.941406 28.097656 Z M 13.941406 28.097656 " fill-opacity="1" fill-rule="nonzero"/><path fill="#020203" d="M 52.472656 26.324219 C 52.472656 26.324219 49.074219 27.054688 49.941406 23.90625 C 49.941406 23.90625 50.621094 21.425781 53.476562 22.101562 C 53.476562 22.101562 55.707031 20.796875 56.941406 22.824219 C 58.320312 25.089844 58.308594 30.03125 61.648438 30.550781 C 61.648438 30.550781 56.816406 33.300781 56.816406 33.300781 C 56.816406 33.300781 52.472656 26.324219 52.472656 26.324219 Z M 52.472656 26.324219 " fill-opacity="1" fill-rule="nonzero"/><path fill="#020203" d="M 50.554688 24.652344 C 50.554688 24.652344 51.449219 31.660156 48.40625 34.808594 C 48.40625 34.808594 53.691406 34.457031 53.691406 34.457031 C 53.691406 34.457031 53.59375 28.8125 53.59375 28.8125 C 53.59375 28.8125 50.554688 24.652344 50.554688 24.652344 Z M 50.554688 24.652344 " fill-opacity="1" fill-rule="nonzero"/><path fill="#dffd6e" d="M 58.945312 29.984375 C 55.40625 32.875 53.027344 37.808594 53.027344 37.808594 C 50.742188 35.601562 49.40625 33.738281 48.734375 32.675781 C 48.394531 32.886719 48.214844 33.023438 48.214844 33.023438 C 42.363281 44.972656 48.433594 45.613281 48.433594 45.613281 C 50.054688 50.109375 48.601562 55.128906 48.601562 55.128906 C 48.601562 55.128906 63.519531 54.867188 63.519531 54.867188 C 63.519531 54.867188 63.097656 30.523438 63.097656 30.523438 C 61.636719 30.175781 60.246094 30.011719 58.945312 29.984375 Z M 58.945312 29.984375 " fill-opacity="1" fill-rule="nonzero"/><path fill="#f66819" d="M 58.945312 29.984375 C 53.8125 29.875 50.058594 31.859375 48.734375 32.675781 C 49.402344 33.738281 50.738281 35.601562 53.027344 37.808594 C 53.027344 37.808594 55.40625 32.875 58.941406 29.984375 C 58.941406 29.984375 58.945312 29.984375 58.945312 29.984375 Z M 58.945312 29.984375 " fill-opacity="1" fill-rule="nonzero"/><path fill="#020203" d="M 55.988281 28.769531 C 55.613281 28.328125 55.347656 27.730469 55.332031 26.914062 C 55.332031 26.914062 52 28.226562 52 28.226562 C 52 28.226562 52.335938 29.238281 52.398438 30.222656 C 53.316406 30.464844 54.84375 30.511719 55.988281 28.769531 Z M 55.988281 28.769531 " fill-opacity="1" fill-rule="nonzero"/><path fill="#f66819" d="M 51.867188 31.9375 C 51.867188 31.9375 58.945312 29.984375 58.945312 29.984375 C 58.945312 29.984375 57.03125 29.980469 55.988281 28.769531 C 54.84375 30.511719 53.316406 30.464844 52.398438 30.222656 C 52.445312 30.945312 52.347656 31.65625 51.867188 31.9375 Z M 51.867188 31.9375 " fill-opacity="1" fill-rule="nonzero"/><path fill="#dffd6e" d="M 48.753906 33.804688 C 48.753906 33.804688 48.214844 33.023438 48.214844 33.023438 C 48.214844 33.023438 45.480469 50.378906 45.480469 50.378906 C 45.480469 50.378906 48.558594 52.90625 48.558594 52.90625 C 48.558594 52.90625 50.527344 52.355469 48.957031 45.324219 C 48.957031 45.324219 48.753906 33.804688 48.753906 33.804688 Z M 48.753906 33.804688 " fill-opacity="1" fill-rule="nonzero"/><path stroke-linecap="round" transform="matrix(0.0857147, -0.00149271, 0.00149271, 0.0857147, 57.298057, 43.323807)" fill="none" stroke-linejoin="round" d="M -32.662274 3.674253 C -32.662274 3.674253 16.343202 23.759367 32.693701 -9.679704 " stroke="#020203" stroke-width="6" stroke-opacity="1" stroke-miterlimit="4"/><path fill="#dffd6e" d="M 63.09375 30.523438 C 63.09375 30.523438 59.929688 30.898438 60.40625 36.726562 C 60.40625 36.726562 62.351562 52.058594 62.351562 52.058594 C 62.351562 52.058594 68.46875 44.441406 68.46875 44.441406 C 68.46875 44.441406 65.671875 33.722656 65.671875 33.722656 C 65.671875 33.722656 65.183594 30.910156 63.097656 30.523438 C 63.097656 30.523438 63.09375 30.523438 63.09375 30.523438 Z M 63.09375 30.523438 " fill-opacity="1" fill-rule="nonzero"/><path stroke-linecap="round" transform="matrix(0.0857147, -0.00149271, 0.00149271, 0.0857147, 61.14366, 40.289187)" fill="none" stroke-linejoin="round" d="M 7.886418 -104.225636 C 7.886418 -104.225636 -13.934498 -96.858283 -6.228383 -26.450947 C -6.228383 -26.450947 7.856541 104.223466 7.856541 104.223466 " stroke="#020203" stroke-width="6" stroke-opacity="1" stroke-miterlimit="4"/><path fill="#f66819" d="M 52.21875 22.953125 C 52.21875 22.953125 52.726562 22.867188 52.726562 22.867188 C 54.078125 22.628906 55.367188 23.535156 55.605469 24.890625 C 55.605469 24.890625 55.9375 26.792969 55.9375 26.792969 C 56.171875 28.144531 55.265625 29.433594 53.914062 29.671875 C 53.914062 29.671875 53.40625 29.757812 53.40625 29.757812 C 52.054688 29.996094 50.765625 29.089844 50.527344 27.734375 C 50.527344 27.734375 50.195312 25.832031 50.195312 25.832031 C 49.960938 24.480469 50.867188 23.191406 52.21875 22.953125 Z M 52.21875 22.953125 " fill-opacity="1" fill-rule="nonzero"/><path fill="#fffbfb" d="M 53.992188 27.066406 C 53.296875 27.457031 52.417969 27.90625 51.609375 27.480469 C 50.78125 27.34375 50.992188 27.953125 50.992188 27.953125 C 51.136719 28.785156 52.320312 29.023438 53.015625 28.925781 C 53.8125 28.816406 54.738281 28.144531 54.726562 27.300781 C 54.726562 27.300781 54.722656 26.65625 53.992188 27.066406 Z M 53.992188 27.066406 " fill-opacity="1" fill-rule="nonzero"/><path fill="#020203" d="M 49.953125 24.488281 C 49.953125 24.488281 52.554688 22.558594 54.671875 23.984375 C 54.671875 23.984375 54.734375 25.800781 55.84375 26.265625 C 55.84375 26.265625 56.628906 25.019531 56.628906 25.019531 C 56.628906 25.019531 56.210938 23.402344 56.210938 23.402344 C 56.210938 23.402344 55.257812 22.386719 55.257812 22.386719 C 55.257812 22.386719 53.25 22.421875 53.25 22.421875 C 53.25 22.421875 50.933594 22.867188 50.933594 22.867188 C 50.933594 22.867188 50.390625 23.710938 50.390625 23.710938 C 50.390625 23.710938 49.953125 24.488281 49.953125 24.488281 Z M 49.953125 24.488281 " fill-opacity="1" fill-rule="nonzero"/><path fill="#020203" d="M 53.859375 25.550781 C 54.039062 25.546875 54.1875 25.6875 54.191406 25.867188 C 54.195312 26.046875 54.050781 26.195312 53.871094 26.199219 C 53.691406 26.203125 53.546875 26.058594 53.542969 25.878906 C 53.539062 25.699219 53.683594 25.550781 53.859375 25.550781 Z M 53.859375 25.550781 " fill-opacity="1" fill-rule="nonzero"/><path fill="#020203" d="M 51.3125 25.992188 C 51.492188 25.992188 51.640625 26.132812 51.644531 26.3125 C 51.644531 26.492188 51.503906 26.640625 51.324219 26.644531 C 51.144531 26.648438 50.996094 26.503906 50.992188 26.324219 C 50.988281 26.144531 51.132812 25.996094 51.3125 25.992188 Z M 51.3125 25.992188 " fill-opacity="1" fill-rule="nonzero"/><path stroke-linecap="round" transform="matrix(0.0857147, -0.00149271, 0.00149271, 0.0857147, 51.157894, 25.313228)" fill="none" stroke-linejoin="round" d="M -6.894122 2.241228 C -6.894122 2.241228 -1.823807 -6.283717 6.905924 0.111773 " stroke="#020203" stroke-width="4" stroke-opacity="1" stroke-miterlimit="4"/><path stroke-linecap="round" transform="matrix(0.0857147, -0.00149271, 0.00149271, 0.0857147, 53.631703, 24.880886)" fill="none" stroke-linejoin="round" d="M -6.908108 2.271958 C -6.908108 2.271958 -1.792234 -6.252194 6.892732 0.0969443 " stroke="#020203" stroke-width="4" stroke-opacity="1" stroke-miterlimit="4"/><path fill="#01975c" d="M 9.050781 35.347656 C 9.050781 35.347656 6.199219 36.640625 7.878906 42.359375 C 7.878906 42.359375 10.902344 51.945312 13.011719 54.128906 C 13.011719 54.128906 19.675781 53.398438 17.539062 47.84375 C 17.539062 47.84375 13.875 38.664062 13.875 38.664062 C 13.875 38.664062 12.75 34.945312 9.050781 35.347656 Z M 9.050781 35.347656 " fill-opacity="1" fill-rule="nonzero"/><path stroke-linecap="round" transform="matrix(0.0857146, 0.00149615, -0.00149615, 0.0857146, 14.400835, 41.684296)" fill="none" stroke-linejoin="round" d="M -37.105212 -69.405839 C -30.859671 -69.286992 -27.855632 -64.280852 -23.838729 -61.297592 C -11.836427 -47.288394 -4.85776 -31.277452 2.138402 -14.264215 C 14.157046 13.735534 25.127041 41.708015 37.095355 69.435205 " stroke="#020203" stroke-width="6" stroke-opacity="1" stroke-miterlimit="4"/><path fill="#01975c" d="M 71.8125 32.476562 C 71.8125 32.476562 69.160156 31.316406 69.160156 31.316406 C 69.019531 31.277344 68.699219 31.714844 68.65625 31.851562 C 68.082031 33.675781 64.410156 45.097656 61.105469 49.792969 C 61.105469 49.792969 66.972656 51.976562 66.972656 51.976562 C 66.972656 51.976562 72.238281 44.882812 72.601562 41.957031 C 72.601562 41.957031 74.757812 36.660156 74.757812 36.660156 C 74.890625 34.742188 73.660156 32.996094 71.8125 32.476562 Z M 71.8125 32.476562 " fill-opacity="1" fill-rule="nonzero"/><path fill="#01975c" d="M 85.792969 44.003906 C 85.792969 44.003906 86.894531 62.777344 86.894531 62.777344 C 86.894531 62.777344 74.5 58.53125 74.5 58.53125 C 74.5 58.53125 73.230469 45.222656 73.230469 45.222656 C 73.230469 45.222656 85.792969 44.003906 85.792969 44.003906 Z M 85.792969 44.003906 " fill-opacity="1" fill-rule="nonzero"/><path fill="#01975c" d="M 70.785156 28.9375 C 70.785156 28.9375 69.644531 32.171875 69.941406 33.507812 C 69.941406 33.507812 72.207031 30.75 72.207031 30.75 C 72.207031 30.75 71.785156 33.136719 72.914062 34.941406 C 72.914062 34.941406 75.101562 30.695312 78.207031 28.503906 C 78.207031 28.503906 77.5625 25.625 74.121094 26.324219 C 74.121094 26.324219 71.902344 26.429688 70.785156 28.9375 Z M 70.785156 28.9375 " fill-opacity="1" fill-rule="nonzero"/><path fill="#020203" d="M 73.90625 29.066406 C 74.394531 28.628906 74.964844 28.152344 75.574219 27.710938 C 74.511719 27.417969 73.777344 27.242188 73.777344 27.242188 C 73.777344 27.242188 72.085938 28.707031 72.085938 28.707031 C 72.074219 28.839844 72.066406 28.972656 72.058594 29.105469 C 72.515625 29.203125 73.144531 29.242188 73.902344 29.066406 C 73.902344 29.066406 73.90625 29.066406 73.90625 29.066406 Z M 73.90625 29.066406 " fill-opacity="1" fill-rule="nonzero"/><path fill="#f66819" d="M 72.058594 29.105469 C 72.027344 29.753906 72.050781 30.382812 72.210938 30.75 C 72.210938 30.75 72.886719 29.984375 73.90625 29.066406 C 73.144531 29.242188 72.515625 29.199219 72.058594 29.105469 Z M 72.058594 29.105469 " fill-opacity="1" fill-rule="nonzero"/><path fill="#01975c" d="M 75.574219 27.710938 C 73.691406 29.070312 72.210938 30.75 72.210938 30.75 C 72.015625 30.308594 72.019531 29.488281 72.085938 28.707031 C 72.085938 28.707031 69.0625 31.320312 69.0625 31.320312 C 68.84375 31.511719 68.707031 31.777344 68.675781 32.066406 C 67.832031 40.027344 74.203125 54.53125 74.203125 54.53125 C 74.203125 54.53125 82.519531 54.824219 82.519531 54.824219 C 82.519531 54.824219 83.347656 31.191406 83.347656 31.191406 C 82.566406 29.8125 78.125 28.414062 75.574219 27.710938 Z M 75.574219 27.710938 " fill-opacity="1" fill-rule="nonzero"/><path stroke-linecap="round" transform="matrix(0.0856755, 0.00299089, -0.00299089, 0.0856755, 74.013224, 31.669103)" fill="none" stroke-linejoin="round" d="M -42.707226 -16.075881 C -42.707226 -16.075881 -50.085378 7.662376 -46.719926 23.092298 C -46.719926 23.092298 -21.384641 -9.981206 -21.384641 -9.981206 C -21.384641 -9.981206 -24.856418 19.867001 -11.482026 38.595001 C -11.482026 38.595001 19.391838 -19.976284 47.602221 -38.605807 " stroke="#020203" stroke-width="6" stroke-opacity="1" stroke-miterlimit="4"/><path stroke-linecap="round" transform="matrix(0.0856755, 0.00299089, -0.00299089, 0.0856755, 70.518363, 42.486172)" fill="none" stroke-linejoin="round" d="M -24.839378 -86.32875 C -24.839378 -86.32875 -6.237737 31.200413 24.866746 86.331445 " stroke="#020203" stroke-width="6" stroke-opacity="1" stroke-miterlimit="4"/><path stroke-linecap="round" transform="matrix(0.0857277, 0, 0, 0.0857277, 45.629664, 63.063552)" fill-opacity="1" fill="#fffbfb" fill-rule="nonzero" stroke-linejoin="round" d="M -0.0088342 -118.984604 C 289.516333 -118.984604 524.225829 -65.71817 524.225829 -0.01227 C 524.225829 65.69363 289.516333 118.960064 -0.0088342 118.960064 C -289.534001 118.960064 -524.197931 65.69363 -524.197931 -0.01227 C -524.197931 -65.71817 -289.534001 -118.984604 -0.0088342 -118.984604 Z M -0.0088342 -118.984604 " stroke="#01975c" stroke-width="6" stroke-opacity="1" stroke-miterlimit="4"/><path stroke-linecap="round" transform="matrix(0.0857277, 0, 0, 0.0857277, 42.785646, 64.568501)" fill-opacity="1" fill="#fffbfb" fill-rule="nonzero" stroke-linejoin="round" d="M -177.074459 41.668286 C -177.074459 41.668286 -88.631219 -75.43585 -88.631219 -75.43585 C -88.631219 -75.43585 146.670633 -65.639201 146.670633 -65.639201 C 146.670633 -65.639201 177.063029 75.432552 177.063029 75.432552 C 177.063029 75.432552 -177.074459 41.668286 -177.074459 41.668286 Z M -177.074459 41.668286 " stroke="#020203" stroke-width="6" stroke-opacity="1" stroke-miterlimit="4"/><path stroke-linecap="round" transform="matrix(0.0857277, 0, 0, 0.0857277, 43.836668, 64.046837)" fill="none" stroke-linejoin="round" d="M 12.248685 -64.611876 C 12.248685 -64.611876 -12.265721 64.612766 -12.265721 64.612766 " stroke="#020203" stroke-width="6" stroke-opacity="1" stroke-miterlimit="4"/><path stroke-linecap="round" transform="matrix(0.0857277, 0, 0, 0.0857277, 36.328211, 66.170315)" fill="none" stroke-linejoin="round" d="M -53.950927 -4.583951 C -53.950927 -4.583951 53.948915 4.620343 53.948915 4.620343 " stroke="#020203" stroke-width="6" stroke-opacity="1" stroke-miterlimit="4"/><path stroke-linecap="round" transform="matrix(0.0857277, 0, 0, 0.0857277, 50.313819, 67.484525)" fill="none" stroke-linejoin="round" d="M -58.840853 -5.37851 C -58.840853 -5.37851 58.855639 5.375022 58.855639 5.375022 " stroke="#020203" stroke-width="6" stroke-opacity="1" stroke-miterlimit="4"/><path stroke-linecap="round" transform="matrix(0.0857277, 0, 0, 0.0857277, 50.66659, 65.09015)" fill="none" stroke-linejoin="round" d="M -50.926493 -4.651288 C -50.926493 -4.651288 50.913096 4.644137 50.913096 4.644137 " stroke="#020203" stroke-width="6" stroke-opacity="1" stroke-miterlimit="4"/><path stroke-linecap="round" transform="matrix(0.0857277, 0, 0, 0.0857277, 50.313819, 62.317716)" fill="none" stroke-linejoin="round" d="M -42.98395 -3.933942 C -42.98395 -3.933942 42.998737 3.903378 42.998737 3.903378 " stroke="#020203" stroke-width="6" stroke-opacity="1" stroke-miterlimit="4"/><path stroke-linecap="round" transform="matrix(0.0857277, 0, 0, 0.0857277, 39.556715, 60.484431)" fill="none" stroke-linejoin="round" d="M -37.661012 -2.233375 C -37.661012 -2.233375 37.659274 2.232075 37.659274 2.232075 " stroke="#020203" stroke-width="6" stroke-opacity="1" stroke-miterlimit="4"/><path fill="#fffbfb" d="M 22.820312 49.617188 C 22.820312 49.617188 25.648438 49.816406 25.648438 49.816406 C 25.648438 49.816406 24.667969 53.292969 27.488281 56.535156 C 27.488281 56.535156 24.28125 57.027344 22.3125 56.890625 C 22.3125 56.890625 20.199219 54.058594 22.820312 49.617188 Z M 22.820312 49.617188 " fill-opacity="1" fill-rule="nonzero"/><path stroke-linecap="round" transform="matrix(0.0855188, 0.00598006, -0.00598006, 0.0855188, 25.404017, 56.797105)" fill="none" stroke-linejoin="round" d="M -15.931707 3.029797 C -15.931707 3.029797 15.937856 -3.035615 15.937856 -3.035615 " stroke="#020203" stroke-width="6" stroke-opacity="1" stroke-miterlimit="4"/><path stroke-linecap="round" transform="matrix(0.0855188, 0.00598006, -0.00598006, 0.0855188, 33.673719, 49.277364)" fill-opacity="1" fill="#fffbfb" fill-rule="nonzero" stroke-linejoin="round" d="M -114.861037 -82.409 C -114.861037 -82.409 -9.552731 -82.738603 32.683419 -97.979178 C 32.683419 -97.979178 45.004183 10.281822 114.967519 71.484248 C 114.967519 71.484248 70.3635 113.611494 -30.337269 91.64823 C -30.337269 91.64823 -117.953401 -31.262813 -114.861037 -82.409 Z M -114.861037 -82.409 " stroke="#020203" stroke-width="6" stroke-opacity="1" stroke-miterlimit="4"/><path fill="#f66819" d="M 31.769531 55.320312 C 32.335938 55.09375 32.792969 54.65625 32.816406 54.011719 C 32.835938 53.527344 32.542969 52.832031 31.941406 52.996094 C 32.746094 52.777344 33.332031 51.984375 32.734375 51.183594 C 32.347656 50.671875 31.550781 50.78125 30.988281 50.78125 C 30.972656 50.78125 29.292969 50.78125 29.292969 50.78125 C 27.117188 51.214844 26.183594 49.410156 25.835938 48.40625 C 24.46875 49.71875 23.847656 51.632812 24.441406 53.429688 C 24.507812 53.632812 24.589844 53.832031 24.691406 54.03125 C 25.542969 55.75 27.394531 57.601562 29.394531 57.816406 C 30.242188 57.90625 31.386719 57.707031 32.113281 57.25 C 32.558594 56.96875 32.78125 56.699219 32.679688 56.160156 C 32.613281 55.792969 32.234375 55.132812 31.773438 55.320312 C 31.773438 55.320312 31.769531 55.320312 31.769531 55.320312 Z M 31.769531 55.320312 " fill-opacity="1" fill-rule="nonzero"/><path stroke-linecap="round" transform="matrix(0.0855188, 0.00598006, -0.00598006, 0.0855188, 31.49035, 52.96496)" fill="none" stroke-linejoin="round" d="M 5.274017 -0.00473471 C 5.274017 -0.00473471 -5.276903 0.00222418 -5.276903 0.00222418 " stroke="#020203" stroke-width="6" stroke-opacity="1" stroke-miterlimit="4"/><path stroke-linecap="round" transform="matrix(0.0855188, 0.00598006, -0.00598006, 0.0855188, 31.324393, 55.28912)" fill="none" stroke-linejoin="round" d="M 5.205209 0.000764907 C 5.205209 0.000764907 -5.209346 -0.00181174 -5.209346 -0.00181174 " stroke="#020203" stroke-width="6" stroke-opacity="1" stroke-miterlimit="4"/><path fill="#01975c" d="M 12.429688 48.5625 C 12.429688 48.5625 12.25 51.117188 12.25 51.117188 C 12.25 51.117188 12.804688 53.992188 12.804688 53.992188 C 12.804688 53.992188 15.75 57.234375 24.359375 57.835938 C 24.359375 57.835938 22.339844 53.679688 24.390625 49.398438 C 24.390625 49.398438 17.65625 47.953125 17.65625 47.953125 C 17.65625 47.953125 15.351562 47.132812 15.351562 47.132812 C 14.148438 46.707031 12.828125 47.351562 12.429688 48.5625 Z M 12.429688 48.5625 " fill-opacity="1" fill-rule="nonzero"/><path stroke-linecap="round" transform="matrix(0.0855188, 0.00598006, -0.00598006, 0.0855188, 20.991633, 48.644752)" fill="none" stroke-linejoin="round" d="M -40.15287 -6.010496 C -25.254825 -3.946228 -6.07958 -0.810737 9.91256 1.222702 C 19.918333 3.217978 29.899634 4.21007 40.119967 6.007634 " stroke="#020203" stroke-width="6" stroke-opacity="1" stroke-miterlimit="4"/><path stroke-linecap="round" transform="matrix(0.0855188, 0.00598006, -0.00598006, 0.0855188, 15.672182, 49.305222)" fill="none" stroke-linejoin="round" d="M 21.987273 -17.348023 C 21.987273 -17.348023 -8.552009 -15.121154 -21.995295 17.33608 " stroke="#020203" stroke-width="6" stroke-opacity="1" stroke-miterlimit="4"/><path stroke-linecap="round" transform="matrix(0.0855188, 0.00598006, -0.00598006, 0.0855188, 15.980734, 53.851814)" fill="none" stroke-linejoin="round" d="M -62.879556 -39.547329 C -62.879556 -39.547329 -48.295708 7.667869 -16.889004 15.886073 C -16.889004 15.886073 62.872985 39.541904 62.872985 39.541904 " stroke="#020203" stroke-width="6" stroke-opacity="1" stroke-miterlimit="4"/><path fill="#01975c" d="M 83.347656 31.1875 C 83.347656 31.1875 78.441406 30.601562 78.226562 36.710938 C 78.226562 36.710938 78.765625 48.769531 78.765625 48.769531 C 78.765625 48.769531 85.609375 53.195312 85.609375 53.195312 C 85.609375 53.195312 87.824219 50.402344 87.414062 44.777344 C 87.414062 44.777344 86.953125 34.355469 83.347656 31.191406 C 83.347656 31.191406 83.347656 31.1875 83.347656 31.1875 Z M 83.347656 31.1875 " fill-opacity="1" fill-rule="nonzero"/><path stroke-linecap="round" transform="matrix(0.0856755, 0.00299089, -0.00299089, 0.0856755, 87.172003, 45.747138)" fill="none" stroke-linejoin="round" d="M -4.979746 66.363513 C 9.113792 26.022733 9.401243 -17.985099 -5.600046 -66.33772 " stroke="#020203" stroke-width="6" stroke-opacity="1" stroke-miterlimit="4"/><path stroke-linecap="round" transform="matrix(0.0856755, 0.00299089, -0.00299089, 0.0856755, 79.637835, 39.165493)" fill="none" stroke-linejoin="round" d="M 16.841122 -90.560726 C 10.471124 -88.879359 4.441585 -87.89378 0.432746 -83.87838 C -16.548246 -64.865779 -17.545735 -39.891273 -16.571342 -15.897476 C -14.53414 11.113988 -12.531911 37.123614 -10.540246 64.136667 C -9.542412 73.129361 -9.537441 81.108062 -8.021202 90.584187 " stroke="#020203" stroke-width="6" stroke-opacity="1" stroke-miterlimit="4"/><path stroke-linecap="round" transform="matrix(0.0857277, 0, 0, 0.0857277, 48.931895, 48.075939)" fill="none" stroke-linejoin="round" d="M -4.126672 -39.115527 C -4.126672 -39.115527 8.768453 -2.389483 2.298108 39.120971 " stroke="#020203" stroke-width="6" stroke-opacity="1" stroke-miterlimit="4"/><path stroke-linecap="round" transform="matrix(0.0857277, 0, 0, 0.0857277, 51.201101, 47.847731)" fill-opacity="1" fill="#fffbfb" fill-rule="nonzero" stroke-linejoin="round" d="M -118.766466 -79.422084 C -118.766466 -79.422084 -78.212894 -52.219294 -18.248286 -79.422084 C -18.248286 -79.422084 43.949047 23.921177 118.76811 63.107775 C 118.76811 63.107775 45.77168 101.200794 -11.960204 60.920616 C -11.960204 60.920616 -110.610186 -37.000313 -118.766466 -79.422084 Z M -118.766466 -79.422084 " stroke="#020203" stroke-width="6" stroke-opacity="1" stroke-miterlimit="4"/><path fill="#f66819" d="M 52.34375 52.539062 C 52.34375 51.832031 51.773438 51.257812 51.0625 51.257812 C 50.847656 51.257812 50.644531 51.3125 50.464844 51.40625 C 50.601562 51.203125 50.683594 50.957031 50.683594 50.691406 C 50.683594 49.984375 50.109375 49.410156 49.402344 49.410156 C 49.140625 49.410156 48.898438 49.492188 48.695312 49.625 C 48.804688 49.433594 48.871094 49.214844 48.871094 48.976562 C 48.871094 47.453125 47.238281 47.632812 46.371094 48.234375 C 45.304688 48.972656 44.679688 50.066406 45.542969 51.257812 C 46.066406 51.78125 46.589844 52.300781 47.113281 52.820312 C 47.800781 53.5 48.648438 54.75 49.691406 54.757812 C 50.183594 54.761719 50.667969 54.605469 51.078125 54.339844 C 51.199219 54.257812 52.207031 53.316406 52.121094 53.261719 C 52.261719 53.054688 52.34375 52.808594 52.34375 52.539062 Z M 52.34375 52.539062 " fill-opacity="1" fill-rule="nonzero"/><path stroke-linecap="round" transform="matrix(0.0857277, 0, 0, 0.0857277, 48.449672, 49.83464)" fill="none" stroke-linejoin="round" d="M 2.865353 -2.445414 C 2.865353 -2.445414 -2.875939 2.430128 -2.875939 2.430128 " stroke="#020203" stroke-width="6" stroke-opacity="1" stroke-miterlimit="4"/><path stroke-linecap="round" transform="matrix(0.0857277, 0, 0, 0.0857277, 50.174086, 51.712081)" fill="none" stroke-linejoin="round" d="M 3.391645 -3.567471 C 3.391645 -3.567471 -3.397661 3.540795 -3.397661 3.540795 " stroke="#020203" stroke-width="6" stroke-opacity="1" stroke-miterlimit="4"/><path fill="#f66819" d="M 67.597656 50.140625 C 67.597656 50.140625 63.371094 48.199219 63.367188 48.195312 C 61.695312 47.429688 59.804688 47.230469 57.984375 47.199219 C 57.339844 47.1875 56.417969 47.105469 55.882812 47.558594 C 55.347656 48.007812 55.296875 49.179688 55.792969 49.671875 C 56.015625 49.898438 56.335938 49.972656 56.628906 50.003906 C 55.976562 50.289062 55.675781 50.882812 55.820312 51.585938 C 55.820312 51.585938 55.828125 52.644531 57.15625 52.6875 C 57.15625 52.6875 55.707031 52.964844 56.347656 54.546875 C 56.347656 54.546875 56.871094 56.394531 61.746094 56.566406 C 61.746094 56.566406 78.175781 57.140625 78.175781 57.140625 C 78.175781 57.140625 79.464844 52.089844 77.101562 49.882812 C 77.101562 49.882812 67.597656 50.140625 67.597656 50.140625 Z M 67.597656 50.140625 " fill-opacity="1" fill-rule="nonzero"/><path stroke-linecap="round" transform="matrix(0.0856755, 0.00299089, -0.00299089, 0.0856755, 57.219021, 50.005863)" fill="none" stroke-linejoin="round" d="M -6.880208 0.21735 C -6.880208 0.21735 6.873881 -0.217205 6.873881 -0.217205 " stroke="#020203" stroke-width="6" stroke-opacity="1" stroke-miterlimit="4"/><path stroke-linecap="round" transform="matrix(0.0856755, 0.00299089, -0.00299089, 0.0856755, 57.675883, 52.681847)" fill="none" stroke-linejoin="round" d="M -6.055446 0.277376 C -6.055446 0.277376 6.052913 -0.282101 6.052913 -0.282101 " stroke="#020203" stroke-width="6" stroke-opacity="1" stroke-miterlimit="4"/><path fill="#01975c" d="M 74.84375 48.632812 C 74.84375 48.632812 76.984375 50.691406 76.722656 58.136719 C 76.722656 58.136719 83.011719 58.378906 85.609375 53.195312 C 85.609375 53.195312 88.582031 41.9375 74.84375 48.632812 Z M 74.84375 48.632812 " fill-opacity="1" fill-rule="nonzero"/><path stroke-linecap="round" transform="matrix(0.0856755, 0.00299089, -0.00299089, 0.0856755, 77.085776, 48.35573)" fill="none" stroke-linejoin="round" d="M 26.015207 -18.875097 C 12.28245 -12.605309 -12.550933 -3.030016 -26.024206 4.142584 C -22.798287 9.045262 -24.677141 3.548436 -26.024206 4.142584 C -22.798287 9.045262 -19.617906 13.949529 -16.437524 18.853797 " stroke="#020203" stroke-width="6" stroke-opacity="1" stroke-miterlimit="4"/><path stroke-linecap="round" transform="matrix(0.0856755, 0.00299089, -0.00299089, 0.0856755, 82.309255, 47.721792)" fill="none" stroke-linejoin="round" d="M -39.117384 -7.560681 C -12.179248 -19.534722 24.834897 -14.534955 39.131944 13.644299 " stroke="#020203" stroke-width="6" stroke-opacity="1" stroke-miterlimit="4"/><path stroke-linecap="round" transform="matrix(0.0856755, 0.00299089, -0.00299089, 0.0856755, 81.186084, 55.760731)" fill="none" stroke-linejoin="round" d="M -51.066566 29.515132 C -29.520134 30.267544 -7.796983 25.633746 10.83153 14.633693 C 19.542945 9.496664 27.338267 2.93262 34.099956 -4.507212 C 37.526338 -8.228717 40.671544 -12.168375 43.581111 -16.327774 C 46.446729 -20.440046 49.626345 -24.70006 51.051668 -29.582735 " stroke="#020203" stroke-width="6" stroke-opacity="1" stroke-miterlimit="4"/><path fill="#020203" d="M 72.4375 24.257812 C 71.804688 24.054688 71.113281 23.730469 70.671875 23.21875 C 69.863281 22.277344 70.621094 21.082031 71.484375 20.5 C 72.429688 19.863281 73.59375 19.953125 74.617188 20.359375 C 74.617188 20.359375 76.167969 21.007812 76.167969 21.007812 C 76.167969 21.007812 79.878906 22.644531 77.558594 25.300781 C 77.558594 25.300781 77.257812 25.71875 74.65625 27.070312 C 74.65625 27.070312 72.4375 24.261719 72.4375 24.261719 C 72.4375 24.261719 72.4375 24.257812 72.4375 24.257812 Z M 72.4375 24.257812 " fill-opacity="1" fill-rule="nonzero"/><path fill="#f66819" d="M 73.148438 21.890625 C 73.148438 21.890625 73.65625 21.957031 73.65625 21.957031 C 75.019531 22.140625 75.976562 23.390625 75.792969 24.753906 C 75.792969 24.753906 75.539062 26.667969 75.539062 26.667969 C 75.355469 28.03125 74.105469 28.988281 72.742188 28.804688 C 72.742188 28.804688 72.234375 28.738281 72.234375 28.738281 C 70.871094 28.554688 69.914062 27.304688 70.097656 25.941406 C 70.097656 25.941406 70.351562 24.027344 70.351562 24.027344 C 70.535156 22.664062 71.785156 21.707031 73.148438 21.890625 Z M 73.148438 21.890625 " fill-opacity="1" fill-rule="nonzero"/><path fill="#fffbfb" d="M 73.597656 26.347656 C 72.816406 26.511719 71.84375 26.675781 71.199219 26.027344 C 70.453125 25.644531 70.472656 26.292969 70.472656 26.292969 C 70.363281 27.128906 71.417969 27.710938 72.105469 27.832031 C 72.898438 27.964844 73.984375 27.601562 74.230469 26.792969 C 74.230469 26.792969 74.417969 26.175781 73.597656 26.347656 Z M 73.597656 26.347656 " fill-opacity="1" fill-rule="nonzero"/><path fill="#020203" d="M 70.671875 23.21875 C 70.671875 23.21875 71.414062 22.105469 73.347656 22.5 C 73.347656 22.5 75.605469 22.894531 75.300781 25.222656 C 75.300781 25.222656 74.832031 25.863281 76.003906 25.738281 C 76.003906 25.738281 76.289062 23.179688 76.289062 23.179688 C 76.289062 23.179688 75.328125 21.703125 75.328125 21.703125 C 75.328125 21.703125 73.179688 21.144531 73.179688 21.144531 C 73.179688 21.144531 71.535156 21.375 71.535156 21.375 C 71.535156 21.375 70.746094 21.925781 70.746094 21.925781 C 70.746094 21.925781 70.671875 23.21875 70.671875 23.21875 Z M 70.671875 23.21875 " fill-opacity="1" fill-rule="nonzero"/><path fill="#020203" d="M 73.851562 24.851562 C 74.027344 24.855469 74.167969 25.003906 74.164062 25.183594 C 74.15625 25.363281 74.007812 25.5 73.828125 25.496094 C 73.648438 25.488281 73.507812 25.339844 73.515625 25.160156 C 73.519531 24.984375 73.671875 24.84375 73.851562 24.851562 Z M 73.851562 24.851562 " fill-opacity="1" fill-rule="nonzero"/><path fill="#020203" d="M 71.285156 24.507812 C 71.464844 24.515625 71.605469 24.664062 71.597656 24.839844 C 71.59375 25.019531 71.441406 25.160156 71.261719 25.152344 C 71.082031 25.144531 70.941406 24.996094 70.949219 24.820312 C 70.957031 24.640625 71.105469 24.5 71.285156 24.507812 Z M 71.285156 24.507812 " fill-opacity="1" fill-rule="nonzero"/><path stroke-linecap="round" transform="matrix(0.0856755, 0.00299089, -0.00299089, 0.0856755, 71.398694, 23.804663)" fill="none" stroke-linejoin="round" d="M -6.954412 0.698991 C -6.954412 0.698991 0.0964026 -6.294998 6.952751 2.037242 " stroke="#020203" stroke-width="4" stroke-opacity="1" stroke-miterlimit="4"/><path stroke-linecap="round" transform="matrix(0.0856755, 0.00299089, -0.00299089, 0.0856755, 73.887588, 24.136882)" fill="none" stroke-linejoin="round" d="M -6.961624 0.697058 C -6.961624 0.697058 0.0891907 -6.296932 6.945539 2.035308 " stroke="#020203" stroke-width="4" stroke-opacity="1" stroke-miterlimit="4"/><g clip-path="url(#5ae8a740aa)"><path fill="#01975c" d="M 109.402344 61.753906 L 109.402344 12.089844 C 109.402344 7.574219 105.742188 3.914062 101.226562 3.914062 C 96.714844 3.914062 93.054688 7.574219 93.054688 12.089844 L 93.054688 61.753906 Z M 109.402344 61.753906 " fill-opacity="1" fill-rule="nonzero"/></g><g clip-path="url(#fa481b3c47)"><path fill="#ffffff" d="M 101.226562 50.253906 C 101.910156 50.253906 102.589844 50.320312 103.257812 50.453125 C 103.929688 50.585938 104.582031 50.785156 105.210938 51.046875 C 105.84375 51.308594 106.445312 51.628906 107.011719 52.007812 C 107.582031 52.386719 108.105469 52.820312 108.589844 53.300781 C 109.074219 53.785156 109.503906 54.3125 109.886719 54.878906 C 110.265625 55.449219 110.585938 56.046875 110.847656 56.679688 C 111.109375 57.3125 111.304688 57.964844 111.441406 58.632812 C 111.574219 59.304688 111.640625 59.980469 111.640625 60.664062 C 111.640625 61.347656 111.574219 62.027344 111.441406 62.695312 C 111.304688 63.367188 111.109375 64.019531 110.847656 64.648438 C 110.585938 65.28125 110.265625 65.882812 109.886719 66.449219 C 109.503906 67.019531 109.074219 67.542969 108.589844 68.027344 C 108.105469 68.511719 107.582031 68.941406 107.011719 69.324219 C 106.445312 69.703125 105.84375 70.023438 105.210938 70.285156 C 104.582031 70.546875 103.929688 70.742188 103.257812 70.878906 C 102.589844 71.011719 101.910156 71.078125 101.226562 71.078125 C 100.542969 71.078125 99.867188 71.011719 99.195312 70.878906 C 98.527344 70.742188 97.875 70.546875 97.242188 70.285156 C 96.613281 70.023438 96.011719 69.703125 95.441406 69.324219 C 94.875 68.941406 94.347656 68.511719 93.863281 68.027344 C 93.382812 67.542969 92.949219 67.019531 92.570312 66.449219 C 92.191406 65.882812 91.871094 65.28125 91.609375 64.648438 C 91.347656 64.019531 91.148438 63.367188 91.015625 62.695312 C 90.882812 62.027344 90.816406 61.347656 90.816406 60.664062 C 90.816406 59.980469 90.882812 59.304688 91.015625 58.632812 C 91.148438 57.964844 91.347656 57.3125 91.609375 56.679688 C 91.871094 56.046875 92.191406 55.449219 92.570312 54.878906 C 92.949219 54.3125 93.382812 53.785156 93.863281 53.300781 C 94.347656 52.820312 94.875 52.386719 95.441406 52.007812 C 96.011719 51.628906 96.613281 51.308594 97.242188 51.046875 C 97.875 50.785156 98.527344 50.585938 99.195312 50.453125 C 99.867188 50.320312 100.542969 50.253906 101.226562 50.253906 Z M 101.226562 50.253906 " fill-opacity="1" fill-rule="nonzero"/></g><path fill="#01975c" d="M 110.433594 60.664062 C 110.433594 65.742188 106.304688 69.871094 101.226562 69.871094 C 96.152344 69.871094 92.019531 65.742188 92.019531 60.664062 C 92.019531 55.589844 96.152344 51.457031 101.226562 51.457031 C 106.304688 51.457031 110.433594 55.589844 110.433594 60.664062 Z M 92.28125 60.664062 C 92.28125 65.597656 96.296875 69.609375 101.226562 69.609375 C 106.160156 69.609375 110.171875 65.597656 110.171875 60.664062 C 110.171875 55.734375 106.160156 51.71875 101.226562 51.71875 C 96.296875 51.71875 92.28125 55.734375 92.28125 60.664062 Z M 92.28125 60.664062 " fill-opacity="1" fill-rule="nonzero"/><path fill="#01975c" d="M 95.71875 60.523438 C 95.730469 60.5 95.738281 60.480469 95.746094 60.457031 C 95.863281 60.027344 96.199219 59.757812 96.644531 59.757812 C 97.808594 59.753906 98.972656 59.753906 100.136719 59.757812 L 103.621094 59.757812 C 103.570312 59.703125 103.535156 59.664062 103.503906 59.628906 C 102.992188 59.117188 102.472656 58.609375 101.96875 58.09375 C 101.460938 57.574219 101.699219 56.734375 102.394531 56.566406 C 102.742188 56.484375 103.035156 56.589844 103.289062 56.839844 C 104.089844 57.648438 104.898438 58.453125 105.703125 59.257812 C 105.949219 59.503906 106.195312 59.746094 106.4375 59.992188 C 106.835938 60.398438 106.835938 60.9375 106.433594 61.339844 C 105.382812 62.394531 104.328125 63.449219 103.273438 64.5 C 103.019531 64.757812 102.714844 64.847656 102.367188 64.753906 C 102.027344 64.664062 101.808594 64.433594 101.726562 64.09375 C 101.648438 63.753906 101.742188 63.460938 101.992188 63.214844 C 102.492188 62.714844 102.996094 62.210938 103.496094 61.710938 C 103.535156 61.675781 103.578125 61.644531 103.621094 61.617188 L 103.597656 61.574219 L 103.4375 61.574219 C 101.25 61.574219 99.058594 61.5625 96.871094 61.578125 C 96.296875 61.582031 95.898438 61.398438 95.722656 60.835938 Z M 95.71875 60.523438 " fill-opacity="1" fill-rule="nonzero"/><path fill="#ffffff" d="M 105.539062 64.875 C 105.613281 64.839844 105.6875 64.8125 105.757812 64.769531 C 105.886719 64.683594 105.945312 64.554688 105.984375 64.410156 L 105.984375 64.875 Z M 105.539062 64.875 " fill-opacity="1" fill-rule="nonzero"/><path fill="#fffaf3" d="M 101.226562 43.328125 C 102.609375 43.328125 103.671875 44.355469 103.671875 45.703125 L 103.671875 47.660156 L 98.78125 47.660156 L 98.78125 45.703125 C 98.78125 44.355469 99.84375 43.328125 101.226562 43.328125 Z M 101.226562 44.40625 C 100.390625 44.40625 99.859375 44.9375 99.859375 45.703125 L 99.859375 46.542969 L 102.597656 46.542969 L 102.597656 45.703125 C 102.597656 44.933594 102.066406 44.40625 101.226562 44.40625 Z M 101.226562 44.40625 " fill-opacity="1" fill-rule="nonzero"/><path fill="#fffaf3" d="M 101.226562 42.910156 C 99.789062 42.910156 98.6875 41.773438 98.6875 40.367188 C 98.6875 38.964844 99.789062 37.828125 101.226562 37.828125 C 102.664062 37.828125 103.769531 38.964844 103.769531 40.367188 C 103.769531 41.773438 102.667969 42.910156 101.226562 42.910156 Z M 101.226562 38.941406 C 100.355469 38.941406 99.773438 39.570312 99.773438 40.367188 C 99.773438 41.164062 100.355469 41.792969 101.226562 41.792969 C 102.101562 41.792969 102.679688 41.164062 102.679688 40.367188 C 102.679688 39.570312 102.101562 38.941406 101.226562 38.941406 Z M 101.226562 38.941406 " fill-opacity="1" fill-rule="nonzero"/><path fill="#fffaf3" d="M 98.78125 37.753906 L 98.78125 36.582031 L 102.207031 35.738281 L 98.78125 34.792969 L 98.78125 33.886719 L 102.207031 32.941406 L 98.78125 32.097656 L 98.78125 30.921875 L 103.671875 32.269531 L 103.671875 33.542969 L 100.789062 34.339844 L 103.671875 35.132812 L 103.671875 36.40625 Z M 98.78125 37.753906 " fill-opacity="1" fill-rule="nonzero"/><path fill="#fffaf3" d="M 98.78125 26.59375 L 103.671875 26.59375 L 103.671875 27.429688 L 101.019531 29.316406 L 103.671875 29.316406 L 103.671875 30.433594 L 98.78125 30.433594 L 98.78125 29.597656 L 101.4375 27.710938 L 98.78125 27.710938 Z M 98.78125 26.59375 " fill-opacity="1" fill-rule="nonzero"/><path fill="#fffaf3" d="M 102.597656 22.890625 L 103.671875 22.890625 L 103.671875 25.753906 L 98.78125 25.753906 L 98.78125 24.636719 L 102.597656 24.636719 Z M 102.597656 22.890625 " fill-opacity="1" fill-rule="nonzero"/><path fill="#fffaf3" d="M 101.226562 22.890625 C 99.789062 22.890625 98.6875 21.753906 98.6875 20.347656 C 98.6875 18.945312 99.789062 17.808594 101.226562 17.808594 C 102.664062 17.808594 103.769531 18.945312 103.769531 20.347656 C 103.769531 21.753906 102.667969 22.890625 101.226562 22.890625 Z M 101.226562 18.921875 C 100.355469 18.921875 99.773438 19.550781 99.773438 20.347656 C 99.773438 21.144531 100.355469 21.773438 101.226562 21.773438 C 102.101562 21.773438 102.679688 21.144531 102.679688 20.347656 C 102.679688 19.550781 102.101562 18.921875 101.226562 18.921875 Z M 101.226562 18.921875 " fill-opacity="1" fill-rule="nonzero"/><path fill="#fffaf3" d="M 102.90625 14.488281 L 102.90625 16.304688 L 103.671875 16.546875 L 103.671875 17.769531 L 98.78125 16.109375 L 98.78125 14.683594 L 103.671875 13.019531 L 103.671875 14.242188 Z M 101.855469 14.824219 L 100.0625 15.394531 L 101.855469 15.96875 Z M 101.855469 14.824219 " fill-opacity="1" fill-rule="nonzero"/><path fill="#fffaf3" d="M 101.226562 8.269531 C 102.609375 8.269531 103.671875 9.296875 103.671875 10.644531 L 103.671875 12.601562 L 98.78125 12.601562 L 98.78125 10.644531 C 98.78125 9.296875 99.84375 8.269531 101.226562 8.269531 Z M 101.226562 9.347656 C 100.390625 9.347656 99.859375 9.878906 99.859375 10.648438 L 99.859375 11.484375 L 102.597656 11.484375 L 102.597656 10.648438 C 102.597656 9.878906 102.066406 9.347656 101.226562 9.347656 Z M 101.226562 9.347656 " fill-opacity="1" fill-rule="nonzero"/></svg>