<svg xmlns="http://www.w3.org/2000/svg" xmlns:xlink="http://www.w3.org/1999/xlink" width="150" zoomAndPan="magnify" viewBox="0 0 112.5 74.999997" height="100" preserveAspectRatio="xMidYMid meet" version="1.0"><defs><clipPath id="9673337bca"><path d="M 10.371094 52 L 101.464844 52 L 101.464844 74 L 10.371094 74 Z M 10.371094 52 " clip-rule="nonzero"/></clipPath></defs><path fill="#fffbfb" d="M 39.257812 21.402344 C 39.210938 21.339844 39.136719 21.304688 39.058594 21.304688 C 38.976562 21.304688 38.90625 21.339844 38.859375 21.398438 C 38.859375 21.398438 36.246094 24.285156 36.246094 24.285156 C 36.246094 24.285156 36.246094 3.867188 36.246094 3.867188 C 36.246094 2.691406 37.203125 1.738281 38.378906 1.738281 C 38.378906 1.738281 55.019531 1.738281 55.019531 1.738281 C 56.195312 1.738281 57.152344 2.691406 57.152344 3.867188 C 57.152344 3.867188 57.152344 24.046875 57.152344 24.046875 C 57.152344 24.046875 54.757812 21.402344 54.757812 21.402344 C 54.707031 21.339844 54.636719 21.304688 54.554688 21.304688 C 54.476562 21.304688 54.40625 21.339844 54.355469 21.398438 C 54.355469 21.398438 50.6875 25.453125 50.6875 25.453125 C 50.6875 25.453125 47.019531 21.402344 47.019531 21.402344 C 46.972656 21.339844 46.898438 21.304688 46.820312 21.304688 C 46.742188 21.304688 46.667969 21.339844 46.621094 21.398438 C 46.621094 21.398438 42.9375 25.46875 42.9375 25.46875 C 42.9375 25.46875 39.257812 21.402344 39.257812 21.402344 Z M 39.257812 21.402344 " fill-opacity="1" fill-rule="nonzero"/><path fill="#01975c" d="M 55.019531 1.992188 C 56.054688 1.992188 56.894531 2.832031 56.894531 3.867188 C 56.894531 3.867188 56.894531 23.378906 56.894531 23.378906 C 56.894531 23.378906 54.949219 21.230469 54.949219 21.230469 C 54.851562 21.117188 54.707031 21.046875 54.554688 21.046875 C 54.398438 21.046875 54.253906 21.117188 54.160156 21.234375 C 54.160156 21.234375 50.6875 25.070312 50.6875 25.070312 C 50.6875 25.070312 47.210938 21.230469 47.210938 21.230469 C 47.117188 21.117188 46.972656 21.046875 46.820312 21.046875 C 46.664062 21.046875 46.519531 21.117188 46.421875 21.234375 C 46.421875 21.234375 42.9375 25.085938 42.9375 25.085938 C 42.9375 25.085938 39.453125 21.230469 39.453125 21.230469 C 39.355469 21.117188 39.210938 21.046875 39.058594 21.046875 C 38.902344 21.046875 38.757812 21.117188 38.660156 21.234375 C 38.660156 21.234375 36.503906 23.617188 36.503906 23.617188 C 36.503906 23.617188 36.503906 3.867188 36.503906 3.867188 C 36.503906 2.832031 37.34375 1.992188 38.378906 1.992188 C 38.378906 1.992188 55.023438 1.992188 55.023438 1.992188 M 55.023438 1.480469 C 55.023438 1.480469 38.378906 1.480469 38.378906 1.480469 C 37.066406 1.480469 35.992188 2.554688 35.992188 3.867188 C 35.992188 3.867188 35.992188 24.953125 35.992188 24.953125 C 35.992188 24.953125 39.058594 21.5625 39.058594 21.5625 C 39.058594 21.5625 42.886719 25.792969 42.886719 25.792969 C 42.886719 25.792969 42.992188 25.792969 42.992188 25.792969 C 42.992188 25.792969 46.820312 21.5625 46.820312 21.5625 C 46.820312 21.5625 50.648438 25.792969 50.648438 25.792969 C 50.648438 25.792969 50.730469 25.792969 50.730469 25.792969 C 50.730469 25.792969 54.558594 21.566406 54.558594 21.566406 C 54.558594 21.566406 57.414062 24.714844 57.414062 24.714844 C 57.414062 24.714844 57.414062 3.867188 57.414062 3.867188 C 57.414062 2.554688 56.339844 1.480469 55.027344 1.480469 C 55.027344 1.480469 55.023438 1.480469 55.023438 1.480469 Z M 55.023438 1.480469 " fill-opacity="1" fill-rule="nonzero"/><path fill="#fffbfb" d="M 42.699219 10.851562 C 41.542969 10.851562 40.605469 9.914062 40.605469 8.757812 C 40.605469 7.597656 41.542969 6.660156 42.699219 6.660156 C 43.855469 6.660156 44.796875 7.597656 44.796875 8.757812 C 44.796875 9.914062 43.855469 10.851562 42.699219 10.851562 Z M 42.699219 10.851562 " fill-opacity="1" fill-rule="nonzero"/><path fill="#01975c" d="M 42.699219 6.914062 C 43.714844 6.914062 44.539062 7.742188 44.539062 8.753906 C 44.539062 9.769531 43.714844 10.59375 42.699219 10.59375 C 41.6875 10.59375 40.859375 9.769531 40.859375 8.753906 C 40.859375 7.742188 41.6875 6.914062 42.699219 6.914062 M 42.699219 6.402344 C 41.398438 6.402344 40.347656 7.457031 40.347656 8.753906 C 40.347656 10.054688 41.402344 11.109375 42.699219 11.109375 C 44 11.109375 45.054688 10.054688 45.054688 8.753906 C 45.054688 7.457031 44 6.402344 42.699219 6.402344 Z M 42.699219 6.402344 " fill-opacity="1" fill-rule="nonzero"/><path fill="#fffbfb" d="M 50.15625 18.578125 C 49 18.578125 48.058594 17.636719 48.058594 16.480469 C 48.058594 15.324219 49 14.382812 50.15625 14.382812 C 51.3125 14.382812 52.253906 15.324219 52.253906 16.480469 C 52.253906 17.636719 51.3125 18.578125 50.15625 18.578125 Z M 50.15625 18.578125 " fill-opacity="1" fill-rule="nonzero"/><path fill="#01975c" d="M 50.15625 14.640625 C 51.171875 14.640625 51.996094 15.464844 51.996094 16.480469 C 51.996094 17.496094 51.171875 18.320312 50.15625 18.320312 C 49.140625 18.320312 48.316406 17.496094 48.316406 16.480469 C 48.316406 15.464844 49.140625 14.640625 50.15625 14.640625 M 50.15625 14.125 C 48.855469 14.125 47.800781 15.179688 47.800781 16.480469 C 47.800781 17.78125 48.855469 18.835938 50.15625 18.835938 C 51.457031 18.835938 52.511719 17.78125 52.511719 16.480469 C 52.511719 15.179688 51.457031 14.125 50.15625 14.125 Z M 50.15625 14.125 " fill-opacity="1" fill-rule="nonzero"/><path stroke-linecap="round" transform="matrix(0.0857277, 0, 0, 0.0857277, 46.781085, 11.845996)" fill="none" stroke-linejoin="round" d="M 64.568686 -59.85411 C 64.568686 -59.85411 -64.610391 59.847277 -64.610391 59.847277 " stroke="#01975c" stroke-width="6" stroke-opacity="1" stroke-miterlimit="4"/><path fill="#fffbfb" d="M 73.246094 17.5625 C 70.972656 17.5625 69.125 15.714844 69.125 13.441406 C 69.125 11.171875 70.972656 9.324219 73.246094 9.324219 C 75.515625 9.324219 77.367188 11.171875 77.367188 13.441406 C 77.367188 15.710938 75.515625 17.5625 73.246094 17.5625 Z M 73.246094 17.5625 " fill-opacity="1" fill-rule="nonzero"/><path fill="#01975c" d="M 73.246094 9.578125 C 75.375 9.578125 77.109375 11.3125 77.109375 13.441406 C 77.109375 15.570312 75.375 17.304688 73.246094 17.304688 C 71.113281 17.304688 69.382812 15.570312 69.382812 13.441406 C 69.382812 11.3125 71.113281 9.578125 73.246094 9.578125 M 73.246094 9.066406 C 70.828125 9.066406 68.867188 11.023438 68.867188 13.441406 C 68.867188 15.859375 70.828125 17.820312 73.246094 17.820312 C 75.664062 17.820312 77.621094 15.859375 77.621094 13.441406 C 77.621094 11.023438 75.664062 9.066406 73.246094 9.066406 Z M 73.246094 9.066406 " fill-opacity="1" fill-rule="nonzero"/><path stroke-linecap="round" transform="matrix(0.0857277, 0, 0, 0.0857277, 74.615135, 11.854996)" fill="none" stroke-linejoin="round" d="M -35.061731 13.310733 C -35.061731 13.310733 -15.969656 32.539506 -15.969656 32.539506 C -15.969656 32.539506 35.064053 -32.528473 35.064053 -32.528473 " stroke="#01975c" stroke-width="6" stroke-opacity="1" stroke-miterlimit="4"/><path fill="#020203" d="M 30.238281 26.613281 C 31.394531 26.738281 32.964844 26.414062 33.566406 25.296875 C 34.152344 24.21875 33.445312 23.070312 32.746094 22.238281 C 30.820312 19.945312 28.285156 20.207031 26.308594 22.355469 C 26.265625 22.402344 25.730469 22.332031 25.65625 22.335938 C 25.160156 22.363281 24.65625 22.476562 24.210938 22.714844 C 21.382812 24.222656 22.386719 28.949219 24.683594 30.40625 C 24.683594 30.40625 26.65625 32.339844 26.65625 32.339844 C 26.65625 32.339844 28.589844 27.5 28.589844 27.5 C 28.589844 27.5 30.238281 26.613281 30.238281 26.613281 Z M 30.238281 26.613281 " fill-opacity="1" fill-rule="nonzero"/><path fill="#01975c" d="M 39.933594 34.597656 C 39.933594 34.597656 40.695312 33.601562 40.695312 33.601562 C 40.695312 33.601562 42.703125 36.585938 42.613281 41.839844 C 42.613281 41.839844 42.90625 53.070312 42.90625 53.070312 C 42.90625 53.070312 35.804688 52.246094 35.804688 52.246094 C 35.804688 52.246094 39.785156 43.238281 39.933594 34.597656 Z M 39.933594 34.597656 " fill-opacity="1" fill-rule="nonzero"/><path fill="#01975c" d="M 25.519531 37.359375 C 25.519531 37.359375 24.953125 29.878906 30.207031 28.207031 C 30.207031 28.207031 34.1875 27.742188 38.53125 35.640625 C 38.53125 35.640625 37.125 36.976562 37.125 36.976562 C 37.125 36.976562 38.484375 38.488281 38.484375 38.488281 C 38.484375 38.488281 33.027344 53.125 33.027344 53.125 C 33.027344 53.125 30.753906 45.800781 26 39.972656 C 26 39.972656 26.789062 37.898438 26.789062 37.898438 C 26.789062 37.898438 25.519531 37.359375 25.519531 37.359375 Z M 25.519531 37.359375 " fill-opacity="1" fill-rule="nonzero"/><path fill="#01975c" d="M 40.695312 33.601562 C 38.691406 32.808594 36.800781 32.296875 35.039062 32 C 35.316406 36.628906 35.292969 46.175781 31.878906 57.304688 C 31.878906 57.304688 34.621094 57.351562 34.621094 57.351562 C 41.261719 43.113281 40.695312 33.601562 40.695312 33.601562 Z M 40.695312 33.601562 " fill-opacity="1" fill-rule="nonzero"/><path stroke-linecap="round" transform="matrix(0.0857146, 0.00149615, -0.00149615, 0.0857146, 32.139821, 44.998438)" fill="none" stroke-linejoin="round" d="M 56.50941 -94.57459 C 56.50941 -94.57459 72.671653 -77.220047 72.671653 -77.220047 C 72.671653 -77.220047 11.960086 94.600788 11.960086 94.600788 C -9.648014 18.506877 -72.632318 -57.36611 -72.632318 -57.36611 C -72.632318 -57.36611 -63.897254 -81.717714 -63.897254 -81.717714 " stroke="#020203" stroke-width="6" stroke-opacity="1" stroke-miterlimit="4"/><path fill="#01975c" d="M 19.421875 35.347656 C 26.910156 41.40625 18.445312 57.070312 18.445312 57.070312 C 18.445312 57.070312 31.878906 57.304688 31.878906 57.304688 C 32.3125 55.882812 32.695312 54.488281 33.027344 53.125 C 31.367188 42.570312 28.417969 35.328125 26.890625 32.085938 C 22.105469 33.050781 19.421875 35.347656 19.421875 35.347656 Z M 19.421875 35.347656 " fill-opacity="1" fill-rule="nonzero"/><path fill="#fffbfb" d="M 33.957031 37.261719 C 33.007812 35.074219 31.230469 34.703125 31.230469 34.703125 C 30.4375 35.328125 29.679688 36.765625 29.210938 37.792969 C 30.554688 41.597656 32.027344 46.757812 33.027344 53.125 C 34.71875 46.175781 35.140625 40.078125 35.144531 35.753906 C 34.515625 36.660156 33.957031 37.261719 33.957031 37.261719 Z M 33.957031 37.261719 " fill-opacity="1" fill-rule="nonzero"/><path fill="#020203" d="M 32.320312 29.515625 C 32.1875 28.898438 32.101562 28.132812 32.117188 27.199219 C 32.117188 27.199219 27.785156 27.953125 27.785156 27.953125 C 27.785156 27.953125 28.511719 29.09375 28.214844 30.339844 C 29.230469 30.796875 30.8125 31.0625 32.320312 29.515625 Z M 32.320312 29.515625 " fill-opacity="1" fill-rule="nonzero"/><path fill="#fffbfb" d="M 31.230469 34.703125 C 31.230469 34.703125 33.007812 35.074219 33.957031 37.257812 C 33.957031 37.257812 34.515625 36.660156 35.144531 35.753906 C 35.148438 34.285156 35.101562 33.023438 35.039062 32 C 31.890625 31.472656 29.15625 31.628906 26.890625 32.085938 C 27.496094 33.371094 28.328125 35.289062 29.210938 37.792969 C 29.679688 36.765625 30.4375 35.328125 31.230469 34.703125 Z M 31.230469 34.703125 " fill-opacity="1" fill-rule="nonzero"/><path stroke-linecap="round" transform="matrix(0.0857146, 0.00149615, -0.00149615, 0.0857146, 36.813427, 35.942629)" fill="none" stroke-linejoin="round" d="M -6.548528 -42.966217 C -6.548528 -42.966217 9.783227 -26.343797 19.973616 -3.872012 C 19.973616 -3.872012 3.844391 11.995407 3.844391 11.995407 C 3.844391 11.995407 -19.9968 42.945302 -19.9968 42.945302 " stroke="#020203" stroke-width="6" stroke-opacity="1" stroke-miterlimit="4"/><path stroke-linecap="round" transform="matrix(0.0857146, 0.00149615, -0.00149615, 0.0857146, 38.799749, 44.358885)" fill="none" stroke-linejoin="round" d="M 18.869762 -84.086373 C 18.869762 -84.086373 16.313242 1.81732 -18.891035 84.098189 " stroke="#020203" stroke-width="6" stroke-opacity="1" stroke-miterlimit="4"/><path stroke-linecap="round" transform="matrix(0.0857146, 0.00149615, -0.00149615, 0.0857146, 32.186066, 36.282847)" fill="none" stroke-linejoin="round" d="M -34.391703 18.218334 C -34.391703 18.218334 -21.799578 -12.307344 -11.466795 -18.229871 C -11.466795 -18.229871 12.196885 -12.353882 20.854176 11.056119 C 20.854176 11.056119 34.397114 -6.771357 34.397114 -6.771357 " stroke="#020203" stroke-width="6" stroke-opacity="1" stroke-miterlimit="4"/><path fill="#f66819" d="M 32.320312 29.515625 C 30.8125 31.0625 29.230469 30.792969 28.214844 30.339844 C 28.074219 30.933594 27.695312 31.554688 26.886719 32.085938 C 26.886719 32.085938 28.527344 34.65625 31.230469 34.703125 C 31.230469 34.703125 32.359375 34.871094 33.398438 31.78125 C 33.398438 31.78125 32.683594 31.191406 32.320312 29.515625 Z M 32.320312 29.515625 " fill-opacity="1" fill-rule="nonzero"/><path stroke-linecap="round" transform="matrix(0.0857146, 0.00149615, -0.00149615, 0.0857146, 27.736492, 36.222329)" fill="none" stroke-linejoin="round" d="M -18.014635 -46.348231 C -18.014635 -46.348231 -31.760841 -16.66829 -25.625089 13.712783 C -25.625089 13.712783 -10.708713 19.741456 -10.708713 19.741456 C -10.708713 19.741456 27.216231 46.331981 27.216231 46.331981 " stroke="#020203" stroke-width="6" stroke-opacity="1" stroke-miterlimit="4"/><path fill="#f66819" d="M 30.90625 29.929688 C 30.90625 29.929688 30.417969 30.089844 30.417969 30.089844 C 29.113281 30.519531 27.707031 29.8125 27.273438 28.507812 C 27.273438 28.507812 26.667969 26.675781 26.667969 26.675781 C 26.238281 25.371094 26.945312 23.964844 28.25 23.53125 C 28.25 23.53125 28.738281 23.371094 28.738281 23.371094 C 30.042969 22.9375 31.449219 23.644531 31.882812 24.949219 C 31.882812 24.949219 32.488281 26.785156 32.488281 26.785156 C 32.917969 28.089844 32.210938 29.496094 30.90625 29.929688 Z M 30.90625 29.929688 " fill-opacity="1" fill-rule="nonzero"/><path fill="#fffbfb" d="M 29.058594 27.832031 C 29.855469 27.847656 30.839844 27.828125 31.355469 27.074219 C 32.015625 26.558594 32.117188 27.195312 32.117188 27.195312 C 32.382812 27.996094 31.453125 28.769531 30.796875 29.011719 C 30.046875 29.289062 28.910156 29.136719 28.519531 28.386719 C 28.519531 28.386719 28.21875 27.8125 29.058594 27.832031 Z M 29.058594 27.832031 " fill-opacity="1" fill-rule="nonzero"/><path fill="#020203" d="M 28.667969 26.398438 C 28.847656 26.402344 28.992188 26.550781 28.988281 26.730469 C 28.984375 26.910156 28.835938 27.050781 28.65625 27.046875 C 28.476562 27.046875 28.335938 26.898438 28.339844 26.71875 C 28.339844 26.539062 28.488281 26.394531 28.667969 26.398438 Z M 28.667969 26.398438 " fill-opacity="1" fill-rule="nonzero"/><path fill="#020203" d="M 31.125 25.585938 C 31.304688 25.589844 31.449219 25.734375 31.445312 25.914062 C 31.441406 26.09375 31.292969 26.238281 31.113281 26.234375 C 30.933594 26.230469 30.792969 26.082031 30.792969 25.902344 C 30.796875 25.722656 30.945312 25.582031 31.125 25.585938 Z M 31.125 25.585938 " fill-opacity="1" fill-rule="nonzero"/><path stroke-linecap="round" transform="matrix(0.0857146, 0.00149615, -0.00149615, 0.0857146, 30.832461, 24.980973)" fill="none" stroke-linejoin="round" d="M 6.620234 -1.625339 C 6.620234 -1.625339 -1.945964 -6.762255 -6.606615 2.980521 " stroke="#020203" stroke-width="4" stroke-opacity="1" stroke-miterlimit="4"/><path stroke-linecap="round" transform="matrix(0.0857146, 0.00149615, -0.00149615, 0.0857146, 28.448829, 25.769336)" fill="none" stroke-linejoin="round" d="M 6.583586 -1.662113 C 6.583586 -1.662113 -1.936258 -6.754266 -6.596909 2.98851 " stroke="#020203" stroke-width="4" stroke-opacity="1" stroke-miterlimit="4"/><path fill="#020203" d="M 24.3125 28.097656 C 24.515625 29.199219 24.742188 30.261719 25.042969 31.335938 C 25.15625 31.738281 25.121094 32.355469 24.707031 32.59375 C 24.226562 32.867188 23.910156 32.300781 23.4375 32.414062 C 22.667969 32.597656 23.042969 33.710938 23.414062 34.097656 C 24.1875 34.90625 25.609375 34.878906 26.578125 34.488281 C 28.882812 33.566406 28.941406 31.121094 28.125 29.109375 C 28.125 29.109375 26.351562 26.589844 27.070312 25.164062 C 27.070312 25.164062 31.417969 23.875 31.417969 23.875 C 31.417969 23.875 31.109375 22.683594 29.074219 22.40625 C 29.074219 22.40625 24.804688 24.992188 24.804688 24.992188 C 24.804688 24.992188 24.3125 28.097656 24.3125 28.097656 Z M 24.3125 28.097656 " fill-opacity="1" fill-rule="nonzero"/><path fill="#020203" d="M 62.84375 26.324219 C 62.84375 26.324219 59.441406 27.054688 60.3125 23.90625 C 60.3125 23.90625 60.992188 21.425781 63.84375 22.101562 C 63.84375 22.101562 66.074219 20.796875 67.308594 22.824219 C 68.6875 25.089844 68.675781 30.03125 72.019531 30.550781 C 72.019531 30.550781 67.183594 33.300781 67.183594 33.300781 C 67.183594 33.300781 62.84375 26.324219 62.84375 26.324219 Z M 62.84375 26.324219 " fill-opacity="1" fill-rule="nonzero"/><path fill="#020203" d="M 60.921875 24.652344 C 60.921875 24.652344 61.820312 31.660156 58.777344 34.808594 C 58.777344 34.808594 64.0625 34.457031 64.0625 34.457031 C 64.0625 34.457031 63.960938 28.8125 63.960938 28.8125 C 63.960938 28.8125 60.921875 24.652344 60.921875 24.652344 Z M 60.921875 24.652344 " fill-opacity="1" fill-rule="nonzero"/><path fill="#dffd6e" d="M 69.3125 29.984375 C 65.777344 32.875 63.398438 37.808594 63.398438 37.808594 C 61.109375 35.601562 59.773438 33.738281 59.105469 32.679688 C 58.765625 32.890625 58.585938 33.023438 58.585938 33.023438 C 52.730469 44.972656 58.804688 45.613281 58.804688 45.613281 C 60.425781 50.109375 58.96875 55.128906 58.96875 55.128906 C 58.96875 55.128906 73.890625 54.867188 73.890625 54.867188 C 73.890625 54.867188 73.464844 30.523438 73.464844 30.523438 C 72.003906 30.175781 70.617188 30.011719 69.3125 29.984375 Z M 69.3125 29.984375 " fill-opacity="1" fill-rule="nonzero"/><path fill="#f66819" d="M 69.3125 29.984375 C 64.179688 29.875 60.429688 31.859375 59.105469 32.679688 C 59.773438 33.738281 61.109375 35.601562 63.398438 37.808594 C 63.398438 37.808594 65.773438 32.875 69.3125 29.984375 Z M 69.3125 29.984375 " fill-opacity="1" fill-rule="nonzero"/><path fill="#020203" d="M 66.359375 28.769531 C 65.980469 28.328125 65.71875 27.730469 65.703125 26.914062 C 65.703125 26.914062 62.367188 28.226562 62.367188 28.226562 C 62.367188 28.226562 62.703125 29.238281 62.769531 30.222656 C 63.683594 30.464844 65.214844 30.511719 66.359375 28.769531 Z M 66.359375 28.769531 " fill-opacity="1" fill-rule="nonzero"/><path fill="#f66819" d="M 62.234375 31.9375 C 62.234375 31.9375 69.3125 29.984375 69.3125 29.984375 C 69.3125 29.984375 67.402344 29.980469 66.359375 28.769531 C 65.214844 30.511719 63.683594 30.464844 62.769531 30.222656 C 62.816406 30.945312 62.71875 31.65625 62.234375 31.9375 Z M 62.234375 31.9375 " fill-opacity="1" fill-rule="nonzero"/><path fill="#dffd6e" d="M 59.125 33.808594 C 59.125 33.808594 58.582031 33.023438 58.582031 33.023438 C 58.582031 33.023438 55.851562 50.378906 55.851562 50.378906 C 55.851562 50.378906 58.929688 52.90625 58.929688 52.90625 C 58.929688 52.90625 60.898438 52.355469 59.324219 45.324219 C 59.324219 45.324219 59.125 33.804688 59.125 33.804688 C 59.125 33.804688 59.125 33.808594 59.125 33.808594 Z M 59.125 33.808594 " fill-opacity="1" fill-rule="nonzero"/><path stroke-linecap="round" transform="matrix(0.0857146, -0.00149615, 0.00149615, 0.0857146, 67.668205, 43.323731)" fill="none" stroke-linejoin="round" d="M -32.696963 3.673231 C -32.696963 3.673231 16.353268 23.761108 32.659552 -9.678103 " stroke="#020203" stroke-width="6" stroke-opacity="1" stroke-miterlimit="4"/><path fill="#dffd6e" d="M 73.464844 30.523438 C 73.464844 30.523438 70.300781 30.898438 70.773438 36.726562 C 70.773438 36.726562 72.722656 52.058594 72.722656 52.058594 C 72.722656 52.058594 78.839844 44.441406 78.839844 44.441406 C 78.839844 44.441406 76.039062 33.722656 76.039062 33.722656 C 76.039062 33.722656 75.550781 30.910156 73.464844 30.523438 Z M 73.464844 30.523438 " fill-opacity="1" fill-rule="nonzero"/><path stroke-linecap="round" transform="matrix(0.0857146, -0.00149615, 0.00149615, 0.0857146, 71.513686, 40.288952)" fill="none" stroke-linejoin="round" d="M 7.857452 -104.223172 C 7.857452 -104.223172 -13.918203 -96.855899 -6.214913 -26.44825 C -6.214913 -26.44825 7.864766 104.226735 7.864766 104.226735 " stroke="#020203" stroke-width="6" stroke-opacity="1" stroke-miterlimit="4"/><path fill="#f66819" d="M 62.589844 22.953125 C 62.589844 22.953125 63.09375 22.867188 63.09375 22.867188 C 64.449219 22.628906 65.738281 23.535156 65.972656 24.890625 C 65.972656 24.890625 66.304688 26.792969 66.304688 26.792969 C 66.542969 28.144531 65.636719 29.433594 64.28125 29.671875 C 64.28125 29.671875 63.777344 29.757812 63.777344 29.757812 C 62.421875 29.996094 61.132812 29.089844 60.898438 27.734375 C 60.898438 27.734375 60.566406 25.832031 60.566406 25.832031 C 60.328125 24.480469 61.234375 23.191406 62.589844 22.953125 Z M 62.589844 22.953125 " fill-opacity="1" fill-rule="nonzero"/><path fill="#fffbfb" d="M 64.359375 27.066406 C 63.664062 27.457031 62.785156 27.90625 61.976562 27.480469 C 61.152344 27.34375 61.363281 27.953125 61.363281 27.953125 C 61.507812 28.785156 62.691406 29.023438 63.386719 28.925781 C 64.179688 28.816406 65.109375 28.144531 65.097656 27.300781 C 65.097656 27.300781 65.089844 26.65625 64.359375 27.066406 Z M 64.359375 27.066406 " fill-opacity="1" fill-rule="nonzero"/><path fill="#020203" d="M 60.320312 24.488281 C 60.320312 24.488281 62.925781 22.5625 65.039062 23.984375 C 65.039062 23.984375 65.105469 25.800781 66.214844 26.265625 C 66.214844 26.265625 67 25.019531 67 25.019531 C 67 25.019531 66.582031 23.402344 66.582031 23.402344 C 66.582031 23.402344 65.625 22.386719 65.625 22.386719 C 65.625 22.386719 63.621094 22.421875 63.621094 22.421875 C 63.621094 22.421875 61.300781 22.867188 61.300781 22.867188 C 61.300781 22.867188 60.757812 23.710938 60.757812 23.710938 C 60.757812 23.710938 60.320312 24.488281 60.320312 24.488281 Z M 60.320312 24.488281 " fill-opacity="1" fill-rule="nonzero"/><path fill="#020203" d="M 64.230469 25.550781 C 64.410156 25.546875 64.558594 25.6875 64.5625 25.867188 C 64.5625 26.046875 64.421875 26.195312 64.242188 26.199219 C 64.0625 26.203125 63.914062 26.058594 63.910156 25.878906 C 63.910156 25.699219 64.050781 25.550781 64.230469 25.550781 Z M 64.230469 25.550781 " fill-opacity="1" fill-rule="nonzero"/><path fill="#020203" d="M 61.679688 25.992188 C 61.859375 25.992188 62.007812 26.132812 62.011719 26.3125 C 62.015625 26.492188 61.871094 26.640625 61.691406 26.644531 C 61.511719 26.648438 61.367188 26.503906 61.363281 26.324219 C 61.359375 26.144531 61.503906 25.996094 61.679688 25.992188 Z M 61.679688 25.992188 " fill-opacity="1" fill-rule="nonzero"/><path stroke-linecap="round" transform="matrix(0.0857146, -0.00149615, 0.00149615, 0.0857146, 61.527327, 25.313399)" fill="none" stroke-linejoin="round" d="M -6.920369 2.238496 C -6.920369 2.238496 -1.804948 -6.239892 6.925322 0.11039 " stroke="#020203" stroke-width="4" stroke-opacity="1" stroke-miterlimit="4"/><path stroke-linecap="round" transform="matrix(0.0857146, -0.00149615, 0.00149615, 0.0857146, 64.001118, 24.880955)" fill="none" stroke-linejoin="round" d="M -6.888595 2.271215 C -6.888595 2.271215 -1.817938 -6.253527 6.912332 0.0967548 " stroke="#020203" stroke-width="4" stroke-opacity="1" stroke-miterlimit="4"/><path fill="#01975c" d="M 19.421875 35.347656 C 19.421875 35.347656 16.570312 36.640625 18.25 42.359375 C 18.25 42.359375 21.273438 51.945312 23.382812 54.128906 C 23.382812 54.128906 30.046875 53.398438 27.910156 47.84375 C 27.910156 47.84375 24.246094 38.664062 24.246094 38.664062 C 24.246094 38.664062 23.117188 34.945312 19.421875 35.347656 Z M 19.421875 35.347656 " fill-opacity="1" fill-rule="nonzero"/><path stroke-linecap="round" transform="matrix(0.0857146, 0.00149615, -0.00149615, 0.0857146, 24.77141, 41.684296)" fill="none" stroke-linejoin="round" d="M -37.099163 -69.405945 C -30.853621 -69.287097 -27.849583 -64.280957 -23.878239 -61.296903 C -11.875937 -47.287704 -4.851711 -31.277557 2.144451 -14.26432 C 14.163096 13.735429 25.133091 41.707909 37.101405 69.4351 " stroke="#020203" stroke-width="6" stroke-opacity="1" stroke-miterlimit="4"/><path fill="#01975c" d="M 82.183594 32.476562 C 82.183594 32.476562 79.53125 31.316406 79.53125 31.316406 C 79.390625 31.277344 79.070312 31.714844 79.027344 31.851562 C 78.453125 33.675781 74.777344 45.097656 71.476562 49.792969 C 71.476562 49.792969 77.34375 51.976562 77.34375 51.976562 C 77.34375 51.976562 82.609375 44.882812 82.972656 41.957031 C 82.972656 41.957031 85.125 36.660156 85.125 36.660156 C 85.261719 34.742188 84.03125 32.996094 82.183594 32.476562 Z M 82.183594 32.476562 " fill-opacity="1" fill-rule="nonzero"/><path fill="#01975c" d="M 96.164062 44.003906 C 96.164062 44.003906 97.265625 62.777344 97.265625 62.777344 C 97.265625 62.777344 84.871094 58.53125 84.871094 58.53125 C 84.871094 58.53125 83.601562 45.222656 83.601562 45.222656 C 83.601562 45.222656 96.164062 44.003906 96.164062 44.003906 Z M 96.164062 44.003906 " fill-opacity="1" fill-rule="nonzero"/><path fill="#01975c" d="M 81.15625 28.9375 C 81.15625 28.9375 80.015625 32.171875 80.308594 33.507812 C 80.308594 33.507812 82.578125 30.75 82.578125 30.75 C 82.578125 30.75 82.15625 33.136719 83.285156 34.941406 C 83.285156 34.941406 85.472656 30.695312 88.578125 28.503906 C 88.578125 28.503906 87.933594 25.625 84.492188 26.324219 C 84.492188 26.324219 82.273438 26.429688 81.15625 28.9375 Z M 81.15625 28.9375 " fill-opacity="1" fill-rule="nonzero"/><path fill="#020203" d="M 84.277344 29.066406 C 84.765625 28.628906 85.335938 28.152344 85.945312 27.710938 C 84.882812 27.417969 84.148438 27.242188 84.148438 27.242188 C 84.148438 27.242188 82.457031 28.707031 82.457031 28.707031 C 82.445312 28.839844 82.4375 28.972656 82.429688 29.105469 C 82.886719 29.203125 83.515625 29.242188 84.273438 29.066406 C 84.273438 29.066406 84.277344 29.066406 84.277344 29.066406 Z M 84.277344 29.066406 " fill-opacity="1" fill-rule="nonzero"/><path fill="#f66819" d="M 82.429688 29.105469 C 82.398438 29.753906 82.421875 30.382812 82.582031 30.75 C 82.582031 30.75 83.257812 29.984375 84.277344 29.066406 C 83.515625 29.242188 82.886719 29.199219 82.429688 29.105469 Z M 82.429688 29.105469 " fill-opacity="1" fill-rule="nonzero"/><path fill="#01975c" d="M 85.945312 27.710938 C 84.058594 29.070312 82.582031 30.75 82.582031 30.75 C 82.386719 30.308594 82.390625 29.488281 82.457031 28.707031 C 82.457031 28.707031 79.433594 31.320312 79.433594 31.320312 C 79.214844 31.511719 79.078125 31.777344 79.046875 32.066406 C 78.203125 40.023438 84.574219 54.53125 84.574219 54.53125 C 84.574219 54.53125 92.890625 54.824219 92.890625 54.824219 C 92.890625 54.824219 93.71875 31.191406 93.71875 31.191406 C 92.9375 29.8125 88.496094 28.414062 85.945312 27.710938 Z M 85.945312 27.710938 " fill-opacity="1" fill-rule="nonzero"/><path stroke-linecap="round" transform="matrix(0.0856754, 0.00299185, -0.00299185, 0.0856754, 84.384126, 31.669031)" fill="none" stroke-linejoin="round" d="M -42.705144 -16.074627 C -42.705144 -16.074627 -50.083028 7.66371 -46.717402 23.093592 C -46.717402 23.093592 -21.382492 -9.980192 -21.382492 -9.980192 C -21.382492 -9.980192 -24.853934 19.868049 -11.479333 38.595896 C -11.479333 38.595896 19.393868 -19.975728 47.604038 -38.605565 " stroke="#020203" stroke-width="6" stroke-opacity="1" stroke-miterlimit="4"/><path stroke-linecap="round" transform="matrix(0.0856754, 0.00299185, -0.00299185, 0.0856754, 80.889139, 42.486062)" fill="none" stroke-linejoin="round" d="M -24.836597 -86.327307 C -24.836597 -86.327307 -6.233637 31.201631 24.869872 86.286767 " stroke="#020203" stroke-width="6" stroke-opacity="1" stroke-miterlimit="4"/><path fill="#fffbfb" d="M 56 52.863281 C 80.820312 52.863281 100.941406 57.429688 100.941406 63.0625 C 100.941406 68.695312 80.820312 73.261719 56 73.261719 C 31.179688 73.261719 11.058594 68.695312 11.058594 63.0625 C 11.058594 57.429688 31.179688 52.863281 56 52.863281 Z M 56 52.863281 " fill-opacity="1" fill-rule="nonzero"/><g clip-path="url(#9673337bca)"><path stroke-linecap="round" transform="matrix(0.0857277, 0, 0, 0.0857277, 56.000237, 63.063552)" fill="none" stroke-linejoin="round" d="M -0.00275893 -118.984604 C 289.522408 -118.984604 524.231904 -65.71817 524.231904 -0.01227 C 524.231904 65.69363 289.522408 118.960064 -0.00275893 118.960064 C -289.527926 118.960064 -524.237422 65.69363 -524.237422 -0.01227 C -524.237422 -65.71817 -289.527926 -118.984604 -0.00275893 -118.984604 Z M -0.00275893 -118.984604 " stroke="#01975c" stroke-width="6" stroke-opacity="1" stroke-miterlimit="4"/></g><path stroke-linecap="round" transform="matrix(0.0857277, 0, 0, 0.0857277, 53.156219, 64.568501)" fill-opacity="1" fill="#fffbfb" fill-rule="nonzero" stroke-linejoin="round" d="M -177.068384 41.668286 C -177.068384 41.668286 -88.625143 -75.43585 -88.625143 -75.43585 C -88.625143 -75.43585 146.676708 -65.639201 146.676708 -65.639201 C 146.676708 -65.639201 177.069104 75.432552 177.069104 75.432552 C 177.069104 75.432552 -177.068384 41.668286 -177.068384 41.668286 Z M -177.068384 41.668286 " stroke="#020203" stroke-width="6" stroke-opacity="1" stroke-miterlimit="4"/><path stroke-linecap="round" transform="matrix(0.0857277, 0, 0, 0.0857277, 54.207245, 64.046837)" fill="none" stroke-linejoin="round" d="M 12.254705 -64.611876 C 12.254705 -64.611876 -12.259702 64.612766 -12.259702 64.612766 " stroke="#020203" stroke-width="6" stroke-opacity="1" stroke-miterlimit="4"/><path stroke-linecap="round" transform="matrix(0.0857277, 0, 0, 0.0857277, 46.698787, 66.170315)" fill="none" stroke-linejoin="round" d="M -53.944886 -4.583951 C -53.944886 -4.583951 53.954956 4.620343 53.954956 4.620343 " stroke="#020203" stroke-width="6" stroke-opacity="1" stroke-miterlimit="4"/><path stroke-linecap="round" transform="matrix(0.0857277, 0, 0, 0.0857277, 60.684392, 67.484525)" fill="none" stroke-linejoin="round" d="M -58.834777 -5.37851 C -58.834777 -5.37851 58.861714 5.375022 58.861714 5.375022 " stroke="#020203" stroke-width="6" stroke-opacity="1" stroke-miterlimit="4"/><path stroke-linecap="round" transform="matrix(0.0857277, 0, 0, 0.0857277, 61.037163, 65.09015)" fill="none" stroke-linejoin="round" d="M -50.920417 -4.651288 C -50.920417 -4.651288 50.919172 4.644137 50.919172 4.644137 " stroke="#020203" stroke-width="6" stroke-opacity="1" stroke-miterlimit="4"/><path stroke-linecap="round" transform="matrix(0.0857277, 0, 0, 0.0857277, 60.684392, 62.317716)" fill="none" stroke-linejoin="round" d="M -42.977875 -3.933942 C -42.977875 -3.933942 43.004812 3.903378 43.004812 3.903378 " stroke="#020203" stroke-width="6" stroke-opacity="1" stroke-miterlimit="4"/><path stroke-linecap="round" transform="matrix(0.0857277, 0, 0, 0.0857277, 49.927289, 60.484431)" fill="none" stroke-linejoin="round" d="M -37.654951 -2.233375 C -37.654951 -2.233375 37.665336 2.232075 37.665336 2.232075 " stroke="#020203" stroke-width="6" stroke-opacity="1" stroke-miterlimit="4"/><path fill="#fffbfb" d="M 33.191406 49.617188 C 33.191406 49.617188 36.015625 49.816406 36.015625 49.816406 C 36.015625 49.816406 35.039062 53.292969 37.859375 56.535156 C 37.859375 56.535156 34.652344 57.027344 32.683594 56.890625 C 32.683594 56.890625 30.570312 54.058594 33.191406 49.617188 Z M 33.191406 49.617188 " fill-opacity="1" fill-rule="nonzero"/><path stroke-linecap="round" transform="matrix(0.0855188, 0.00598006, -0.00598006, 0.0855188, 35.774592, 56.797105)" fill="none" stroke-linejoin="round" d="M -15.925671 3.029375 C -15.925671 3.029375 15.943892 -3.036037 15.943892 -3.036037 " stroke="#020203" stroke-width="6" stroke-opacity="1" stroke-miterlimit="4"/><path stroke-linecap="round" transform="matrix(0.0855188, 0.00598006, -0.00598006, 0.0855188, 44.044293, 49.277364)" fill-opacity="1" fill="#fffbfb" fill-rule="nonzero" stroke-linejoin="round" d="M -114.854987 -82.409423 C -114.854987 -82.409423 -9.546682 -82.739026 32.689468 -97.979601 C 32.689468 -97.979601 45.010232 10.281399 114.973568 71.483825 C 114.973568 71.483825 70.369549 113.611071 -30.33122 91.647807 C -30.33122 91.647807 -117.947352 -31.263236 -114.854987 -82.409423 Z M -114.854987 -82.409423 " stroke="#020203" stroke-width="6" stroke-opacity="1" stroke-miterlimit="4"/><path fill="#f66819" d="M 42.140625 55.320312 C 42.707031 55.09375 43.164062 54.65625 43.1875 54.011719 C 43.207031 53.527344 42.914062 52.832031 42.3125 52.996094 C 43.117188 52.777344 43.699219 51.984375 43.105469 51.183594 C 42.71875 50.671875 41.921875 50.78125 41.359375 50.78125 C 41.34375 50.78125 39.664062 50.78125 39.664062 50.78125 C 37.488281 51.214844 36.554688 49.410156 36.207031 48.40625 C 34.839844 49.71875 34.21875 51.632812 34.8125 53.429688 C 34.878906 53.632812 34.960938 53.832031 35.0625 54.03125 C 35.914062 55.75 37.765625 57.601562 39.765625 57.816406 C 40.613281 57.90625 41.757812 57.707031 42.484375 57.25 C 42.929688 56.96875 43.148438 56.699219 43.050781 56.160156 C 42.984375 55.792969 42.605469 55.132812 42.140625 55.320312 Z M 42.140625 55.320312 " fill-opacity="1" fill-rule="nonzero"/><path stroke-linecap="round" transform="matrix(0.0855188, 0.00598006, -0.00598006, 0.0855188, 41.860927, 52.96496)" fill="none" stroke-linejoin="round" d="M 5.28003 -0.00515519 C 5.28003 -0.00515519 -5.27089 0.00180369 -5.27089 0.00180369 " stroke="#020203" stroke-width="6" stroke-opacity="1" stroke-miterlimit="4"/><path stroke-linecap="round" transform="matrix(0.0855188, 0.00598006, -0.00598006, 0.0855188, 41.694966, 55.28912)" fill="none" stroke-linejoin="round" d="M 5.211267 0.000341312 C 5.211267 0.000341312 -5.203289 -0.00223533 -5.203289 -0.00223533 " stroke="#020203" stroke-width="6" stroke-opacity="1" stroke-miterlimit="4"/><path fill="#01975c" d="M 22.800781 48.5625 C 22.800781 48.5625 22.621094 51.117188 22.621094 51.117188 C 22.621094 51.117188 23.175781 53.992188 23.175781 53.992188 C 23.175781 53.992188 26.121094 57.234375 34.730469 57.835938 C 34.730469 57.835938 32.710938 53.679688 34.757812 49.398438 C 34.757812 49.398438 28.027344 47.953125 28.027344 47.953125 C 28.027344 47.953125 25.722656 47.132812 25.722656 47.132812 C 24.519531 46.707031 23.199219 47.351562 22.800781 48.5625 Z M 22.800781 48.5625 " fill-opacity="1" fill-rule="nonzero"/><path stroke-linecap="round" transform="matrix(0.0855188, 0.00598006, -0.00598006, 0.0855188, 31.362208, 48.644752)" fill="none" stroke-linejoin="round" d="M -40.146835 -6.010918 C -25.248789 -3.94665 -6.119 -0.807981 9.918595 1.22228 C 19.924368 3.217556 29.905669 4.209648 40.126002 6.007212 " stroke="#020203" stroke-width="6" stroke-opacity="1" stroke-miterlimit="4"/><path stroke-linecap="round" transform="matrix(0.0855188, 0.00598006, -0.00598006, 0.0855188, 26.042757, 49.305222)" fill="none" stroke-linejoin="round" d="M 21.993308 -17.348445 C 21.993308 -17.348445 -8.545974 -15.121576 -21.98926 17.335657 " stroke="#020203" stroke-width="6" stroke-opacity="1" stroke-miterlimit="4"/><path stroke-linecap="round" transform="matrix(0.0855188, 0.00598006, -0.00598006, 0.0855188, 26.351308, 53.851814)" fill="none" stroke-linejoin="round" d="M -62.873518 -39.547751 C -62.873518 -39.547751 -48.28967 7.667446 -16.882966 15.885651 C -16.882966 15.885651 62.879023 39.541482 62.879023 39.541482 " stroke="#020203" stroke-width="6" stroke-opacity="1" stroke-miterlimit="4"/><path fill="#01975c" d="M 93.71875 31.1875 C 93.71875 31.1875 88.8125 30.601562 88.597656 36.710938 C 88.597656 36.710938 89.132812 48.769531 89.132812 48.769531 C 89.132812 48.769531 95.980469 53.195312 95.980469 53.195312 C 95.980469 53.195312 98.195312 50.402344 97.785156 44.777344 C 97.785156 44.777344 97.324219 34.355469 93.71875 31.191406 C 93.71875 31.191406 93.71875 31.1875 93.71875 31.1875 Z M 93.71875 31.1875 " fill-opacity="1" fill-rule="nonzero"/><path stroke-linecap="round" transform="matrix(0.0856754, 0.00299185, -0.00299185, 0.0856754, 97.542745, 45.747215)" fill="none" stroke-linejoin="round" d="M -4.974936 66.362525 C 9.118146 26.021592 9.405102 -17.986236 -5.596729 -66.338682 " stroke="#020203" stroke-width="6" stroke-opacity="1" stroke-miterlimit="4"/><path stroke-linecap="round" transform="matrix(0.0856754, 0.00299185, -0.00299185, 0.0856754, 90.008642, 39.165486)" fill="none" stroke-linejoin="round" d="M 16.797908 -90.559346 C 10.42793 -88.877907 4.443941 -87.89385 0.435147 -83.878406 C -16.545628 -64.865616 -17.542836 -39.891103 -16.568174 -15.897321 C -14.530668 11.114116 -12.528147 37.123716 -10.536179 64.136744 C -9.538244 73.129424 -9.533183 81.108125 -8.016837 90.584232 " stroke="#020203" stroke-width="6" stroke-opacity="1" stroke-miterlimit="4"/><path stroke-linecap="round" transform="matrix(0.0857277, 0, 0, 0.0857277, 59.30247, 48.075786)" fill="none" stroke-linejoin="round" d="M -4.120624 -39.113743 C -4.120624 -39.113743 8.728935 -2.387699 2.304155 39.122755 " stroke="#020203" stroke-width="6" stroke-opacity="1" stroke-miterlimit="4"/><path stroke-linecap="round" transform="matrix(0.0857277, 0, 0, 0.0857277, 61.571674, 47.847578)" fill-opacity="1" fill="#fffbfb" fill-rule="nonzero" stroke-linejoin="round" d="M -118.760391 -79.4203 C -118.760391 -79.4203 -78.206818 -52.21751 -18.24221 -79.4203 C -18.24221 -79.4203 43.955123 23.922961 118.72862 63.109559 C 118.72862 63.109559 45.777755 101.202577 -11.999694 60.9224 C -11.999694 60.9224 -110.60411 -36.998529 -118.760391 -79.4203 Z M -118.760391 -79.4203 " stroke="#020203" stroke-width="6" stroke-opacity="1" stroke-miterlimit="4"/><path fill="#f66819" d="M 62.714844 52.539062 C 62.714844 51.832031 62.144531 51.257812 61.433594 51.257812 C 61.21875 51.257812 61.015625 51.3125 60.835938 51.40625 C 60.972656 51.203125 61.054688 50.957031 61.054688 50.691406 C 61.054688 49.984375 60.480469 49.410156 59.769531 49.410156 C 59.511719 49.410156 59.265625 49.492188 59.0625 49.625 C 59.175781 49.433594 59.242188 49.214844 59.242188 48.976562 C 59.242188 47.453125 57.609375 47.632812 56.738281 48.234375 C 55.675781 48.972656 55.050781 50.066406 55.914062 51.257812 C 56.4375 51.777344 56.960938 52.300781 57.484375 52.820312 C 58.171875 53.5 59.019531 54.75 60.0625 54.757812 C 60.554688 54.761719 61.039062 54.605469 61.449219 54.339844 C 61.570312 54.257812 62.578125 53.316406 62.492188 53.261719 C 62.632812 53.054688 62.714844 52.808594 62.714844 52.539062 Z M 62.714844 52.539062 " fill-opacity="1" fill-rule="nonzero"/><path stroke-linecap="round" transform="matrix(0.0857277, 0, 0, 0.0857277, 58.82025, 49.834491)" fill="none" stroke-linejoin="round" d="M 2.871373 -2.443686 C 2.871373 -2.443686 -2.869919 2.431856 -2.869919 2.431856 " stroke="#020203" stroke-width="6" stroke-opacity="1" stroke-miterlimit="4"/><path stroke-linecap="round" transform="matrix(0.0857277, 0, 0, 0.0857277, 60.544661, 51.711928)" fill="none" stroke-linejoin="round" d="M 3.397693 -3.565687 C 3.397693 -3.565687 -3.391613 3.542579 -3.391613 3.542579 " stroke="#020203" stroke-width="6" stroke-opacity="1" stroke-miterlimit="4"/><path fill="#f66819" d="M 77.96875 50.140625 C 77.96875 50.140625 73.742188 48.199219 73.738281 48.195312 C 72.066406 47.429688 70.175781 47.230469 68.355469 47.199219 C 67.710938 47.1875 66.789062 47.105469 66.253906 47.558594 C 65.71875 48.007812 65.667969 49.179688 66.160156 49.671875 C 66.386719 49.894531 66.707031 49.972656 67 50.003906 C 66.347656 50.285156 66.046875 50.882812 66.191406 51.585938 C 66.191406 51.585938 66.199219 52.640625 67.527344 52.6875 C 67.527344 52.6875 66.078125 52.964844 66.71875 54.546875 C 66.71875 54.546875 67.242188 56.394531 72.117188 56.566406 C 72.117188 56.566406 88.546875 57.140625 88.546875 57.140625 C 88.546875 57.140625 89.835938 52.089844 87.472656 49.882812 C 87.472656 49.882812 77.96875 50.140625 77.96875 50.140625 Z M 77.96875 50.140625 " fill-opacity="1" fill-rule="nonzero"/><path stroke-linecap="round" transform="matrix(0.0856754, 0.00299185, -0.00299185, 0.0856754, 67.589716, 50.005605)" fill="none" stroke-linejoin="round" d="M -6.875448 0.220274 C -6.875448 0.220274 6.878633 -0.214436 6.878633 -0.214436 " stroke="#020203" stroke-width="6" stroke-opacity="1" stroke-miterlimit="4"/><path stroke-linecap="round" transform="matrix(0.0856754, 0.00299185, -0.00299185, 0.0856754, 68.046546, 52.681589)" fill="none" stroke-linejoin="round" d="M -6.050324 0.280278 C -6.050324 0.280278 6.058027 -0.279336 6.058027 -0.279336 " stroke="#020203" stroke-width="6" stroke-opacity="1" stroke-miterlimit="4"/><path fill="#01975c" d="M 85.214844 48.632812 C 85.214844 48.632812 87.355469 50.691406 87.09375 58.136719 C 87.09375 58.136719 93.382812 58.378906 95.980469 53.195312 C 95.980469 53.195312 98.953125 41.9375 85.214844 48.632812 Z M 85.214844 48.632812 " fill-opacity="1" fill-rule="nonzero"/><path stroke-linecap="round" transform="matrix(0.0856754, 0.00299185, -0.00299185, 0.0856754, 87.456487, 48.35569)" fill="none" stroke-linejoin="round" d="M 26.019464 -18.875069 C 12.286779 -12.605128 -12.548083 -3.075095 -26.019684 4.143194 C -22.839248 9.047425 -24.672625 3.549031 -26.019684 4.143194 C -22.839248 9.047425 -19.613274 13.950066 -16.432838 18.854297 " stroke="#020203" stroke-width="6" stroke-opacity="1" stroke-miterlimit="4"/><path stroke-linecap="round" transform="matrix(0.0856754, 0.00299185, -0.00299185, 0.0856754, 92.679967, 47.721816)" fill="none" stroke-linejoin="round" d="M -39.113017 -7.560674 C -12.17502 -19.535016 24.839176 -14.535666 39.136538 13.643423 " stroke="#020203" stroke-width="6" stroke-opacity="1" stroke-miterlimit="4"/><path stroke-linecap="round" transform="matrix(0.0856754, 0.00299185, -0.00299185, 0.0856754, 91.556714, 55.760743)" fill="none" stroke-linejoin="round" d="M -51.060828 29.515374 C -29.559929 30.269134 -7.791295 25.633503 10.837091 14.633242 C 19.548448 9.496115 27.343694 2.931984 34.105298 -4.507922 C 37.531639 -8.229466 40.6768 -12.169158 43.586319 -16.32859 C 46.451891 -20.440893 49.631458 -24.700942 51.056726 -29.583633 " stroke="#020203" stroke-width="6" stroke-opacity="1" stroke-miterlimit="4"/><path fill="#020203" d="M 82.808594 24.257812 C 82.175781 24.054688 81.480469 23.730469 81.042969 23.21875 C 80.234375 22.277344 80.992188 21.082031 81.855469 20.5 C 82.800781 19.863281 83.964844 19.953125 84.988281 20.359375 C 84.988281 20.359375 86.539062 21.007812 86.539062 21.007812 C 86.539062 21.007812 90.25 22.644531 87.929688 25.300781 C 87.929688 25.300781 87.625 25.71875 85.027344 27.070312 C 85.027344 27.070312 82.808594 24.261719 82.808594 24.261719 C 82.808594 24.261719 82.808594 24.257812 82.808594 24.257812 Z M 82.808594 24.257812 " fill-opacity="1" fill-rule="nonzero"/><path fill="#f66819" d="M 83.519531 21.890625 C 83.519531 21.890625 84.027344 21.957031 84.027344 21.957031 C 85.390625 22.140625 86.347656 23.390625 86.164062 24.753906 C 86.164062 24.753906 85.910156 26.667969 85.910156 26.667969 C 85.726562 28.03125 84.476562 28.988281 83.113281 28.804688 C 83.113281 28.804688 82.605469 28.738281 82.605469 28.738281 C 81.242188 28.554688 80.285156 27.304688 80.46875 25.941406 C 80.46875 25.941406 80.722656 24.027344 80.722656 24.027344 C 80.90625 22.664062 82.15625 21.707031 83.519531 21.890625 Z M 83.519531 21.890625 " fill-opacity="1" fill-rule="nonzero"/><path fill="#fffbfb" d="M 83.96875 26.347656 C 83.1875 26.511719 82.214844 26.675781 81.570312 26.027344 C 80.824219 25.644531 80.84375 26.292969 80.84375 26.292969 C 80.730469 27.128906 81.789062 27.710938 82.476562 27.832031 C 83.269531 27.964844 84.355469 27.601562 84.601562 26.792969 C 84.601562 26.792969 84.789062 26.175781 83.96875 26.347656 Z M 83.96875 26.347656 " fill-opacity="1" fill-rule="nonzero"/><path fill="#020203" d="M 81.042969 23.21875 C 81.042969 23.21875 81.785156 22.105469 83.71875 22.5 C 83.71875 22.5 85.976562 22.894531 85.671875 25.222656 C 85.671875 25.222656 85.203125 25.863281 86.375 25.738281 C 86.375 25.738281 86.660156 23.179688 86.660156 23.179688 C 86.660156 23.179688 85.695312 21.703125 85.695312 21.703125 C 85.695312 21.703125 83.550781 21.144531 83.550781 21.144531 C 83.550781 21.144531 81.90625 21.375 81.90625 21.375 C 81.90625 21.375 81.117188 21.925781 81.117188 21.925781 C 81.117188 21.925781 81.042969 23.21875 81.042969 23.21875 Z M 81.042969 23.21875 " fill-opacity="1" fill-rule="nonzero"/><path fill="#020203" d="M 84.222656 24.847656 C 84.398438 24.855469 84.539062 25.003906 84.535156 25.183594 C 84.527344 25.363281 84.378906 25.503906 84.199219 25.496094 C 84.019531 25.492188 83.878906 25.339844 83.886719 25.160156 C 83.890625 24.980469 84.042969 24.839844 84.222656 24.847656 Z M 84.222656 24.847656 " fill-opacity="1" fill-rule="nonzero"/><path fill="#020203" d="M 81.65625 24.503906 C 81.835938 24.511719 81.976562 24.660156 81.96875 24.839844 C 81.964844 25.019531 81.8125 25.160156 81.632812 25.15625 C 81.453125 25.148438 81.3125 24.996094 81.320312 24.820312 C 81.328125 24.640625 81.476562 24.5 81.65625 24.503906 Z M 81.65625 24.503906 " fill-opacity="1" fill-rule="nonzero"/><path stroke-linecap="round" transform="matrix(0.0856754, 0.00299185, -0.00299185, 0.0856754, 81.769736, 23.803072)" fill="none" stroke-linejoin="round" d="M -6.954734 0.672061 C -6.954734 0.672061 0.0975917 -6.276468 6.954033 2.055693 " stroke="#020203" stroke-width="4" stroke-opacity="1" stroke-miterlimit="4"/><path stroke-linecap="round" transform="matrix(0.0856754, 0.00299185, -0.00299185, 0.0856754, 84.258612, 24.135318)" fill="none" stroke-linejoin="round" d="M -6.961762 0.669803 C -6.961762 0.669803 0.0905636 -6.278726 6.947005 2.053435 " stroke="#020203" stroke-width="4" stroke-opacity="1" stroke-miterlimit="4"/></svg>