<svg xmlns="http://www.w3.org/2000/svg" xmlns:xlink="http://www.w3.org/1999/xlink" width="150" zoomAndPan="magnify" viewBox="0 0 112.5 74.999997" height="100" preserveAspectRatio="xMidYMid meet" version="1.0"><defs><clipPath id="c180c79739"><path d="M 0 20.140625 L 35 20.140625 L 35 55 L 0 55 Z M 0 20.140625 " clip-rule="nonzero"/></clipPath></defs><path fill="#01975c" d="M 15.5625 51.125 L 98.363281 51.125 C 105.886719 51.125 111.988281 45.023438 111.988281 37.5 C 111.988281 29.976562 105.886719 23.875 98.363281 23.875 L 15.5625 23.875 Z M 15.5625 51.125 " fill-opacity="1" fill-rule="nonzero"/><g clip-path="url(#c180c79739)"><path fill="#ffffff" d="M 34.734375 37.5 C 34.734375 38.070312 34.707031 38.636719 34.648438 39.203125 C 34.59375 39.765625 34.511719 40.328125 34.398438 40.886719 C 34.289062 41.445312 34.152344 41.996094 33.984375 42.539062 C 33.820312 43.082031 33.628906 43.617188 33.410156 44.144531 C 33.195312 44.667969 32.953125 45.183594 32.683594 45.683594 C 32.414062 46.183594 32.125 46.671875 31.808594 47.144531 C 31.492188 47.617188 31.152344 48.074219 30.792969 48.511719 C 30.433594 48.953125 30.050781 49.371094 29.648438 49.773438 C 29.246094 50.175781 28.824219 50.558594 28.386719 50.917969 C 27.945312 51.28125 27.492188 51.617188 27.019531 51.933594 C 26.546875 52.25 26.058594 52.542969 25.558594 52.808594 C 25.054688 53.078125 24.542969 53.320312 24.015625 53.539062 C 23.492188 53.753906 22.957031 53.945312 22.414062 54.113281 C 21.867188 54.277344 21.316406 54.414062 20.761719 54.527344 C 20.203125 54.636719 19.640625 54.71875 19.074219 54.777344 C 18.507812 54.832031 17.941406 54.859375 17.375 54.859375 C 16.804688 54.859375 16.238281 54.832031 15.671875 54.777344 C 15.105469 54.71875 14.542969 54.636719 13.988281 54.527344 C 13.429688 54.414062 12.878906 54.277344 12.335938 54.113281 C 11.789062 53.945312 11.257812 53.753906 10.730469 53.539062 C 10.207031 53.320312 9.691406 53.078125 9.191406 52.808594 C 8.6875 52.542969 8.203125 52.25 7.730469 51.933594 C 7.257812 51.617188 6.800781 51.28125 6.359375 50.917969 C 5.921875 50.558594 5.5 50.175781 5.097656 49.773438 C 4.695312 49.371094 4.316406 48.953125 3.953125 48.511719 C 3.59375 48.074219 3.253906 47.617188 2.941406 47.144531 C 2.625 46.671875 2.332031 46.183594 2.0625 45.683594 C 1.796875 45.183594 1.554688 44.667969 1.335938 44.144531 C 1.117188 43.617188 0.925781 43.082031 0.761719 42.539062 C 0.597656 41.996094 0.457031 41.445312 0.347656 40.886719 C 0.238281 40.328125 0.152344 39.765625 0.0976562 39.203125 C 0.0429688 38.636719 0.015625 38.070312 0.015625 37.5 C 0.015625 36.929688 0.0429688 36.363281 0.0976562 35.796875 C 0.152344 35.234375 0.238281 34.671875 0.347656 34.113281 C 0.457031 33.554688 0.597656 33.003906 0.761719 32.460938 C 0.925781 31.917969 1.117188 31.382812 1.335938 30.855469 C 1.554688 30.332031 1.796875 29.816406 2.0625 29.316406 C 2.332031 28.816406 2.625 28.328125 2.941406 27.855469 C 3.253906 27.382812 3.59375 26.925781 3.953125 26.488281 C 4.316406 26.046875 4.695312 25.625 5.097656 25.226562 C 5.5 24.824219 5.921875 24.441406 6.359375 24.082031 C 6.800781 23.71875 7.257812 23.382812 7.730469 23.066406 C 8.203125 22.75 8.6875 22.457031 9.191406 22.191406 C 9.691406 21.921875 10.207031 21.679688 10.730469 21.460938 C 11.257812 21.246094 11.789062 21.054688 12.335938 20.886719 C 12.878906 20.722656 13.429688 20.585938 13.988281 20.472656 C 14.542969 20.363281 15.105469 20.28125 15.671875 20.222656 C 16.238281 20.167969 16.804688 20.140625 17.375 20.140625 C 17.941406 20.140625 18.507812 20.167969 19.074219 20.222656 C 19.640625 20.28125 20.203125 20.363281 20.761719 20.472656 C 21.316406 20.585938 21.867188 20.722656 22.414062 20.886719 C 22.957031 21.054688 23.492188 21.246094 24.015625 21.460938 C 24.542969 21.679688 25.054688 21.921875 25.558594 22.191406 C 26.058594 22.457031 26.546875 22.75 27.019531 23.066406 C 27.492188 23.382812 27.945312 23.71875 28.386719 24.082031 C 28.824219 24.441406 29.246094 24.824219 29.648438 25.226562 C 30.050781 25.625 30.433594 26.046875 30.792969 26.488281 C 31.152344 26.925781 31.492188 27.382812 31.808594 27.855469 C 32.125 28.328125 32.414062 28.816406 32.683594 29.316406 C 32.953125 29.816406 33.195312 30.332031 33.410156 30.855469 C 33.628906 31.382812 33.820312 31.917969 33.984375 32.460938 C 34.152344 33.003906 34.289062 33.554688 34.398438 34.113281 C 34.511719 34.671875 34.59375 35.234375 34.648438 35.796875 C 34.707031 36.363281 34.734375 36.929688 34.734375 37.5 Z M 34.734375 37.5 " fill-opacity="1" fill-rule="nonzero"/></g><path fill="#01975c" d="M 17.375 52.851562 C 8.910156 52.851562 2.023438 45.964844 2.023438 37.5 C 2.023438 29.035156 8.910156 22.148438 17.375 22.148438 C 25.835938 22.148438 32.722656 29.035156 32.722656 37.5 C 32.722656 45.964844 25.839844 52.851562 17.375 52.851562 Z M 17.375 22.585938 C 9.148438 22.585938 2.460938 29.277344 2.460938 37.5 C 2.460938 45.722656 9.148438 52.414062 17.375 52.414062 C 25.597656 52.414062 32.289062 45.722656 32.289062 37.5 C 32.289062 29.277344 25.597656 22.585938 17.375 22.585938 Z M 17.375 22.585938 " fill-opacity="1" fill-rule="nonzero"/><path fill="#01975c" d="M 17.609375 28.316406 C 17.644531 28.335938 17.683594 28.347656 17.71875 28.359375 C 18.441406 28.554688 18.886719 29.117188 18.886719 29.859375 C 18.890625 31.800781 18.890625 33.738281 18.886719 35.679688 L 18.886719 41.488281 C 18.980469 41.402344 19.042969 41.351562 19.101562 41.292969 C 19.957031 40.441406 20.800781 39.578125 21.664062 38.734375 C 22.527344 37.890625 23.925781 38.289062 24.203125 39.445312 C 24.34375 40.023438 24.167969 40.515625 23.75 40.933594 C 22.402344 42.273438 21.058594 43.617188 19.71875 44.964844 C 19.3125 45.371094 18.90625 45.78125 18.496094 46.183594 C 17.820312 46.851562 16.921875 46.851562 16.246094 46.179688 C 14.488281 44.425781 12.734375 42.671875 10.980469 40.910156 C 10.554688 40.484375 10.398438 39.976562 10.558594 39.398438 C 10.710938 38.832031 11.089844 38.46875 11.65625 38.335938 C 12.222656 38.199219 12.710938 38.359375 13.125 38.773438 C 13.960938 39.609375 14.796875 40.445312 15.632812 41.28125 C 15.6875 41.347656 15.738281 41.417969 15.785156 41.488281 L 15.859375 41.453125 L 15.859375 41.1875 C 15.859375 37.535156 15.875 33.886719 15.847656 30.234375 C 15.84375 29.28125 16.148438 28.617188 17.089844 28.320312 Z M 17.609375 28.316406 " fill-opacity="1" fill-rule="nonzero"/><path fill="#ffffff" d="M 10.355469 44.6875 C 10.414062 44.808594 10.460938 44.9375 10.535156 45.050781 C 10.671875 45.265625 10.890625 45.367188 11.128906 45.433594 L 10.355469 45.433594 Z M 10.355469 44.6875 " fill-opacity="1" fill-rule="nonzero"/><path fill="#fffaf3" d="M 46.277344 37.5 C 46.277344 39.804688 44.566406 41.574219 42.316406 41.574219 L 39.058594 41.574219 L 39.058594 33.425781 L 42.316406 33.425781 C 44.566406 33.425781 46.277344 35.195312 46.277344 37.5 Z M 44.480469 37.5 C 44.480469 36.101562 43.597656 35.21875 42.316406 35.21875 L 40.917969 35.21875 L 40.917969 39.78125 L 42.316406 39.78125 C 43.601562 39.78125 44.484375 38.898438 44.484375 37.5 Z M 44.480469 37.5 " fill-opacity="1" fill-rule="nonzero"/><path fill="#fffaf3" d="M 46.976562 37.5 C 46.976562 35.101562 48.875 33.261719 51.214844 33.261719 C 53.554688 33.261719 55.453125 35.101562 55.453125 37.5 C 55.453125 39.898438 53.554688 41.738281 51.214844 41.738281 C 48.875 41.738281 46.976562 39.898438 46.976562 37.5 Z M 53.589844 37.5 C 53.589844 36.042969 52.542969 35.078125 51.214844 35.078125 C 49.886719 35.078125 48.839844 36.042969 48.839844 37.5 C 48.839844 38.957031 49.886719 39.921875 51.214844 39.921875 C 52.542969 39.921875 53.589844 38.957031 53.589844 37.5 Z M 53.589844 37.5 " fill-opacity="1" fill-rule="nonzero"/><path fill="#fffaf3" d="M 55.570312 33.425781 L 57.527344 33.425781 L 58.9375 39.128906 L 60.507812 33.425781 L 62.023438 33.425781 L 63.59375 39.128906 L 65.003906 33.425781 L 66.960938 33.425781 L 64.714844 41.574219 L 62.59375 41.574219 L 61.265625 36.765625 L 59.9375 41.574219 L 57.820312 41.574219 Z M 55.570312 33.425781 " fill-opacity="1" fill-rule="nonzero"/><path fill="#fffaf3" d="M 74.179688 33.425781 L 74.179688 41.574219 L 72.78125 41.574219 L 69.640625 37.152344 L 69.640625 41.574219 L 67.777344 41.574219 L 67.777344 33.425781 L 69.171875 33.425781 L 72.316406 37.847656 L 72.316406 33.425781 Z M 74.179688 33.425781 " fill-opacity="1" fill-rule="nonzero"/><path fill="#fffaf3" d="M 80.351562 39.78125 L 80.351562 41.578125 L 75.578125 41.578125 L 75.578125 33.425781 L 77.441406 33.425781 L 77.441406 39.78125 Z M 80.351562 39.78125 " fill-opacity="1" fill-rule="nonzero"/><path fill="#fffaf3" d="M 80.351562 37.5 C 80.351562 35.101562 82.25 33.261719 84.589844 33.261719 C 86.929688 33.261719 88.828125 35.101562 88.828125 37.5 C 88.828125 39.898438 86.929688 41.738281 84.589844 41.738281 C 82.25 41.738281 80.351562 39.898438 80.351562 37.5 Z M 86.96875 37.5 C 86.96875 36.042969 85.917969 35.078125 84.589844 35.078125 C 83.261719 35.078125 82.214844 36.042969 82.214844 37.5 C 82.214844 38.957031 83.261719 39.921875 84.589844 39.921875 C 85.917969 39.921875 86.96875 38.957031 86.96875 37.5 Z M 86.96875 37.5 " fill-opacity="1" fill-rule="nonzero"/><path fill="#fffaf3" d="M 94.363281 40.296875 L 91.332031 40.296875 L 90.925781 41.574219 L 88.886719 41.574219 L 91.660156 33.425781 L 94.035156 33.425781 L 96.808594 41.574219 L 94.769531 41.574219 Z M 93.804688 38.546875 L 92.847656 35.554688 L 91.894531 38.546875 Z M 93.804688 38.546875 " fill-opacity="1" fill-rule="nonzero"/><path fill="#fffaf3" d="M 104.726562 37.5 C 104.726562 39.804688 103.015625 41.574219 100.765625 41.574219 L 97.503906 41.574219 L 97.503906 33.425781 L 100.765625 33.425781 C 103.015625 33.425781 104.726562 35.195312 104.726562 37.5 Z M 102.933594 37.5 C 102.933594 36.101562 102.046875 35.21875 100.765625 35.21875 L 99.367188 35.21875 L 99.367188 39.78125 L 100.765625 39.78125 C 102.046875 39.78125 102.933594 38.898438 102.933594 37.5 Z M 102.933594 37.5 " fill-opacity="1" fill-rule="nonzero"/></svg>